<?xml version="1.0" encoding="utf-8"?>
<!-- Generator: Adobe Illustrator 23.0.1, SVG Export Plug-In . SVG Version: 6.00 Build 0)  -->
<svg version="1.1" id="Camada_1" xmlns="http://www.w3.org/2000/svg" xmlns:xlink="http://www.w3.org/1999/xlink" x="0px" y="0px"
	 viewBox="0 0 464.1 470.9" style="enable-background:new 0 0 464.1 470.9;" xml:space="preserve">
<style type="text/css">
	.st0{fill:#0099FF;stroke:#3B7ABA;stroke-miterlimit:10;}
</style>
<title>circleStar</title>
<path class="st0" d="M430.9,350.9c-0.2,20.5-16.2,38.1-36,39.5c-11.9,0.9-22.6,10.4-25,22.3c-4.9,24.3-28.8,38.2-51.9,30.1
	c-10.9-3.8-24.6,0.8-31.2,10.4c-12.2,17.9-36.5,22.5-54.4,10.4c-1.8-1.2-3.6-2.6-5.1-4.2c-8.1-7.8-22.7-9.5-32.4-3.6
	c-21.1,12.9-47.6,4.3-57.2-18.6c-0.5-1.3-1.2-2.5-2-3.7c-6.9-9.7-16.1-14.1-28-12.8c-3.6,0.4-7.2,0.2-10.7-0.4
	c-19.5-3.8-32.4-20.1-32.1-40.2c0.3-11.3-8.4-23.5-18.7-26.6c-23.8-7.1-35.3-32.8-24.9-55.4c4.9-10.6,1.9-24.9-6.9-32.4
	c-16.7-14.6-18.4-39.9-3.9-56.6c1.1-1.3,2.4-2.6,3.7-3.7c9.2-8.3,12-21.6,7-32.9c-10-21.8,1.2-47.6,23.6-54.7
	c10.4-3.3,16.9-10.5,19.5-21.1c0.8-3.2,0.6-6.6,0.8-9.9c1.1-22,22.5-39.8,43.8-36.6c11.6,1.8,24.5-5.6,29-16.5
	c8.2-20.1,31.1-29.8,51.2-21.6c1.7,0.7,3.3,1.5,4.8,2.4c11.9,6.9,24.3,5.5,34.6-3.7c16.1-14.5,40.9-13.2,55.3,2.9
	c1,1.1,2,2.3,2.8,3.5c7.7,10.7,20.2,14.8,32.6,10.7c22-7.4,46.2,6.6,50.8,29.4c2.6,13.1,12.3,22,25.6,23.5
	c21.8,2.4,37.5,21.9,35.1,43.7c-0.2,1.5-0.4,3.1-0.8,4.6c-2.8,12.3,2.9,25,13.8,31.2C464,171.7,470,199,456,217.9
	c-7.4,10-7.4,25.2-0.1,35c14.1,19,8.2,46.2-12.2,57.9c-11.1,6.2-16.8,19-14,31.4C430.3,345,430.5,348,430.9,350.9z"/>
</svg>
