<svg id="Camada_1" data-name="Camada 1" xmlns="http://www.w3.org/2000/svg" viewBox="0 0 304 304.1"><defs><style>.cls-1{fill:#fff;}</style></defs><path class="cls-1" d="M151.5,304.09C66.28,303.08-1.1,234.55,0,150A152,152,0,0,1,154,0c84.13,1.1,151.11,70.05,150,154.46C302.93,237.13,233.69,305.06,151.5,304.09ZM15.37,152a136.61,136.61,0,0,0,137,136.5c75.32-.13,136.09-61.24,136.07-136.83,0-75.24-61.29-136.35-136.66-136.3S15.19,76.93,15.37,152Z"/><path class="cls-1" d="M144.22,102.73c0-16.66-.05-33.31,0-50,0-5.26,3.25-8.52,7.83-8.46,4.36.06,7.31,3.22,7.63,8.21.08,1.16,0,2.33,0,3.5,0,26.65.43,53.3-.23,79.94-.22,9.08,2.31,15,9.71,20.29,11.48,8.24,22.22,17.51,33.1,26.56,1.9,1.58,4.07,4.26,4,6.38-.05,2.52-1.8,6.22-3.84,7.17-2.31,1.06-6.58.67-8.6-.89-16-12.45-31.8-25.27-47.48-38.17-1.35-1.12-2.08-3.69-2.1-5.6C144.15,135.37,144.22,119.05,144.22,102.73Z"/></svg>