<svg xmlns="http://www.w3.org/2000/svg" viewBox="0 0 1204.62 319"><defs><style>.cls-1{fill:#d00a11;}</style></defs><g id="Camada_2" data-name="Camada 2"><path class="cls-1" d="M1145.63,71.16c-49.6-32.19-123.56-31-171,2.81-68.38,48.72-65.31,135.4,6.39,179.1a146.9,146.9,0,0,0,80.39,21.67c12-1,24.19-1.07,36-3.21,49.42-8.95,93.39-49,101.35-91.58C1206.39,139.33,1185.82,97.24,1145.63,71.16Zm4.41,92.92c-1.41,47-41.36,85-88.77,84.41-47.21-.56-86.56-40.21-86.29-87,.27-46.49,40.45-87,86.76-87.46C1109.51,73.61,1151.47,116.37,1150,164.08Z"/><path class="cls-1" d="M198.24,240.89c6.49-26,8.39-51.69-7.64-78.46H256c-11.65,35-13.42,69.56,1.59,108.1-50.12-.53-98.67,6.82-147.34,1.4C59,266.22,13.77,228.11,3,182.1c-9.93-42.47,8-75.3,39.78-102.31,13.48-11.46,29-19,45.56-24.33C127.54,42.94,199,42.84,244.24,55.18c5.83,14.33,3.14,29.5,1.94,47.84C204.39,75.31,162,64.61,115.25,79.18,72.55,92.49,47.34,128,51.81,169.61c4.31,40.07,37.94,74.86,78.7,78.82C152.73,250.59,175.82,253.7,198.24,240.89Z"/><path class="cls-1" d="M633.48,268.94c-22.47,8.38-34.63-3.52-47.48-16.38C543.5,210,500.35,168.16,451.1,119.8c3.73,53.78-8.11,101.74,11.48,150.08h-53C422.26,238.13,423.54,92.7,411.53,57c25.37-10.38,42.68,2,59.62,19.07,42.18,42.45,85.09,84.18,133.52,131.93-3.86-54.85,6.58-103.21-8.49-151.95,15.14-5,32.2-2.48,49.44-1C624.11,125.4,643.7,197.36,633.48,268.94Z"/><path class="cls-1" d="M910.68,229.37c-2.13,18.32-11.38,23.43-20.7,28.76C839.55,287,752.33,277,709.24,237.31c-51.94-47.87-46.9-121.14,11.1-161.62C764.09,45.15,836.22,37,894,56.4c4.88,11.29,1.71,22.7,0,35.3-34.17-13.11-66.7-24-102.49-14.2-44.81,12.26-69.86,45.59-67,91.46,2.65,42.31,36.35,76,80.86,79.63C840.14,251.45,874.59,250.08,910.68,229.37Z"/><path class="cls-1" d="M305.87,54.57h55.56c-11.63,72-11,143,0,215.22h-57C317.85,199,316.26,127.91,305.87,54.57Z"/></g></svg>