<svg xmlns="http://www.w3.org/2000/svg" viewBox="0 0 1338.27 302.08"><defs><style>.cls-1{fill:#223b78;}.cls-2{fill:#233b79;}.cls-3{fill:#223a78;}</style></defs><g id="Camada_2" data-name="Camada 2"><path class="cls-1" d="M0,135.88c1.16-5.61,2.25-11.23,3.49-16.83,7.4-33.29,23.9-61.25,50-83.21A147.19,147.19,0,0,1,127.57,2.05C145.28-.62,163-1.12,180.47,3.23c35.93,8.93,58.79,31.3,67.35,67.46,1.85,7.81,2.34,16.09,2.42,24.16.34,32.86.18,65.73.43,98.59.06,7.51-2.8,12.68-9.58,15.8-22.54,10.4-45,20.87-67.61,31.21-4.75,2.17-6.59,1-7.09-4.22-.22-2.31-.37-4.63-.37-6.95q.07-74.21.19-148.42c0-7.59-.55-15.1-3.54-22.18-6.88-16.3-19.94-23.91-36.91-24.44-32.52-1-60.75,10.1-84.59,32.15A119.42,119.42,0,0,0,4.72,129.61c-1,4.62-1.33,9.39-2,14.09-.25,1.76,0,3.92-2.72,4Z"/><path class="cls-2" d="M1338.27,207c-2.19,8.17-4.78,7.21-11.13,7.23-16.14.06-32.28,0-48.42,0-1,0-2.09.09-3.13,0-6.48-.42-8.44-2.42-8.45-8.89q0-55.92,0-111.84c0-5.77,1.75-7.9,7.55-8.17a117.34,117.34,0,0,1,16.34.45c5.16.49,7.25,3.19,7.44,9.16.26,8.12.33,16.25.33,24.38,0,20.09-.13,40.18-.19,60.27,0,1.51-.07,3,0,4.53.3,6,2.27,7.78,8.24,7.59,7.42-.25,14.84-.44,22.26-.65,4.85-.14,7.74,2.33,9.13,6.82Z"/><path class="cls-3" d="M299.17,166.05c.87,13.14-1.78,25.8-6.61,38-18.88,47.6-52.9,78.86-102.26,92.5-28.25,7.8-56.9,8-84.4-3.31C75.9,280.89,58.25,258,53,225.9a115.44,115.44,0,0,1-1.25-18c-.16-33.33-.11-66.67-.24-100,0-6.68,2.23-11.65,8.54-14.57C82.38,83,104.62,72.59,126.94,62.35c6.36-2.93,9-1.27,9,5.7.07,29.73,0,59.46,0,89.2,0,20.79-.25,41.58.15,62.36a84.64,84.64,0,0,0,3.08,22.27c4.59,15.34,16.25,23,31.57,25,19.11,2.58,37.57-.7,55-8.47,34.95-15.56,58.84-41.28,70-78.27.7-2.33,1.24-4.71,1.81-7.08S298.62,168.4,299.17,166.05Z"/><path class="cls-1" d="M728.61,144.84c3.85,3.49,8.23,6.53,11.43,10.51,16.74,20.92,4.43,53.08-22.06,57-10.61,1.57-21.51,1.39-32.29,1.64s-21.82.08-32.74.05c-4.41,0-6-1.55-6.29-6-.09-1.27-.07-2.55-.07-3.82q0-54.51,0-109c0-.7,0-1.4,0-2.09.13-6,1.65-7.81,7.68-7.73q27.51.38,55,1.15a48.06,48.06,0,0,1,9.23,1.58c22.85,5.2,27.91,34.09,16.7,48.81C733,139.75,730.64,142.41,728.61,144.84Zm-39.55,10.71-.09.52c-2,0-4-.15-5.91,0-4.33.41-6,2.58-5.9,7,.18,7.07.29,14.15.29,21.22,0,5.06,1.53,7.54,6.57,7.34a145,145,0,0,0,22.27-2.71,12.81,12.81,0,0,0,7.12-5c6.32-9.12,1.29-22.74-9.37-25.61C699.16,157,694.06,156.43,689.06,155.55Zm.86-19.34.2.67c4.53-1.27,9.14-2.32,13.56-3.9,3.69-1.32,5.65-4.41,5.86-8.31a34,34,0,0,0-.44-7.6c-1.2-6.69-4.22-9.34-11-9.77-5.28-.34-10.58-.65-15.87-.55-1.32,0-3.57,1.47-3.77,2.56a105.87,105.87,0,0,0-2,16.52c-.15,5.91,3.41,9.31,9.33,10C687.14,136,688.53,136.1,689.92,136.21Z"/><path class="cls-1" d="M497.69,149.1q0,28.58,0,57.14c0,6.31-1.09,7.64-7.29,8.07-4.74.33-9.51.46-14.27.39-6.26-.08-8.83-2.33-9.12-8.5-.44-9.27-.4-18.57-.66-27.85a87.46,87.46,0,0,0-.8-10.74c-.81-5.27-3.12-8-8.36-8.14a225.11,225.11,0,0,0-23.93.91c-3.15.25-4,3-4,6,.08,12.77.09,25.55.12,38.32,0,1.16,0,2.33,0,3.49-.09,3.25-1.77,5.52-5,5.67-6.47.28-13,.35-19.44,0-3.64-.18-5.7-2.79-6.2-6.87a83.16,83.16,0,0,1-.61-9.72Q398,145,398.05,92.76c0-5.63,1.54-7.39,7.1-7.59,5-.18,10-.27,15,0,5.87.35,8.19,2.54,8.58,8.43.49,7.29.44,14.61.67,21.92a78.57,78.57,0,0,0,.48,8c.94,6.94,2.84,9.24,9.85,9.93a155.62,155.62,0,0,0,20.49.41c4.76-.17,6.85-2.74,6.74-7.54-.26-10.78-.6-21.56-1.09-32.33-.25-5.67.79-7.74,6.41-8.11,7.38-.49,14.81-.19,22.22-.13,2.6,0,3.17,1.93,3.17,4.11q0,7.48,0,15V149.1Z"/><path class="cls-1" d="M1237.89,136.53c0,13.7.13,27.4,0,41.1-.23,20.89-9.62,32.31-30.16,36.94a78.29,78.29,0,0,1-37.87-.95c-15.3-4.08-24.75-15.77-25.2-32.73-.79-29.94-1-59.89-1.42-89.83,0-3.19,1.34-5.17,4.55-5.46,5.88-.54,11.77-1.17,17.67-1.31,4.83-.12,7.73,2.38,8.24,7.21.62,5.87.82,11.8.85,17.71.12,20.31,0,40.63.17,61a66.29,66.29,0,0,0,1.26,14.51c3.13,13.51,17.56,14.31,25.78,8.57,3.37-2.35,4.75-6,4.83-10,.42-21.34.83-42.69,1-64,.09-9.16-.32-18.31-.51-27.47-.07-3.89,1-5.7,4.82-5.81,8-.23,16,0,23.94.29a3.25,3.25,0,0,1,2.22,2,18,18,0,0,1,.58,5.14c0,14.4,0,28.8,0,43.19Z"/><path class="cls-1" d="M631.06,213.52c-8.39,0-16.6.15-24.8-.06-4.19-.11-7.19-2.64-8.82-6.41-1.93-4.45-3.55-9-5.28-13.58-2.19-5.75-4.09-6.64-10.28-6.28-6.72.39-13.46.09-20.19.27-8.24.23-11.13,2.35-14,10.06-1.39,3.8-2.39,7.75-3.87,11.52-1.74,4.45-4.3,5.83-8.93,5.56-4.85-.28-9.71-.47-14.57-.65s-6.22-1.64-4.67-6.29c5.81-17.47,11.81-34.88,17.75-52.31q10-29.25,20-58.51c.48-1.43,1-2.85,1.52-4.25,1.77-4.55,5-7.32,10-7.3s10.2.31,15.28.71,7.63,4,9.26,8.34c2.33,6.18,4.53,12.41,6.7,18.64Q613.1,161.35,630,209.74C630.4,211,630.72,212.36,631.06,213.52ZM583.53,166c-3.79-12.36-7.42-24.3-11.15-36.22-.21-.67-1.21-1.57-1.77-1.52s-1.43,1-1.67,1.7c-3.41,10.33-6.79,20.67-10,31.06-1.08,3.46,0,4.89,3.52,4.94C569.25,166,576.09,166,583.53,166Z"/><path class="cls-1" d="M1024,213.77c-8.16,0-15.93.12-23.7-.05-5.29-.12-8.92-3-10.83-7.88-1.56-4-2.94-8-4.44-12.05-2.19-5.89-4.65-7.09-10.85-6.62-6,.45-12.07.32-18.1.26-7.68-.09-12.76,3.33-15.27,10.63-1.28,3.72-2.69,7.4-4.14,11.06-1.21,3.06-3.31,4.94-6.83,4.91-7.08,0-14.15,0-22.14,0,.29-2.64.13-5.18.89-7.4q19.18-56.24,38.57-112.39c2.34-6.79,4.82-8.84,11.88-9,4.16-.12,8.35.19,12.51.46,5.17.34,8.66,3.13,10.4,7.93q6.22,17.16,12.27,34.36,14.46,41.32,28.82,82.68C1023.4,211.57,1023.66,212.57,1024,213.77ZM963,167.17c2-.29,5.52-.85,9.08-1.31,2.85-.37,3.82-2,3-4.6q-4.95-16.06-10-32.08c-.2-.64-.9-1.12-1.37-1.67-.63.53-1.62,1-1.82,1.61-2.89,9.5-6,18.95-8.39,28.57C951.65,164.86,954.1,167.42,963,167.17Z"/><path class="cls-1" d="M1089.68,85c7.42,0,14.84.08,22.25,0,6.32-.09,9.3,2.47,9.64,8.73a47.66,47.66,0,0,1,0,5.21c-.42,7.32-2.84,9.08-10.15,8.94-13.1-.23-26.21-.11-39.31.07-4.84.07-7.6,2.42-8.76,6.53s0,7.9,3.94,10.26c8.55,5.09,17.36,9.76,26.08,14.57,8.06,4.45,15.85,9.22,21.43,16.83,14.58,19.9,5.45,48.52-18,56.35-15.43,5.15-31,4.8-46.68,1.2-3.71-.86-7.46-1.6-11.17-2.49a5.35,5.35,0,0,1-4.31-5.6c-.1-7.31-.2-14.63,0-21.93.08-3.55,1.88-4.48,5.08-2.85,3.71,1.89,7.29,4,10.92,6.09,7.92,4.48,16.54,6.57,25.53,7.29,6.14.49,10.69-2,12.88-6.9,2.38-5.3,1.35-9.84-3.74-14.23a58.45,58.45,0,0,0-8.62-5.83c-8.07-4.79-16.34-9.25-24.31-14.21-9-5.63-16.23-13-18.21-23.92-3.26-17.92,3.32-34.45,24.15-40.63C1068.55,85.45,1079.12,85.53,1089.68,85Z"/><path class="cls-1" d="M852.42,159.23q0-21.07,0-42.16c0-.93,0-1.86,0-2.79-.28-5.31-2.44-7-7.78-7a96.48,96.48,0,0,1-14.53-.66c-5.32-.76-8-4-8.06-9.29a36.29,36.29,0,0,1,1.48-9.2c.68-2.66,3.12-2.81,5.39-2.81,7.55,0,15.1,0,22.65,0h53.31a26.71,26.71,0,0,1,3.47.19c3.58.44,4.69,2,4.49,5.65a49.63,49.63,0,0,0,.16,8.27c.57,5.17-1.47,7.92-6.6,7.9-4.16,0-8.32-.45-12.49-.69-7.51-.44-10.65,2.22-10.77,9.73-.09,5.92.45,11.84.48,17.76.1,22.76.09,45.53.16,68.29,0,10.17-2.16,12.28-12.4,11.68-4-.24-8.11-.33-12.13-.82a6.72,6.72,0,0,1-6.29-6.39,77.34,77.34,0,0,1-.57-8.32c-.06-13.13,0-26.25,0-39.38Z"/><path class="cls-1" d="M803.65,152.62q0,26.48,0,52.95c0,6.74-1.34,8.4-7.92,8.65a147.48,147.48,0,0,1-15.31-.23c-4.55-.3-6.7-2.44-7.44-6.87a46.27,46.27,0,0,1-.66-7.61q-.17-51.91-.23-103.83c0-8.32,2.29-10.66,10.52-10.54,4.17.06,8.36.31,12.51.71,5.41.53,7.45,2.55,7.9,7.91.36,4.39.5,8.81.52,13.21.06,15.22,0,30.43,0,45.65Z"/></g></svg>