<svg xmlns="http://www.w3.org/2000/svg" viewBox="0 0 1451 319"><defs><style>.cls-1{fill:#079c55;}.cls-2{fill:#079c56;}.cls-3{fill:#feb31b;}.cls-4{fill:#fdae1c;}.cls-5{fill:#fca61c;}.cls-6{fill:#fbb41a;}.cls-7{fill:#f29f1f;}.cls-8{fill:#fe9a1f;}.cls-9{fill:#fda31e;}.cls-10{fill:#fa8e20;}</style></defs><g id="Camada_2" data-name="Camada 2"><path class="cls-1" d="M579.26,318.5c-1.64-.67-3.22-1.72-4.91-1.95-27.34-3.77-52.4-13-73.54-31.19-27.9-23.95-41.12-55-41.51-91.31-.56-51.71-.15-103.42-.14-155.13,0-7.45,2.41-10,9.82-10q29.28-.12,58.55,0c8.17,0,10.53,2.52,10.53,11,0,48.37-.13,96.74.14,145.11a101.8,101.8,0,0,0,3,23.7c7.22,29,29.41,45.53,59.31,44.89,33.89-.71,56.93-23.15,59.75-58.3.42-5.31.62-10.65.63-16q.08-69,0-138.11c0-10.56,1.71-12.29,12.13-12.3q27.78,0,55.54,0c9,0,10.94,2,10.94,10.83q0,75.81,0,151.62c0,58.44-34.53,104.2-90.91,120.07-8.3,2.33-17,3.45-25.41,5.26a18.26,18.26,0,0,0-3.93,1.86Z"/><path class="cls-2" d="M1065.67,318.5c-.75-.63-1.43-1.69-2.26-1.83-18.67-3.13-34.17-11.79-46.4-26.27a11.93,11.93,0,0,0-2-1.09v13c0,9.69-1.64,11.32-11.34,11.32q-24.26,0-48.52,0c-7.27,0-9.73-2.33-9.73-9.47q0-140,0-280.1c0-7.4,2.52-9.81,10-9.81q26.51,0,53,0c8.34,0,10.56,2.24,10.57,10.78q0,38.52,0,77v5.81l2,1.24c1.3-1.89,2.32-4.08,4-5.62,26.41-25,68.22-30.67,102.55-14,27.52,13.35,45.46,35.2,54.63,63.91,12.34,38.65,10.69,76.74-9.18,112.74-15.51,28.1-39.93,44.51-71.47,50.39-1.35.25-2.55,1.31-3.81,2Zm-3.29-173.16c-16,.64-31.16,9.19-40.25,27.34-6.68,13.37-7.76,27.54-4.32,41.87,4.5,18.76,15.67,31.91,34.73,36.92,18.84,5,35.9,1.3,49.29-13.5,12.25-13.55,14.79-30.12,12.82-47.67C1111.71,164,1091.65,145.38,1062.38,145.34Z"/><path class="cls-1" d="M1300.87,318.5c-1-.62-1.86-1.62-2.91-1.81-46.83-8.5-74.58-37.41-85.46-82.47-8.83-36.59-5.22-72.35,14.49-105.28,24.21-40.46,73.21-58.81,115.43-43.74,12.52,4.47,23,11.89,32.08,21.53.43.47,1,.85,2.44,2.16,0-5.69,0-10.4,0-15.1,0-6.74,2.59-9.31,9.43-9.32,18.19,0,36.37-.21,54.54.16,3.39.06,6.73,2.39,10.09,3.67V309.49c-3.31,1.38-6.6,3.87-10,3.95-17,.4-34,.21-51,.17-6.82,0-9.18-2.46-9.24-9.4,0-4.72,0-9.43,0-15.1a27.88,27.88,0,0,0-2.43,2.08c-11.66,14.1-26.65,22.32-44.58,25.46-1,.18-1.94,1.21-2.9,1.85ZM1380,198.17c-.55-3.74-.88-9.28-2.26-14.55-4.83-18.34-15.5-31.82-34.4-36.69-18.05-4.64-34.25-.13-46.86,13.79-13.59,15-16,33.26-12.51,52.45,5.85,31.73,37.51,49.11,66.43,36.15C1371.43,239.91,1379,221.71,1380,198.17Z"/><path class="cls-1" d="M313.81,241.94c-.22,7.49-.24,15-.68,22.47-1.55,26.44-24.45,49-50.91,49.12q-105.8.44-211.6,0c-23.4-.09-44-17.83-49.75-41.35-.32-1.33-1.39-2.49-2.11-3.73V135.34c.67-.89,1.73-1.69,2-2.69,2.8-12.29,9.2-22.27,18.68-30.53Q69.69,58.35,119.79,14.36A57,57,0,0,1,145.2,1.18c1-.22,1.8-1.28,2.69-2h17c.75.65,1.42,1.7,2.25,1.86,11,2.09,20.06,7.69,28.23,15.13,5.66,5.15,11.62,10,17.44,14.93.93.93,1.81,1.93,2.8,2.8C241.3,56.42,266.88,79,292.74,101.3c12.11,10.42,19.25,23.13,20.67,39,0,3.46.1,6.92.13,10.39q.15,20.81.29,41.61ZM284,197.39c.07-17.5,0-35,.27-52.52A24.94,24.94,0,0,0,275,124.7c-8.82-7.65-17.55-15.4-26.35-23.07Q219.46,76.19,190.2,50.77c-6.11-5.41-12.07-11-18.37-16.19a24.1,24.1,0,0,0-31.29.5Q89.08,79.9,37.76,124.9a25.39,25.39,0,0,0-9,20.26c.11,37.84,0,75.69.07,113.53a30.27,30.27,0,0,0,.63,6.93c2.88,11.87,12.41,19,25.43,19q101.52,0,203,0c1.5,0,3,0,4.5-.16,11.3-1.09,21.16-10.93,21.64-22,.29-6.82-.05-13.66-.1-20.49Z"/><path class="cls-3" d="M265-.78l2,2.11c1,1.81,1.69,4,3.1,5.4Q322.94,59.76,376,112.6c1.58,1.58,3.82,2.5,5.76,3.73q0,17.51,0,35c-2-1.31-4.35-2.32-6-4Q309.22,81.08,242.88,14.69c-1.75-1.75-3.78-3.21-5.68-4.81C242.39,7,247.59,4,252.76,1.07A16,16,0,0,0,255-.78Z"/><path class="cls-1" d="M846.73,114.17c2.72-2.86,5.28-5.89,8.17-8.57a95,95,0,0,1,53.47-24.88c5.81-.75,9.5,2.18,9.53,8q.14,31.75,0,63.51c0,5.07-1.93,6.79-7,7-7.64.33-15.41-.08-22.91,1.14-26,4.24-42.25,23.73-42.34,50.22-.11,30.84,0,61.68,0,92.52,0,8.59-2,10.55-10.58,10.56q-26.5,0-53,0c-7.63,0-9.76-2.15-9.76-9.81q0-104.77,0-209.54c0-7.47,2.35-9.81,9.88-9.82q26.76,0,53.52,0c7.47,0,9.91,2.45,10,9.84,0,6.46,0,12.92,0,19.38Z"/><path class="cls-4" d="M212.82,31.14,237.2,9.88c1.9,1.6,3.93,3.06,5.68,4.81Q309.28,81,375.67,147.35c1.68,1.67,4,2.68,6,4v52c-1.9-1.19-4.12-2.09-5.68-3.63-18.68-18.54-37.22-37.22-55.94-55.72-1.74-1.72-4.42-2.49-6.67-3.69-1.42-15.91-8.56-28.62-20.67-39C266.88,79,241.3,56.42,215.62,33.94,214.63,33.07,213.75,32.07,212.82,31.14Z"/><path class="cls-5" d="M313.41,140.34c2.25,1.2,4.93,2,6.67,3.69,18.72,18.5,37.26,37.18,55.94,55.72,1.56,1.54,3.78,2.44,5.68,3.63,1.17,16.32-6.28,29.75-19.48,35.13-1.49-1.3-3.07-2.52-4.47-3.92C344.83,221.72,332,208.79,319,196a35.42,35.42,0,0,0-5.18-3.61q-.15-20.81-.29-41.61C313.51,147.26,313.46,143.8,313.41,140.34Z"/><path class="cls-6" d="M381.71,116.33c-1.94-1.23-4.18-2.15-5.76-3.73q-53-52.84-105.86-105.87c-1.41-1.42-2.08-3.59-3.1-5.4,6.77-.21,11.76,3.57,16.47,7.64,16.21,14,32.3,28.12,48.43,42.21C344.06,61.81,356.06,72.64,368.44,83,379,91.86,382.79,103,381.71,116.33Z"/><path class="cls-7" d="M313.83,192.34A35.42,35.42,0,0,1,319,196c13,12.84,25.82,25.77,38.74,38.64,1.4,1.4,3,2.62,4.47,3.92-5.72,1.15-11.42,3-17.19,3.31-10.38.53-20.81.13-31.22.12Q313.83,217.15,313.83,192.34Z"/><path class="cls-8" d="M140,138.34c0-10.16-.35-20.33,0-30.48a29.73,29.73,0,0,1,8.56-20.25c3.69-3.79,7.95-7,12-10.49,1.76,1.52,3.62,2.93,5.25,4.57q55.85,55.79,111.7,111.56c1.78,1.77,4.31,2.78,6.49,4.14v44.54L244,241.61c-1.33-1.88-2.43-4-4-5.61q-47.19-47.34-94.54-94.51C144,140.07,141.85,139.37,140,138.34Z"/><path class="cls-9" d="M284,197.39c-2.18-1.36-4.71-2.37-6.49-4.14q-55.92-55.71-111.7-111.56c-1.63-1.64-3.49-3-5.25-4.57L190.2,50.77q29.25,25.42,58.49,50.86c8.8,7.67,17.53,15.42,26.35,23.07a24.94,24.94,0,0,1,9.18,20.17C284,162.38,284,179.89,284,197.39Z"/><path class="cls-10" d="M140,138.34c1.81,1,4,1.73,5.39,3.15Q192.79,188.65,240,236c1.6,1.61,2.7,3.73,4,5.61-7,.11-14,.34-20.95.32-17.49-.05-35,.21-52.46-.46A32.11,32.11,0,0,1,140,210.3C139.64,186.31,140,162.32,140,138.34Z"/></g></svg>