<svg id="Camada_1" data-name="Camada 1" xmlns="http://www.w3.org/2000/svg" xmlns:xlink="http://www.w3.org/1999/xlink" viewBox="0 0 1231.88 319"><defs><style>.cls-1{fill:url(#Gradiente_sem_nome_4);}.cls-2{fill:url(#Gradiente_sem_nome_4-2);}.cls-3{fill:none;}.cls-4{fill:#44bbc5;}.cls-5{clip-path:url(#clip-path);}.cls-6{mask:url(#mask);}.cls-7{fill:url(#Gradiente_sem_nome_3);}.cls-8{clip-path:url(#clip-path-2);}.cls-9{mask:url(#mask-2);}.cls-10{fill:url(#Gradiente_sem_nome_3-2);}.cls-11{fill:#114e65;}.cls-12{fill:#828487;}</style><linearGradient id="Gradiente_sem_nome_4" x1="232.21" y1="-1197.68" x2="233.87" y2="-1197.68" gradientTransform="matrix(0, -13.79, -58.26, 0, -69578.89, 3392.04)" gradientUnits="userSpaceOnUse"><stop offset="0"/><stop offset="1" stop-color="#fff"/></linearGradient><linearGradient id="Gradiente_sem_nome_4-2" x1="239.25" y1="-1200.53" x2="240.91" y2="-1200.53" gradientTransform="matrix(0, -15.25, -64.43, 0, -77068.89, 3763.08)" xlink:href="#Gradiente_sem_nome_4"/><clipPath id="clip-path"><polygon id="SVGID" class="cls-3" points="219.03 144.6 232.55 158.76 175.85 213.23 159.74 197.05 219.03 144.6"/></clipPath><mask id="mask" x="125.53" y="108.31" width="141.23" height="141.22" maskUnits="userSpaceOnUse"><rect class="cls-1" x="146.12" y="129.01" width="100.05" height="99.82" transform="translate(-69.34 180.61) rotate(-42.74)"/></mask><linearGradient id="Gradiente_sem_nome_3" x1="232.21" y1="-1197.68" x2="233.87" y2="-1197.68" gradientTransform="matrix(0, -13.79, -58.26, 0, -69578.89, 3392.04)" gradientUnits="userSpaceOnUse"><stop offset="0" stop-color="#41bbc7"/><stop offset="1" stop-color="#256c72"/></linearGradient><clipPath id="clip-path-2"><polygon id="SVGID-2" data-name="SVGID" class="cls-3" points="298.43 64.98 313.52 80.29 255.12 139.35 239.22 123.45 298.43 64.98"/></clipPath><mask id="mask-2" x="202.15" y="27.95" width="148.43" height="148.43" maskUnits="userSpaceOnUse"><rect class="cls-2" x="223.85" y="49.64" width="105.04" height="105.04" transform="translate(4.05 214.68) rotate(-42.74)"/></mask><linearGradient id="Gradiente_sem_nome_3-2" x1="239.25" y1="-1200.53" x2="240.91" y2="-1200.53" gradientTransform="matrix(0, -15.25, -64.43, 0, -77068.89, 3763.09)" xlink:href="#Gradiente_sem_nome_3"/></defs><polygon class="cls-4" points="196.08 233.77 306.86 233.77 215.24 140.88 162.73 199.91 196.08 233.77"/><polygon class="cls-4" points="350.52 233.77 467.15 233.77 294.3 61.09 239.01 123.24 350.52 233.77"/><g class="cls-5"><g class="cls-6"><rect class="cls-7" x="146.12" y="129.01" width="100.05" height="99.82" transform="translate(-69.34 180.61) rotate(-42.74)"/></g></g><g class="cls-8"><g class="cls-9"><rect class="cls-10" x="223.85" y="49.64" width="105.04" height="105.04" transform="translate(4.05 214.68) rotate(-42.74)"/></g></g><polygon class="cls-11" points="0 233.77 234.03 0 298.43 64.98 129.95 233.77 0 233.77"/><polygon class="cls-12" points="492.15 231.9 523.09 231.9 523.19 177.37 578.85 177.37 578.85 153.11 523.19 153.11 523.09 128.38 583.49 128.38 583.49 104.51 492.15 104.51 492.15 231.9"/><path class="cls-12" d="M695.55,175.47a38.17,38.17,0,0,0,10.13-13.94A42.24,42.24,0,0,0,709.11,145q0-20.44-12.23-30.47t-33.8-10H601V231.9H632V188h19.1l25.21,43.93h39.35L683.05,182a31.79,31.79,0,0,0,12.5-6.57m-24.64-14.62c-3.19,2.94-7.51,4.39-13,4.39H632V128.38h27.31q7.85,0,12.14,4.59t4.28,13.37q0,10.13-4.77,14.51"/><path class="cls-12" d="M817.73,109.2q-14-7.19-33-7.18-29.41,0-45.83,16.82t-16.43,49.47q0,22.51,7.73,37.23a50,50,0,0,0,21.68,21.87q14,7.18,32.85,7.16,29.61,0,45.94-16.8t16.33-49.66q0-22.73-7.64-37.24a49.51,49.51,0,0,0-21.68-21.67m-6.11,82.88c-2.36,6-5.79,10.42-10.32,13.09s-10,4-16.52,4-12-1.29-16.42-3.9-7.87-6.89-10.21-12.8-3.54-13.92-3.54-24,1.17-18.27,3.54-24.26,5.75-10.31,10.21-13,9.94-4,16.42-4,12,1.32,16.52,3.91,8,6.91,10.32,12.89,3.53,14,3.53,24.07-1.18,17.92-3.53,24"/><polygon class="cls-12" points="952.99 178.25 904.15 104.51 866.35 104.51 866.35 231.9 896.16 231.9 896.16 155.37 951.26 231.9 982.8 231.9 982.8 104.51 952.99 104.51 952.99 178.25"/><polygon class="cls-12" points="1001.51 128.38 1041.36 128.38 1041.36 231.9 1072.3 231.9 1072.3 128.38 1112.69 128.38 1112.69 104.51 1001.51 104.51 1001.51 128.38"/><polygon class="cls-12" points="1224.18 104.51 1132.71 104.6 1132.71 231.99 1224.18 231.99 1224.18 208.12 1163.64 208.12 1163.88 176.33 1218.53 176.65 1218.53 152.58 1163.88 152.27 1163.64 128.47 1224.18 128.38 1224.18 104.51"/><polygon class="cls-12" points="514.07 308.25 499.12 308.25 499.12 304.38 504.08 304.38 504.08 274.26 499.12 274.26 499.12 270.4 514.07 270.4 514.07 274.26 509.11 274.26 509.11 304.38 514.07 304.38 514.07 308.25"/><polygon class="cls-12" points="574.42 308.25 568.19 308.25 550.24 274.39 550.24 308.25 545.54 308.25 545.54 270.4 553.35 270.4 569.72 301.31 569.72 270.4 574.42 270.4 574.42 308.25"/><path class="cls-12" d="M636.62,305.5c-.93.41-1.77.79-2.53,1.15a25.83,25.83,0,0,1-3,1.11,28.16,28.16,0,0,1-3.37.83,21.47,21.47,0,0,1-4,.34,23,23,0,0,1-7.49-1.15,15.33,15.33,0,0,1-5.86-3.62A16.78,16.78,0,0,1,606.6,298a25.14,25.14,0,0,1-1.37-8.66,24.65,24.65,0,0,1,1.32-8.36,16.85,16.85,0,0,1,3.81-6.23A16,16,0,0,1,616.2,271a21.14,21.14,0,0,1,7.59-1.3,25.73,25.73,0,0,1,6.08.74,32.05,32.05,0,0,1,6.75,2.59v6h-.38a22.57,22.57,0,0,0-6.2-3.81,18.18,18.18,0,0,0-6.59-1.19,13.92,13.92,0,0,0-5.17.92,11.26,11.26,0,0,0-4.1,2.89,13.35,13.35,0,0,0-2.74,4.82,21.14,21.14,0,0,0-1,6.72,19.47,19.47,0,0,0,1.09,6.86,13.49,13.49,0,0,0,2.78,4.68,11,11,0,0,0,4.16,2.78,13.8,13.8,0,0,0,5,.91,18.52,18.52,0,0,0,6.81-1.25,19.56,19.56,0,0,0,5.95-3.73h.35Z"/><path class="cls-12" d="M694.86,274.74a17.36,17.36,0,0,1,3.55,6.23,26.39,26.39,0,0,1,1.23,8.36,25.93,25.93,0,0,1-1.26,8.38,17,17,0,0,1-3.52,6.16,14.92,14.92,0,0,1-5.53,3.87,19.25,19.25,0,0,1-7.28,1.3,19,19,0,0,1-7.26-1.33,15,15,0,0,1-5.55-3.84,17,17,0,0,1-3.52-6.17,29,29,0,0,1,0-16.67,17.57,17.57,0,0,1,3.56-6.29,14.57,14.57,0,0,1,5.55-3.81,19.37,19.37,0,0,1,7.23-1.32,19,19,0,0,1,7.31,1.33,15.28,15.28,0,0,1,5.5,3.8m-.45,14.59q0-7.36-3.31-11.37A12.23,12.23,0,0,0,673,278q-3.28,4-3.29,11.37t3.36,11.41a12.21,12.21,0,0,0,18,0q3.35-4,3.35-11.41"/><path class="cls-12" d="M761.85,308.25h-6.54L742.66,293.2h-7.1v15.05h-5V270.4h10.6a30.48,30.48,0,0,1,5.72.44,12.2,12.2,0,0,1,4.12,1.59,9.55,9.55,0,0,1,3.21,3.27,9.72,9.72,0,0,1,1.16,5,11.15,11.15,0,0,1-2.06,6.85,12.46,12.46,0,0,1-5.67,4.16Zm-11.77-27.2a6.78,6.78,0,0,0-.58-2.89,5,5,0,0,0-1.89-2.12,7.07,7.07,0,0,0-2.59-1,19.13,19.13,0,0,0-3.53-.29h-5.93V289h5.09a18.35,18.35,0,0,0,4.17-.42,6.61,6.61,0,0,0,4.71-4,9.6,9.6,0,0,0,.55-3.52"/><path class="cls-12" d="M814.39,281.84a12.31,12.31,0,0,1-.87,4.66,11.28,11.28,0,0,1-2.46,3.72,12.46,12.46,0,0,1-4.63,2.94,19.78,19.78,0,0,1-6.73,1h-5v14.11h-5V270.4H799.9a25,25,0,0,1,5.77.57,13,13,0,0,1,4.2,1.79,10.27,10.27,0,0,1,3.34,3.61,11.28,11.28,0,0,1,1.18,5.47m-5.24.12a7.82,7.82,0,0,0-.68-3.4,5.68,5.68,0,0,0-2.09-2.37,8.51,8.51,0,0,0-2.78-1.13,18.82,18.82,0,0,0-4-.34h-5v15.12h4.24a18.67,18.67,0,0,0,5-.54,7.16,7.16,0,0,0,3.1-1.74,7.43,7.43,0,0,0,1.69-2.57,8.76,8.76,0,0,0,.49-3"/><path class="cls-12" d="M872.15,274.74A17.51,17.51,0,0,1,875.7,281a26.39,26.39,0,0,1,1.23,8.36,25.93,25.93,0,0,1-1.26,8.38,17,17,0,0,1-3.52,6.16,14.92,14.92,0,0,1-5.53,3.87,19.29,19.29,0,0,1-7.28,1.3,19,19,0,0,1-7.26-1.33,14.88,14.88,0,0,1-5.55-3.84A17,17,0,0,1,843,297.7a26,26,0,0,1-1.24-8.37A26.38,26.38,0,0,1,843,281a17.87,17.87,0,0,1,3.56-6.29,14.61,14.61,0,0,1,5.56-3.81,19.37,19.37,0,0,1,7.23-1.32,19,19,0,0,1,7.31,1.33,15.28,15.28,0,0,1,5.5,3.8m-.46,14.59q0-7.36-3.3-11.37a12.23,12.23,0,0,0-18.09,0Q847,282,847,289.33t3.36,11.41a12.21,12.21,0,0,0,18,0q3.35-4,3.34-11.41"/><path class="cls-12" d="M939.13,308.25H932.6L919.94,293.2h-7.09v15.05h-5V270.4h10.61a30.37,30.37,0,0,1,5.71.44,12.12,12.12,0,0,1,4.12,1.59,9.49,9.49,0,0,1,3.22,3.27,9.72,9.72,0,0,1,1.16,5,11.15,11.15,0,0,1-2.06,6.85,12.57,12.57,0,0,1-5.67,4.16Zm-11.77-27.2a6.93,6.93,0,0,0-.57-2.89A5,5,0,0,0,924.9,276a7.12,7.12,0,0,0-2.6-1,19,19,0,0,0-3.53-.29h-5.92V289h5.08a18.23,18.23,0,0,0,4.17-.42,6.67,6.67,0,0,0,3-1.57,6.79,6.79,0,0,0,1.69-2.45,9.83,9.83,0,0,0,.54-3.52"/><path class="cls-12" d="M996.76,308.25H991.4l-3.71-10.55H971.32l-3.71,10.55H962.5l13.77-37.85H983Zm-10.62-14.87-6.64-18.59-6.66,18.59Z"/><path class="cls-12" d="M1054.65,305.5c-.94.41-1.78.79-2.53,1.15a26.84,26.84,0,0,1-3,1.11l-.61.19a5.16,5.16,0,0,1-.78.2c0,.32.06.7.09,1.13s0,.84,0,1.23a8.12,8.12,0,0,1-2.37,6.3,8.7,8.7,0,0,1-6.12,2.19,21.61,21.61,0,0,1-2.47-.18,19.72,19.72,0,0,1-2.66-.48v-4.12h.23c.44.17,1,.37,1.81.61a8.22,8.22,0,0,0,2.43.36,6.18,6.18,0,0,0,3.94-1,3.89,3.89,0,0,0,1.25-3.2c0-.33,0-.68,0-1.06s0-.74-.07-1.08c-.32,0-.67.06-1,.08l-1,0a22.93,22.93,0,0,1-7.48-1.15,15.25,15.25,0,0,1-5.86-3.62,16.66,16.66,0,0,1-3.82-6.14,25.14,25.14,0,0,1-1.37-8.66,24.65,24.65,0,0,1,1.32-8.36,16.87,16.87,0,0,1,3.82-6.23,15.94,15.94,0,0,1,5.83-3.76,21.14,21.14,0,0,1,7.59-1.3,25.88,25.88,0,0,1,6.09.74,32.47,32.47,0,0,1,6.75,2.59v6h-.39a22.57,22.57,0,0,0-6.2-3.81,18.13,18.13,0,0,0-6.58-1.19,13.94,13.94,0,0,0-5.18.92,11.26,11.26,0,0,0-4.1,2.89,13.19,13.19,0,0,0-2.73,4.82,21.14,21.14,0,0,0-1,6.72,19.48,19.48,0,0,0,1.08,6.86,13.81,13.81,0,0,0,2.78,4.68,11,11,0,0,0,4.16,2.78,13.84,13.84,0,0,0,5,.91,18.52,18.52,0,0,0,6.81-1.25,19.56,19.56,0,0,0,6-3.73h.36Z"/><path class="cls-12" d="M1112.89,274.74a17.35,17.35,0,0,1,3.54,6.23,26.39,26.39,0,0,1,1.23,8.36,25.94,25.94,0,0,1-1.25,8.38,17.19,17.19,0,0,1-3.52,6.16,15,15,0,0,1-5.53,3.87,19.34,19.34,0,0,1-7.29,1.3,19,19,0,0,1-7.25-1.33,15,15,0,0,1-5.56-3.84,17.16,17.16,0,0,1-3.52-6.17,29,29,0,0,1,0-16.67,17.72,17.72,0,0,1,3.56-6.29,14.57,14.57,0,0,1,5.55-3.81,19.37,19.37,0,0,1,7.23-1.32,19,19,0,0,1,7.31,1.33,15.32,15.32,0,0,1,5.51,3.8m-.46,14.59q0-7.36-3.31-11.37a12.22,12.22,0,0,0-18.08,0q-3.3,4-3.29,11.37t3.35,11.41a12.21,12.21,0,0,0,18,0q3.35-4,3.35-11.41m-2.16-31.72a9.87,9.87,0,0,1-2,5.82,5.62,5.62,0,0,1-4.5,2,6.29,6.29,0,0,1-2.54-.5,8,8,0,0,1-2.21-1.43,17.16,17.16,0,0,0-2-1.64,3.19,3.19,0,0,0-1.82-.55,2.15,2.15,0,0,0-2,1.14,6.82,6.82,0,0,0-.77,3.08h-3.33a9,9,0,0,1,2-5.79,5.77,5.77,0,0,1,4.42-2,6.32,6.32,0,0,1,2.46.49,8.61,8.61,0,0,1,2.25,1.41,12.79,12.79,0,0,0,2.12,1.57,3.6,3.6,0,0,0,1.77.52,2.27,2.27,0,0,0,2-1.17,6,6,0,0,0,.8-2.95Z"/><polygon class="cls-12" points="1173.49 308.25 1148.55 308.25 1148.55 270.4 1173.49 270.4 1173.49 274.87 1153.59 274.87 1153.59 285.24 1173.49 285.24 1173.49 289.72 1153.59 289.72 1153.59 303.77 1173.49 303.77 1173.49 308.25"/><path class="cls-12" d="M1231.88,297.44a10.07,10.07,0,0,1-1,4.38,10.4,10.4,0,0,1-2.88,3.66,15.6,15.6,0,0,1-4.74,2.54,20.51,20.51,0,0,1-6.52.91,32.33,32.33,0,0,1-7.36-.76,37.31,37.31,0,0,1-6.65-2.26v-6.3h.36a20.79,20.79,0,0,0,6.63,3.68,21.6,21.6,0,0,0,7.07,1.3,12.93,12.93,0,0,0,7.28-1.76,5.38,5.38,0,0,0,2.6-4.67,5,5,0,0,0-1.23-3.71,8.32,8.32,0,0,0-3.75-1.86,36.66,36.66,0,0,0-4.13-.84q-2.22-.33-4.71-.84-5-1.07-7.46-3.65a10,10,0,0,1,1.59-14.51,16.43,16.43,0,0,1,10.19-3,32.87,32.87,0,0,1,13.22,2.65v5.94H1230a17.36,17.36,0,0,0-5.68-3,22,22,0,0,0-7.21-1.21,11.28,11.28,0,0,0-6.49,1.68,5,5,0,0,0-2.45,4.32,5.3,5.3,0,0,0,1.22,3.71,8.25,8.25,0,0,0,4.29,2.06c1.08.23,2.63.52,4.63.86s3.69.69,5.08,1a13.34,13.34,0,0,1,6.36,3.38,8.88,8.88,0,0,1,2.13,6.33"/></svg>