<svg id="Camada_1" data-name="Camada 1" xmlns="http://www.w3.org/2000/svg" viewBox="0 0 1244.94 313.81"><defs><style>.cls-1{fill:#20345d;}.cls-2{fill:#f8bb08;}.cls-3{fill:#1d294b;}.cls-4{fill:#f4ab05;}.cls-5{fill:#f09d06;}.cls-6{fill:#21345d;}.cls-7{fill:#f7b509;}.cls-8{fill:#d6880a;}.cls-9{fill:#f5a907;}.cls-10{fill:#f5ae03;}.cls-11{fill:#1d2c52;}.cls-12{fill:#3d546b;}.cls-13{fill:#3d546c;}.cls-14{fill:#3f556c;}.cls-15{fill:#dd9401;}.cls-16{fill:#e49e03;}.cls-17{fill:#fdd700;}.cls-18{fill:#2b3a64;}.cls-19{fill:#35426d;}.cls-20{fill:#3d4a74;}.cls-21{fill:#46517a;}.cls-22{fill:#515a81;}.cls-23{fill:#5c648a;}</style></defs><path class="cls-1" d="M760.55,113.33V5c0-1.13,0-2.25,0-3.38S760.83,0,762,0c.7,0,1.41,0,2.11,0,17,0,34,0,51.06,0a5.31,5.31,0,0,1,5.08,2.5c6.75,9.4,13.86,18.53,20.86,27.75Q850.46,42.62,859.84,55q10.5,13.85,21,27.68c.25.34.59.6.87.92,2.91,3.19,3.71,3.16,6.19-.44,4.84-7,10.15-13.73,15.44-20.44,3.83-4.86,7.27-10,11-15,4-5.29,8.16-10.44,12.17-15.71C932.3,24.33,938,16.6,943.85,8.9c2-2.64,4-5.27,6.13-7.82a4.37,4.37,0,0,1,2.12-1,5.89,5.89,0,0,1,1.68,0h52.75c.83,0,1.31.3,1.3,1.2s0,2,0,3V222.65c0,4.26,0,4.26-4.16,4.26H959.38a2,2,0,0,1-2.14-2.06c-.06-1.12,0-2.25,0-3.37V74.72c0-1.27,0-2.53,0-3.8,0-.24-.24-.47-.37-.71-.15.21-.31.43-.47.63-5.53,7.07-11,14.17-16.59,21.18-4,5-8.16,9.78-12.12,14.77-4.71,5.94-9.21,12-13.92,18-3.86,4.89-7.93,9.61-11.82,14.47s-7.67,9.75-11.46,14.65c-1.52,2-3.13,3.51-5.94,3-2.16-.34-4.67.2-6.45-.74s-2.47-3.19-3.73-4.82c-4.05-5.24-8.17-10.43-12.18-15.7-3-3.94-5.81-8-8.82-11.94-3.45-4.5-7.07-8.86-10.55-13.33q-5.6-7.19-11-14.47c-3.14-4.17-6.18-8.43-9.36-12.58-3.36-4.39-6.84-8.68-10.27-13-.22-.28-.39-.6-.59-.9a5,5,0,0,0-.31,1.16c0,1.13,0,2.25,0,3.38V222.42c0,4.49,0,4.49-4.35,4.49H763.36c-2.74,0-2.83.33-2.81-2.67,0-7.59,0-15.18,0-22.77Z"/><path class="cls-1" d="M1039.07,113.08V3.86c.07-4.37-.59-3.82,3.76-3.82q48.53,0,97.06,0a70.05,70.05,0,0,1,13.91,1.61c2,.4,4.07.41,6.12.77a102.46,102.46,0,0,1,20,5.62c9,3.54,17.58,7.75,25.06,14,3.08,2.57,6.41,4.89,9.22,7.71a100.25,100.25,0,0,1,8,9.55,96.19,96.19,0,0,1,11.22,18.66,118.56,118.56,0,0,1,7.34,21.16c1.21,4.76,1.88,9.64,2.71,14.48,1,5.87.43,11.69.69,17.52.11,2.52,0,5.06,0,7.59.11,5.55-.82,11-1.57,16.44a122.51,122.51,0,0,1-6,23.29,102.85,102.85,0,0,1-8.94,18.88,75,75,0,0,1-7.13,10.6c-.89,1.05-1.72,2.15-2.59,3.21-1.23,1.5-2.43,3-3.72,4.46a29.25,29.25,0,0,1-2.73,2.61c-.72.63-1.62,1.06-2.3,1.71a87.88,87.88,0,0,1-27,17.14,121.85,121.85,0,0,1-19.77,6.32c-4.35,1-9,1.42-13.42,2.07-7.56,1.09-15.07.59-22.59.62-27.43.13-54.86.05-82.29.05h-2.53c-2.48-.05-2.49-.05-2.54-2.51,0-.85,0-1.69,0-2.53Zm49.81-.47q0,31.61,0,63.2c0,4.4-.62,3.86,3.69,3.87,12.23,0,24.46-.08,36.69,0a88.26,88.26,0,0,0,23-2.53,52.21,52.21,0,0,0,21-10.64,51.41,51.41,0,0,0,15.11-21,84,84,0,0,0,6-28.31c.07-2.66-.07-5.34,0-8a63.13,63.13,0,0,0-1.78-17.66,72,72,0,0,0-5.44-15.79,67.9,67.9,0,0,0-7-10.66,44.34,44.34,0,0,0-10.36-9.47,58.42,58.42,0,0,0-16.32-7.45,61.28,61.28,0,0,0-16.16-2.55c-15-.34-30.07-.13-45.11-.13-3.79,0-3.34-.33-3.34,3.4Q1088.86,80.8,1088.88,112.61Z"/><path class="cls-1" d="M732.68,68.3c0,21.36.18,42.73-.14,64.09a97.34,97.34,0,0,1-1.34,14.34c-.6,3.63-1.29,7.26-1.82,10.91-.69,4.77-2.4,9.2-3.94,13.7a57.07,57.07,0,0,1-3.13,8c-2.23,4.24-4.65,8.41-7.25,12.44a78.07,78.07,0,0,1-12.64,14.41,86,86,0,0,1-26.33,16.67,102.66,102.66,0,0,1-17.46,5.56c-4.64,1-9.49,1.49-14.26,2.09-8.12,1-16.19.46-24.27.59-4.38.07-8.73-1-13.07-1.44a89,89,0,0,1-14.5-2.75,95.63,95.63,0,0,1-23.79-9.65A76.82,76.82,0,0,1,550,201.48a68,68,0,0,1-8-11.51,89.13,89.13,0,0,1-9.36-24.35c-1.2-5.19-2-10.46-2.75-15.75s-.37-10.28-.63-15.41c-.1-1.94.05-2,2.18-2q13.08,0,26.16,0h17.72c2.92,0,2.82-.2,2.87,2.62a56.58,56.58,0,0,0,7.35,27.05c2.73,4.86,6.66,8.7,11.12,12.17,5.61,4.36,12.2,6.05,18.75,7.8,3.42.91,7.14.78,10.72,1,2.67.13,5.35.12,8,0a57.2,57.2,0,0,0,20.6-4.89,42.72,42.72,0,0,0,15.75-12A41.08,41.08,0,0,0,677.21,155,83.15,83.15,0,0,0,681,142.08a47.26,47.26,0,0,0,1-9.86q.11-41.11,0-82.22a5.87,5.87,0,0,1,0-.84c.41-2.84-.93-3.65-3.61-3.63-17.86.11-35.72.06-53.58.06-.85,0-1.69,0-2.54,0-2.71-.15-3.54-1-3.54-3.76q0-19.6,0-39.21c0-2.51,0-2.57,2.48-2.57Q635.61,0,650,0h79.32c3.85,0,3.4-.35,3.4,3.34Q732.7,35.83,732.68,68.3Z"/><path class="cls-2" d="M134.3,231.78c-3.07,0-6.14.13-9.21.13q-24.12,0-48.23,0c-1.39,0-2.78-.13-4.17-.2,0-1.06.34-2.38-1.53-2.26a27.07,27.07,0,0,1-3.37,0,5.13,5.13,0,0,1-5.22-5.24c-.07-1.12.24-2.33-.08-3.36-1.29-4.12-1-8.42-1.52-12.62s-.81-8.59.1-12.6.5-8.18,1.25-12.26,1.22-8.45,2.23-12.48a170.89,170.89,0,0,1,6.27-19.72,159.24,159.24,0,0,1,14-27.69,100.86,100.86,0,0,1,11.59-15A199.11,199.11,0,0,1,115,90.84a105.41,105.41,0,0,1,17.41-11.59c2.07-1.11,4.36-3.08,5.11-5.17,1.87-5.25,4-10.38,6.09-15.52A15,15,0,0,1,148,52.65c.7-.59,1.26-.37,1.51.53a14.33,14.33,0,0,1-1.08,3,73.58,73.58,0,0,0-6.53,14.27c-1.35,3.8-2.79,7.57-4.19,11.36-2.17-.06-2.24,1.67-2.52,3.09-.21,1.08,0,2.23-.24,3.31a52.35,52.35,0,0,0-1.46,10.1q-.06,27.78,0,55.55c0,.84,0,1.69,0,2.53-.07,1.58,1,1.32,2,1.32a28,28,0,0,1,.37,3.26q0,33.56,0,67.1a17.51,17.51,0,0,1-.56,3.08Z"/><path class="cls-2" d="M360.88,149.35a28.44,28.44,0,0,1-.28-2.9q0-30.55,0-61.12c0-3.63-.49-3.46,3.31-3.46h58.63c.7,0,1.39.1,2.09.16,0,1.26-.25,2.65,1.86,2.37a6.77,6.77,0,0,1,2.87.22c1.63.53,3.35,1.09,3.71,3.18.25,1.47.69,2.92.82,4.4.35,4.27.66,8.54.85,12.82.13,2.94-.18,5.91.07,8.84.48,5.74-.95,11.34-.9,17a6.34,6.34,0,0,1-.19,1.21c-.78,3.71-1.53,7.43-2.34,11.13-.5,2.24-1,4.48-1.66,6.68A157.64,157.64,0,0,1,424,166a143.93,143.93,0,0,1-8.89,18.31,139,139,0,0,1-20,26.15c-3.38,3.5-7.14,6.63-10.72,9.93a7.93,7.93,0,0,1-.65.53c-3,2.19-5.93,4.42-9,6.53-3.37,2.33-6.61,5-10.31,6.66a9.39,9.39,0,0,0-5.69,6.36,96.39,96.39,0,0,1-7.32,17.24c-1.05,1.88-2.09,3.25-4.42,2.94a8.87,8.87,0,0,1,.37-1.56c1.2-2.71,2.76-5.22,4-7.93a119.26,119.26,0,0,0,5.8-15.81c2.07.67,3-.91,3.24-2.28,1.22-5.86,2.56-11.77,2.59-17.77.13-20.61,0-41.22,0-61.83,0-1,0-2,0-2.94C363,148.88,361.76,149.44,360.88,149.35Z"/><path class="cls-1" d="M67.6,313.79H3.5c-3.76,0-3.4.46-3.4-3.32q0-23.18,0-46.36c0-.7,0-1.4,0-2.11s.29-1.32,1.19-1.31H131.18a9.41,9.41,0,0,1,1.68,0,17.24,17.24,0,0,1,2,.58c-1.08,1.52,2.39,1.2,1.15,2.85-.2.27,0,.82,0,1.24v45.52c0,3.08.26,2.91-3,2.91Z"/><path class="cls-1" d="M496.32,52.35c-.26.27-.5.75-.78.78-1,.09-2,0-3,0H363c-2.48,0-2.52,0-2.52-2.52q0-24,0-48.07c0-2.47,0-2.52,2.52-2.52q13.29,0,26.58,0H493.86c2.46.05,2.51.06,2.51,2.53q0,24.47,0,48.92H366c-1.26,0-2.53,0-3.79,0-.24,0-.47.25-.7.39.22.14.44.4.67.41,1.26,0,2.53,0,3.79,0Z"/><path class="cls-3" d="M306.48,98.71c2.57,1,4,3.13,5.73,5.11a79.52,79.52,0,0,1,7.31,10,78.29,78.29,0,0,1,9.74,22.41A88.18,88.18,0,0,1,331.7,165a78.63,78.63,0,0,1-4.16,19.08,82.51,82.51,0,0,1-13.28,24.35,77,77,0,0,1-22.69,19.69,80.76,80.76,0,0,1-16.29,7.56,106.45,106.45,0,0,1-13.89,3.21,81.13,81.13,0,0,1-19.61.51,71.87,71.87,0,0,1-24.34-6.35,98.94,98.94,0,0,1-13-7,74.93,74.93,0,0,1-16-13.86,87.2,87.2,0,0,1-12.24-18,82.65,82.65,0,0,1-6.49-18c-1-4.14-2.08-8.28-1.68-12.61.55.28,1.5.48,1.57.86.23,1.08,0,2.25.14,3.35.31,1.72.41,3.71,1.36,5a128.49,128.49,0,0,0,9.73,12.3A101.91,101.91,0,0,0,191,194.54a57.66,57.66,0,0,0,8.08,5.61,73.55,73.55,0,0,0,13.77,6.21c6.95,2.26,13.94,4,21.31,3.72,3.51-.13,7,0,10.55,0a13.23,13.23,0,0,0,2.52,0c3.85-.79,7.71-1.59,11.52-2.51,5.46-1.33,10.43-3.94,15.45-6.32,3.3-1.56,6-4.33,9.17-6.23,6.21-3.72,10.92-9.06,15.1-14.7A70.38,70.38,0,0,0,309.72,159c2.12-7,4-13.94,3.54-21.35-.21-3.5-.05-7,0-10.54a48.56,48.56,0,0,0-1.58-10.5c-1.06-5-3-9.57-4.55-14.32A23.66,23.66,0,0,1,306.48,98.71Z"/><path class="cls-4" d="M43.15,231.71h-16c0-1.05-.43-1.57-1.51-1.42-2.42.34-3.67-.67-3.84-3.13a19.16,19.16,0,0,0-.65-5.28c-1.54-4.12-.88-8.44-1.44-12.64-1.05-7.87.18-15.85.83-23.74a34.54,34.54,0,0,1,.83-6.91c.91-3,.84-6.2,1.53-9.25.8-3.58,1.16-7.27,2.21-10.76,2-6.6,3.64-13.29,6.18-19.73a194.37,194.37,0,0,1,9.29-20.81c4-7.35,7.91-14.68,12.87-21.38,4.42-6,9-11.84,14-17.41,4.27-4.84,9-9.25,13.67-13.74a66.18,66.18,0,0,1,7.24-6.26q9.31-6.7,18.89-13.08c3.17-2.11,6.53-4,9.89-5.78,2.27-1.22,4.78-2,7-3.28,4.26-2.43,9-3.79,13.37-5.91,4.8-2.31,10-3.39,15-4.94,6.59-2,13.37-3.41,20-5.18a16.13,16.13,0,0,1,5.67-.8c-.12.52-.07,1.24-.41,1.55a46.5,46.5,0,0,1-5.69,4.82c-3.94,2.56-6.7,6.31-10.09,9.42a46.41,46.41,0,0,0-3.23,3.61c-1-1.69-2-.95-3,0-2.09,2.08-4.1,4.25-6.29,6.22a15.4,15.4,0,0,1-4.39,3c-4.42,1.78-8.69,3.95-13.08,5.72a94.08,94.08,0,0,0-13.32,7.08A188.61,188.61,0,0,0,102.5,72.88,152.15,152.15,0,0,0,90.19,83.4a127.11,127.11,0,0,0-18.41,20.9c-3.93,5.75-8.09,11.4-11.4,17.5-3.57,6.58-7.19,13.19-9.73,20.3-1.59,4.46-3.83,8.76-4.83,13.34-1.21,5.55-3.55,10.9-3.54,16.71-1.83,4.06-2.06,8.55-2.32,12.78-.48,7.76-1.64,15.52-1,23.34.06.84-.28,1.84.07,2.5,1.21,2.25.58,4.63.79,6.95s.68,4.89.78,7.34c.06,1.48.17,2.78,1.46,3.69A2.85,2.85,0,0,1,43.15,231.71Z"/><path class="cls-5" d="M178.2,20.29a16.13,16.13,0,0,0-5.67.8c-6.67,1.77-13.45,3.15-20,5.18-5,1.55-10.23,2.63-15,4.94-4.39,2.12-9.11,3.48-13.37,5.91-2.24,1.28-4.75,2.06-7,3.28-3.36,1.82-6.72,3.67-9.89,5.78q-9.57,6.38-18.89,13.08a66.18,66.18,0,0,0-7.24,6.26c-4.64,4.49-9.4,8.9-13.67,13.74-4.92,5.57-9.54,11.43-14,17.41-5,6.7-8.92,14-12.87,21.38a194.37,194.37,0,0,0-9.29,20.81c-2.54,6.44-4.21,13.13-6.18,19.73-1,3.49-1.41,7.18-2.21,10.76-.69,3.05-.62,6.2-1.53,9.25a34.54,34.54,0,0,0-.83,6.91c-.65,7.89-1.88,15.87-.83,23.74.56,4.2-.1,8.52,1.44,12.64a19.16,19.16,0,0,1,.65,5.28c.17,2.46,1.42,3.47,3.84,3.13,1.08-.15,1.55.37,1.51,1.42q-12.84.1-25.69.21c-1.16,0-1.38-.62-1.37-1.58.07-8.43-.32-16.89.29-25.27A218.92,218.92,0,0,1,6.88,164.9a233.17,233.17,0,0,1,12.35-35.26A218.26,218.26,0,0,1,68.9,59.8,217.11,217.11,0,0,1,155.78,9.19,212.21,212.21,0,0,1,180,3.39c7-1.22,14-2,21.1-2.71,8.13-.79,16.23-.52,24.34-.6-.05.67.15,1.58-.86,1.6a41.33,41.33,0,0,0-11.94,2.43,109.47,109.47,0,0,0-15.17,5.73c-5.9,2.88-11.83,5.71-16.88,10C180.06,20.32,179,20.16,178.2,20.29Z"/><path class="cls-6" d="M207.74,86.12c5.73-3,11.39-6,17.71-7.62.64,1.5,2,1,2.86.68,4.17-1.29,8.36-2.42,12.76-2.38,1.27,0,1.26-.81,1.26-1.68h2.53c.13.23.25.64.38.64,2.84,0,5.69,0,8.53,0,.13,0,.25-.42.38-.64h2.52c0,.88,0,1.76,1.27,1.66,3.91-.3,7.53,1.27,11.33,1.76,1.15.15,2.91.57,3.23,1.35,1.09,2.6,3.62,3.46,5.5,4.91a63.11,63.11,0,0,1,16.91,19.64c5.43,9.87,7.77,20.59,8.14,31.76.07,2.3-.71,4.61-.76,6.93-.1,4.85-1.7,9.35-3.14,13.85A66.46,66.46,0,0,1,294.63,167,54.9,54.9,0,0,1,282.31,183a84.55,84.55,0,0,1-11.24,8.27,56.44,56.44,0,0,1-24.44,8.46c-7.9.76-16,.72-24-1.31-12.21-3.08-22.32-9.41-31.32-17.86-1.09-1-1.73-2.5-2.81-3.54a37.14,37.14,0,0,1-6.62-9.4c-4.46-8.34-7.75-17.1-8-26.77,0-2-1-3.89-1.61-5.83.24-3.28,1.68-6.19,2.87-9.18.78-2,1.45-4,2.17-6h0c1.44-1.79,3.26-3.36,3.38-5.91h0a2.13,2.13,0,0,0,1.68-2.54h0a2.13,2.13,0,0,0,1.69-2.53h0c1.12-.13.82-1,.86-1.67h0c1.3.16,1.86-.4,1.68-1.7h0l.84-.85h0l.84-.84h0l8.43-8.44h0l.84-.84h0l.84-.84h0c.41,0,.93.12,1.22-.08,2.11-1.44,4.21-2.9,6.24-4.46C206.82,88.37,208,87.63,207.74,86.12Zm80.32,47.74c.41-10.68-5.91-22.71-14.73-31.46a47.06,47.06,0,0,0-30.75-13.79c-14.64-1-27.5,3.51-37.92,13.75a49.28,49.28,0,0,0-.52,69.82A47.14,47.14,0,0,0,236,186.43c14.67.84,27.4-3.9,37.75-14.19C283.15,162.87,287.91,151.28,288.06,133.86Z"/><path class="cls-7" d="M43.15,231.71a2.85,2.85,0,0,0-1.13-3c-1.29-.91-1.4-2.21-1.46-3.69-.1-2.45-.55-4.89-.78-7.34s.42-4.7-.79-6.95c-.35-.66,0-1.66-.07-2.5-.6-7.82.56-15.58,1-23.34.26-4.23.49-8.72,2.32-12.78,0-5.81,2.33-11.16,3.54-16.71,1-4.58,3.24-8.88,4.83-13.34,2.54-7.11,6.16-13.72,9.73-20.3,3.31-6.1,7.47-11.75,11.4-17.5A127.11,127.11,0,0,1,90.19,83.4,152.15,152.15,0,0,1,102.5,72.88a188.61,188.61,0,0,1,16.21-11.16A94.08,94.08,0,0,1,132,54.64c4.39-1.77,8.66-3.94,13.08-5.72a15.4,15.4,0,0,0,4.39-3c2.19-2,4.2-4.14,6.29-6.22,1-1,2-1.71,3,0,0,.41.08.93-.13,1.21-3,4.12-6.1,8.2-9.16,12.28-.25-.9-.81-1.12-1.51-.53a15,15,0,0,0-4.39,5.91c-2.1,5.14-4.22,10.27-6.09,15.52-.75,2.09-3,4.06-5.11,5.17A105.41,105.41,0,0,0,115,90.84a199.11,199.11,0,0,0-18.54,17.63,100.86,100.86,0,0,0-11.59,15,159.24,159.24,0,0,0-14,27.69,170.89,170.89,0,0,0-6.27,19.72c-1,4-1.48,8.35-2.23,12.48s-.33,8.17-1.25,12.26-.58,8.43-.1,12.6.23,8.5,1.52,12.62c.32,1,0,2.24.08,3.36a5.13,5.13,0,0,0,5.22,5.24,27.07,27.07,0,0,0,3.37,0c1.87-.12,1.48,1.2,1.53,2.26-5.27.08-10.54.2-15.81.2C52.3,231.91,47.73,231.78,43.15,231.71Z"/><path class="cls-5" d="M474.43,82c6.74-.06,13.49-.09,20.23-.18,1.23,0,1.76.37,1.74,1.67-.08,8.15.29,16.33-.28,24.44a240.33,240.33,0,0,1-3.34,26.46,195.06,195.06,0,0,1-10.12,36.38c-2.7,6.84-5.42,13.7-8.68,20.28-3.4,6.85-7.28,13.49-11.27,20-10.75,17.56-24.16,33-39.33,46.81a210.29,210.29,0,0,1-32.91,24.44,220.48,220.48,0,0,1-31.68,15.86,219.11,219.11,0,0,1-33.71,10.46,207.9,207.9,0,0,1-21.37,3.55,216.15,216.15,0,0,1-32.66,1.45c-.06-.95.15-1.53,1.33-1.59a21.59,21.59,0,0,0,4.88-.48A121.55,121.55,0,0,0,291.89,307a102.64,102.64,0,0,0,14.65-7c2.37-1.46,4.5-3.62,7.52-3.91.62.26,1.4.91,1.83.73,4.57-1.95,9.52-2.25,14.29-3.1,7.65-1.38,15-3.76,22.38-5.94,6.68-2,12.94-4.91,19.31-7.62,8.58-3.65,16.55-8.5,24.35-13.55a129.26,129.26,0,0,0,10.95-8.09c5.39-4.35,10.88-8.56,15.76-13.48,3.43-3.46,6.69-7.1,9.93-10.75,3.39-3.83,7-7.54,9.91-11.73A224.61,224.61,0,0,0,457,200.06a201.11,201.11,0,0,0,12-27.27,174,174,0,0,0,7.22-27.92c.41-2.32.19-4.71.9-6.9a29,29,0,0,0,1.55-8.85c0-3,.66-6,.75-9.05.14-4.77.15-9.56,0-14.33s-.34-9.43-.89-14.1c-.34-3-.31-6.34-3.65-8.12C474.59,83.34,474.58,82.54,474.43,82Z"/><path class="cls-7" d="M347,260.65c2.33.31,3.37-1.06,4.42-2.94a96.39,96.39,0,0,0,7.32-17.24,9.39,9.39,0,0,1,5.69-6.36c3.7-1.63,6.94-4.33,10.31-6.66,3-2.11,6-4.34,9-6.53a7.93,7.93,0,0,0,.65-.53c3.58-3.3,7.34-6.43,10.72-9.93a139,139,0,0,0,20-26.15A143.93,143.93,0,0,0,424,166a157.64,157.64,0,0,0,5.74-16.07c.63-2.2,1.16-4.44,1.66-6.68.81-3.7,1.56-7.42,2.34-11.13a6.34,6.34,0,0,0,.19-1.21c-.05-5.7,1.38-11.3.9-17-.25-2.93.06-5.9-.07-8.84-.19-4.28-.5-8.55-.85-12.82-.13-1.48-.57-2.93-.82-4.4-.36-2.09-2.08-2.65-3.71-3.18a6.77,6.77,0,0,0-2.87-.22c-2.11.28-1.86-1.11-1.86-2.37h23.63c-.15,1.34.06,2.64,1.48,3.11s1.6,1.5,2,2.77a37.19,37.19,0,0,1,1.42,11.35c0,10,1,20.1-.63,30.11-.59,3.52-.09,7.29-1,10.68-1.36,4.84-2,9.86-3.45,14.61-2.36,7.76-4.82,15.55-8.37,22.88-4.23,8.73-8.6,17.42-14.33,25.3-4.79,6.59-9.54,13.23-15.42,18.92-4.31,4.17-8.18,8.8-13.11,12.33-3.69,2.64-7.12,5.62-10.81,8.25-4.24,3-8.49,6-13,8.61-4.26,2.42-8.82,4.33-13.31,6.32-5.49,2.44-10.55,5.31-13.84,10.66a19.47,19.47,0,0,1-4.13,4.18c-.73.61-1.82.87-2.34-.5,1.76-2.74,3.49-5.51,5.3-8.22A31.36,31.36,0,0,1,347,260.65Z"/><path class="cls-8" d="M347,260.65a31.36,31.36,0,0,0-2.28,2.75c-1.81,2.71-3.54,5.48-5.3,8.22-1,1.11-1.94,2.21-2.9,3.33-2.42,2.82-4.82,5.65-7.23,8.47-4.67,3.68-8.88,7.94-14,11.08-.53.33-.82,1-1.22,1.58-3,.29-5.15,2.45-7.52,3.91a102.64,102.64,0,0,1-14.65,7,121.55,121.55,0,0,1-14.63,4.57,21.59,21.59,0,0,1-4.88.48c-1.18.06-1.39.64-1.33,1.59-9.25,0-18.5.07-27.75.14-1.24,0-1.74-.41-1.73-1.69,0-8.13,0-16.26,0-24.39,0-.33.37-.66.56-1,.34.35.93.66,1,1a27.09,27.09,0,0,1,0,3.25v7.59c0,2.39,0,4.78,0,7.16,0,1.09.41,1.36,1.57,1a41.45,41.45,0,0,1,5.93-1.37,77.23,77.23,0,0,0,14.88-4,83.53,83.53,0,0,0,27.82-17.93,92.27,92.27,0,0,0,9.49-11c4.75-6.14,7.95-13,10.76-20.1a4.13,4.13,0,0,0-1.29-5.26c2.59-2,5.16-4.13,7.77-6.16a104,104,0,0,0,26.71-31.09,96.81,96.81,0,0,0,8.84-20.46c1.84-6.21,3.63-12.43,4.09-18.94,0-.33.44-.64.67-1l.16,1.82c.24,2.86.65,5.72.69,8.59.14,8.46-1.31,16.88-.79,25.37.14,2.23,0,4.47,0,6.71a68.57,68.57,0,0,1-3.38,23.4,119.26,119.26,0,0,1-5.8,15.81c-1.24,2.71-2.8,5.22-4,7.93A8.87,8.87,0,0,0,347,260.65Z"/><path class="cls-8" d="M149.49,53.18c3.06-4.08,6.14-8.16,9.16-12.28.21-.28.09-.8.13-1.21A46.41,46.41,0,0,1,162,36.08c3.39-3.11,6.15-6.86,10.09-9.42a46.5,46.5,0,0,0,5.69-4.82c.34-.31.29-1,.41-1.55.81-.13,1.86,0,2.39-.42,5-4.32,11-7.15,16.88-10a109.47,109.47,0,0,1,15.17-5.73,41.33,41.33,0,0,1,11.94-2.43c1,0,.81-.93.86-1.6,9.1,0,18.2-.07,27.3-.07,2,0,2.08.07,2.11,2.11q.06,4.62,0,9.23a4,4,0,0,1-.61,1.37c-.31-.52-.84-1-.89-1.57-.35-3.37-.75-3.93-4.1-3.47A71.09,71.09,0,0,0,238.9,9.83a84.45,84.45,0,0,0-19.8,8.51,87.21,87.21,0,0,0-13.65,9.81c-7,6.33-13,13.5-17.26,22-.67,1.35-1.74,2.49-2.36,3.85-1.23,2.71-2.14,5.57-3.45,8.25-.94,1.92-1.11,3.62.1,5.41-1.7,1.42-3.32,2.94-5.11,4.24-11.24,8.19-19.75,18.77-27,30.53-6.15,10-9.81,21-12.59,32.32-.65,2.63-.74,5.4-1.73,8l-.22-1q.06-22.41.11-44.82a12.81,12.81,0,0,1,.07-3.34,40.06,40.06,0,0,0,1.63-11.71c1.4-3.79,2.84-7.56,4.19-11.36a73.58,73.58,0,0,1,6.53-14.27A14.33,14.33,0,0,0,149.49,53.18Z"/><path class="cls-9" d="M314.06,296.08c.4-.54.69-1.25,1.22-1.58,5.1-3.14,9.31-7.4,14-11.08.25.28.66.83.74.78,1.54-.81,3.3-.95,4.73-2.28a15.46,15.46,0,0,1,7.09-3.93A94.92,94.92,0,0,0,353,274.25a181.62,181.62,0,0,0,32.64-16,176.93,176.93,0,0,0,31.31-25,146.33,146.33,0,0,0,10.91-12.53c3.29-4.05,6.46-8.21,9.44-12.48a144.1,144.1,0,0,0,14.28-25.74c3-7.09,5.63-14.35,8-21.74,3.19-10,4.77-20.34,6.36-30.65.84-5.45.56-11.07,1-16.61.51-6.71-.87-13.31-1-20,0-2-.87-4-.81-6.09A3.29,3.29,0,0,0,464,85.35,3.54,3.54,0,0,1,462.61,82h11.82c.15.51.16,1.31.5,1.49,3.34,1.78,3.31,5.14,3.65,8.12.55,4.67.75,9.39.89,14.1s.13,9.56,0,14.33c-.09,3-.72,6-.75,9.05a29,29,0,0,1-1.55,8.85c-.71,2.19-.49,4.58-.9,6.9A174,174,0,0,1,469,172.79a201.11,201.11,0,0,1-12,27.27,224.61,224.61,0,0,1-14.27,22.49c-2.91,4.19-6.52,7.9-9.91,11.73-3.24,3.65-6.5,7.29-9.93,10.75-4.88,4.92-10.37,9.13-15.76,13.48a129.26,129.26,0,0,1-10.95,8.09c-7.8,5-15.77,9.9-24.35,13.55-6.37,2.71-12.63,5.66-19.31,7.62-7.41,2.18-14.73,4.56-22.38,5.94-4.77.85-9.72,1.15-14.29,3.1C315.46,297,314.68,296.34,314.06,296.08Z"/><path class="cls-10" d="M462.61,82A3.54,3.54,0,0,0,464,85.35a3.29,3.29,0,0,1,1.13,2.07c-.06,2.1.78,4.1.81,6.09.1,6.68,1.48,13.28,1,20-.41,5.54-.13,11.16-1,16.61-1.59,10.31-3.17,20.61-6.36,30.65-2.34,7.39-4.93,14.65-8,21.74a144.1,144.1,0,0,1-14.28,25.74c-3,4.27-6.15,8.43-9.44,12.48a146.33,146.33,0,0,1-10.91,12.53,176.93,176.93,0,0,1-31.31,25,181.62,181.62,0,0,1-32.64,16A94.92,94.92,0,0,1,341.82,278a15.46,15.46,0,0,0-7.09,3.93c-1.43,1.33-3.19,1.47-4.73,2.28-.08.05-.49-.5-.74-.78,2.41-2.82,4.81-5.65,7.23-8.47,1-1.12,1.93-2.22,2.9-3.33.52,1.37,1.61,1.11,2.34.5a19.47,19.47,0,0,0,4.13-4.18c3.29-5.35,8.35-8.22,13.84-10.66,4.49-2,9.05-3.9,13.31-6.32,4.51-2.57,8.76-5.6,13-8.61,3.69-2.63,7.12-5.61,10.81-8.25,4.93-3.53,8.8-8.16,13.11-12.33,5.88-5.69,10.63-12.33,15.42-18.92,5.73-7.88,10.1-16.57,14.33-25.3,3.55-7.33,6-15.12,8.37-22.88,1.44-4.75,2.09-9.77,3.45-14.61.95-3.39.45-7.16,1-10.68,1.66-10,.65-20.08.63-30.11a37.19,37.19,0,0,0-1.42-11.35c-.41-1.27-.56-2.29-2-2.77s-1.63-1.77-1.48-3.11Z"/><path class="cls-11" d="M172.28,135c.56,1.94,1.56,3.87,1.61,5.83.25,9.67,3.54,18.43,8,26.77a37.14,37.14,0,0,0,6.62,9.4c1.08,1,1.72,2.52,2.81,3.54,9,8.45,19.11,14.78,31.32,17.86,8,2,16.09,2.07,24,1.31a56.44,56.44,0,0,0,24.44-8.46A84.55,84.55,0,0,0,282.31,183,54.9,54.9,0,0,0,294.63,167,66.46,66.46,0,0,0,299.15,157c1.44-4.5,3-9,3.14-13.85,0-2.32.83-4.63.76-6.93-.37-11.17-2.71-21.89-8.14-31.76A63.11,63.11,0,0,0,278,84.8c-1.88-1.45-4.41-2.31-5.5-4.91-.32-.78-2.08-1.2-3.23-1.35-3.8-.49-7.42-2.06-11.33-1.76-1.27.1-1.26-.78-1.27-1.66a64.89,64.89,0,0,1,20.61,4.27c2.16.78,4.27,1.66,6.4,2.5.21.61.23,1.51.65,1.76,1.89,1.13,3.67,2.66,6.11,2.42h0c1.29,2.36,3.49,3.45,5.92,4.2h0c.42,1.78,2.25,1.69,3.37,2.54h0c.15,1.09,1,.8,1.68.85h0c-.07,1.76.77,2.61,2.54,2.52h0l.84.84h0l.85.84h0l.84.84h0a23.66,23.66,0,0,0,.62,3.61c1.59,4.75,3.49,9.37,4.55,14.32a48.56,48.56,0,0,1,1.58,10.5c0,3.51-.18,7,0,10.54.47,7.41-1.42,14.39-3.54,21.35a70.38,70.38,0,0,1-11.24,21.23c-4.18,5.64-8.89,11-15.1,14.7-3.17,1.9-5.87,4.67-9.17,6.23-5,2.38-10,5-15.45,6.32-3.81.92-7.67,1.72-11.52,2.51a13.23,13.23,0,0,1-2.52,0c-3.52,0-7-.1-10.55,0-7.37.25-14.36-1.46-21.31-3.72a73.55,73.55,0,0,1-13.77-6.21,57.66,57.66,0,0,1-8.08-5.61,101.91,101.91,0,0,1-10.14-9.33,128.49,128.49,0,0,1-9.73-12.3c-.95-1.33-1-3.32-1.36-5-.19-1.1.09-2.27-.14-3.35-.07-.38-1-.58-1.57-.86v-2.53c1.18-2.21,1.18-7.91,0-10.12v-1.68c.4,0,1.1,0,1.15-.14.63-1.95,1.25-3.93-.31-5.76l0-1.69c.53-.23,1.37-.33,1.54-.72.26-.62.42-1.57-.72-1.81l0-1.69,1.57-.65-.75-1c0-.7-.25-1.53.81-1.72Z"/><path class="cls-12" d="M999.39,287.69c0,7.3,0,14.61,0,21.91,0,2.4-.06,2.46-2.16,2.45-2.79,0-5.58-.12-8.37-.19-.14-2.76-.39-5.52-.41-8.28-.05-7.59,0-15.17,0-22.75a5.44,5.44,0,0,0-.41-1.42,5.35,5.35,0,0,0-1,.78c-2.66,3.36-5.29,6.74-7.93,10.11-1.46,1.85-2.87,3.74-4.41,5.52-1.39,1.61-2.29,1.65-3.79,0s-2.94-3.66-4.39-5.52c-2.63-3.38-5.25-6.76-7.9-10.13a5.12,5.12,0,0,0-1-.75,6.07,6.07,0,0,0-.37,1.45c0,9,0,18,0,27,0,1,0,2,0,2.95,0,.82-.34,1.29-1.23,1.29-2.52,0-5.05,0-7.58,0a2,2,0,0,1-2.13-2.06c0-.42,0-.85,0-1.27q0-21.48,0-43c0-2.51.05-2.53,2.48-2.56,2.11,0,4.31.37,6.31-.09,3.46-.8,5.09,1.42,6.72,3.53,3,3.82,5.67,7.81,8.53,11.69a17.81,17.81,0,0,0,2,2.13c.6.57,1.14.57,1.69-.18,3.69-5,7.42-10,11.13-14.92,1-1.39,2.15-2.39,4.18-2.22a81.53,81.53,0,0,0,8.42,0c1.33,0,1.64.57,1.64,1.77,0,7.58,0,15.16,0,22.74Z"/><path class="cls-12" d="M625.51,288.09c0,7.3,0,14.6,0,21.9,0,2-.07,2.07-2.13,2.06-2.79,0-5.58-.11-8.38-.17-.14-2.75-.4-5.51-.42-8.27-.06-7.58,0-15.16,0-22.74a6.13,6.13,0,0,0-.38-1.47,5.13,5.13,0,0,0-1,.77c-2.38,3.05-4.71,6.13-7.1,9.17-1.8,2.29-3.59,4.58-5.53,6.75-1.11,1.24-2.1,1.25-3.19.05-1.67-1.85-3.2-3.83-4.69-5.82-2.64-3.53-5.2-7.12-7.81-10.67-.14-.18-.54-.37-.69-.3-.31.15-.74.45-.76.72-.09,1.12-.06,2.25-.06,3.37q0,13.05,0,26.11c0,2.47-.06,2.48-2.54,2.51q-3.15,0-6.32,0a1.94,1.94,0,0,1-2.08-2.09c0-.42,0-.85,0-1.27q0-21.48,0-43c0-2.47,0-2.49,2.52-2.52,2.1,0,4.3.38,6.3-.09,3.49-.83,5.08,1.46,6.71,3.56,3,3.81,5.68,7.79,8.53,11.69a13,13,0,0,0,1.44,1.53c1.37,1.34,1.86,1.31,2.94-.16q5.35-7.35,10.71-14.69a4.12,4.12,0,0,1,3.91-1.9c2.65.2,5.33,0,8,.06,2,0,2,.07,2.06,2.14C625.52,272.93,625.51,280.51,625.51,288.09Z"/><path class="cls-13" d="M1052.55,287.62c0-7.45,0-14.9,0-22.35,0-2,.07-2,2.13-2.06a26.72,26.72,0,0,0,3.8,0c2.43-.42,4,.75,5.34,2.5,5.1,6.71,10.16,13.45,15.27,20.15.59.78,1.38,1.41,2,2.16,1.42,1.72,2.8,3.46,4.19,5.2.06-2.37.23-4.74.17-7.1s.44-4.73-.7-7a3.46,3.46,0,0,1,.13-2c.81-3.73.8-5.53-.14-10.2-.52-2.53.34-3.59,3-3.63,2.39,0,4.78,0,7.18,0,1.06,0,1.52.42,1.47,1.49,0,.84,0,1.69,0,2.53v40.48c0,.7,0,1.41,0,2.11a2.05,2.05,0,0,1-2.37,2.26,31.11,31.11,0,0,0-4.21,0,4.12,4.12,0,0,1-4-1.74c-2.61-3.24-5.27-6.45-7.84-9.73-3.66-4.67-7.26-9.4-10.89-14.1-.34-.44-.64-.91-1-1.33-.72-.82-1.46-1.63-2.19-2.44a24,24,0,0,0-.4,3.15c0,7.58,0,15.17,0,22.76,0,3.06-.31,3.4-3.33,3.37-2.48,0-5-.27-7.44-.42-.06-2.38-.17-4.75-.19-7.13C1052.54,298.86,1052.55,293.24,1052.55,287.62Z"/><path class="cls-14" d="M823.85,287.11c0-6.74,0-13.48,0-20.22,0-4.34-.48-3.62,3.89-3.69a5.3,5.3,0,0,0,1.26,0c3.31-.81,5.29,1.16,7,3.43,6.65,8.65,13.25,17.34,19.89,26a4.92,4.92,0,0,0,1.18.84,6.57,6.57,0,0,0,.17-1.44,23,23,0,0,1-.45-2.4c-.05-8.15,0-16.29-.09-24.44,0-1.34.22-2.1,1.83-2,2.39.13,4.78,0,7.17,0,1.92,0,2,.07,2,2.22q0,16.21,0,32.44c0,3.79,0,7.58,0,11.37,0,2-.07,2-2.16,2.06-8,.28-8.06.14-12.95-6.51-4.34-5.9-8.91-11.63-13.37-17.43-.09-.11-.21-.19-.29-.3l-3.89-5c-.08,2.22-.23,4.44-.23,6.65,0,6.89,0,13.77,0,20.65,0,1.44-.39,2-1.9,1.94-2.24-.11-4.49,0-6.74,0s-2.34-.06-2.35-2.27C823.83,301.72,823.85,294.41,823.85,287.11Z"/><path class="cls-14" d="M1174.42,262.32c5.73-.69,11.44,1.43,16.69,5.12a18.29,18.29,0,0,1,6.51,8.44c1.2,3,2.39,6.28,2.46,9.46.17,7.13-1.21,14-6.4,19.5s-11.81,7.81-19.28,8.12a27,27,0,0,1-14.7-3.44c-7.21-4.11-11.54-10.2-11.76-18.76-.06-2.38-.11-4.78,0-7.16.33-6.22,2.71-11.64,7.55-15.53,4.57-3.68,9.86-6.07,16-5.75C1172.21,262.36,1172.91,262.32,1174.42,262.32Zm-2.18,40.55c10.7-.21,17.12-6,16.89-15.59-.25-10.19-6.17-15.4-15.54-15.38-9.19,0-14.64,6-15.32,15.16a13.83,13.83,0,0,0,4.13,11.27A15.88,15.88,0,0,0,1172.24,302.87Z"/><path class="cls-13" d="M875.37,287.12V266.07c0-3.07-.21-2.88,3-2.87,6.46,0,12.92,0,19.38,0,5,0,9.3,2,13.35,4.8a17,17,0,0,1,7.32,11.45c.42,2.41,1.59,4.82,1.46,7.18-.44,7.87-2.23,15.42-9,20.48a23.63,23.63,0,0,1-10.59,4.24c-7.11,1.16-14.21.46-21.31.67-3.54.1-3.67-.13-3.68-3.86Q875.36,297.64,875.37,287.12Zm11-.3c0,4.21,0,8.42,0,12.63,0,1.21.34,1.78,1.65,1.75,3.36-.06,6.74.1,10.1-.06a9.83,9.83,0,0,0,8.49-5.1,18.59,18.59,0,0,0,1.78-13c-1-5.33-4.85-9.33-10.27-9.66-3.36-.21-6.74,0-10.11-.08-1.31,0-1.66.55-1.64,1.76C886.36,279,886.32,282.89,886.32,286.82Z"/><path class="cls-14" d="M682.91,287c0-7.3,0-14.6,0-21.9,0-1.4.34-2,1.88-2,7.86.07,15.73-.07,23.6.08,6.88.12,13.5,5.86,15.06,12.54a17.68,17.68,0,0,1-1.52,12.26c-1.54,3.12-4.51,4.35-7.16,6-1.77,1.13-1.8,1-.47,2.58,3.34,3.9,6.68,7.81,10,11.74a9.81,9.81,0,0,1,1.26,2.12c.08.15-.27.72-.43.72-3.51.05-7,.17-10.53,0a4.64,4.64,0,0,1-2.61-1.81c-2.4-2.85-5.15-5.57-6.87-8.82-2.1-4-5-5-9.05-4.55-2.07.24-2.13.1-2.15,2.08q-.06,5.25,0,10.52c0,3-.06,2.66-2.81,2.67-2.11,0-4.22-.09-6.32,0-1.56.09-1.87-.58-1.86-2C682.94,301.91,682.91,294.47,682.91,287Zm18.57-14.54c-2,0-3.92.05-5.87,0-1.22,0-1.78.34-1.76,1.64,0,3.64.09,7.28,0,10.91-.05,1.64.75,1.8,2,1.78,3.36-.05,6.72,0,10.08,0a8,8,0,0,0,7.11-5.43c.8-2.87-.47-5.09-2.52-7a6.42,6.42,0,0,0-4.88-1.87C704.29,272.55,702.88,272.49,701.48,272.49Z"/><path class="cls-12" d="M1007,287.23c0-7.3,0-14.6,0-21.9,0-2.05.06-2.11,2.07-2.12q16,0,32,0c2.07,0,2.16.06,2.12,2.05,0,2.62-.26,5.23-.41,7.85-2.37.06-4.73.17-7.1.19q-8,0-16,0c-1.19,0-1.84.29-1.77,1.63s0,2.53,0,3.79c0,3.73.12,3.84,3.71,3.85,5.62,0,11.24,0,16.86,0,4.49,0,3.81-.41,3.81,3.76,0,1.77-.25,3.55-.39,5.32-1.67.08-3.34.21-5,.22-5.62,0-11.24,0-16.86,0-2,0-2.14.06-2.11,2.07,0,2.34.26,4.67.4,7,2.23.07,4.45.19,6.68.2,5.76,0,11.52,0,17.28,0,1.2,0,1.83.29,1.79,1.61-.1,2.94-.13,5.87-.19,8.81-2.75.15-5.5.42-8.26.44-8.42.06-16.85,0-25.28,0-3,0-3.37-.33-3.38-3.33C1007,301.55,1007,294.39,1007,287.23Z"/><path class="cls-12" d="M527.62,287.09c0-7.3,0-14.61,0-21.92,0-1.35.23-2,1.83-2q16.24.09,32.48,0c1.4,0,2.07.31,2,1.87a60.56,60.56,0,0,0,0,6.32c.06,1.43-.36,2-1.88,2-6.33-.08-12.66,0-19,0-4.46,0-4.46,0-4.46,4.38,0,4.88,0,4.88,4.82,4.88,5.62,0,11.25,0,16.87,0,1.37,0,2.11.26,2,1.85-.18,2.35-.18,4.72-.26,7.09-2.35.13-4.69.35-7,.37-4.78.06-9.56,0-14.34,0-1.27,0-2.18.08-2.06,1.76.16,2.36.15,4.74.21,7.11,2.34.15,4.67.4,7,.42,5.62.07,11.25,0,16.87,0,2,0,2,.07,2.09,2.11s0,3.94,0,5.9c-.06,2.42-.46,2.83-3,2.84-9.56,0-19.12,0-28.69,0-.84,0-1.68,0-2.53,0-2.41-.1-2.82-.49-2.83-3C527.6,301.71,527.62,294.4,527.62,287.09Z"/><path class="cls-15" d="M182.48,67.7c-1.21-1.79-1-3.49-.1-5.41,1.31-2.68,2.22-5.54,3.45-8.25.62-1.36,1.69-2.5,2.36-3.85,4.22-8.54,10.27-15.71,17.26-22a87.21,87.21,0,0,1,13.65-9.81,84.45,84.45,0,0,1,19.8-8.51,71.09,71.09,0,0,1,10.34-2.15c3.35-.46,3.75.1,4.1,3.47,0,.55.58,1,.89,1.57l0,11.77a6.47,6.47,0,0,1-2.17-.92,3.08,3.08,0,0,0-3.13-.69c-2.61.64-5.15,1.62-7.77,2.25-4.95,1.18-9.24,3.79-13.74,6A40.82,40.82,0,0,0,218,37.61c-4.2,3.84-8.46,7.71-11.72,12.47a24.57,24.57,0,0,0-1.7,3.54c1.33,0,2.65,0,4,0,.38,0,.79-.44,1.11-.36s.47.59.7.9L191,62.49c-1.18.06-2.81-.65-2.64,1.61L186.7,65c-1.19,0-2.82-.59-2.6,1.67Z"/><path class="cls-15" d="M312.35,247.07a4.13,4.13,0,0,1,1.29,5.26c-2.81,7.13-6,14-10.76,20.1a92.27,92.27,0,0,1-9.49,11,83.53,83.53,0,0,1-27.82,17.93,77.23,77.23,0,0,1-14.88,4,41.45,41.45,0,0,0-5.93,1.37c-1.16.38-1.56.11-1.57-1,0-2.38,0-4.77,0-7.16V291a45.22,45.22,0,0,0,5.24-.7c9-1.21,16.73-5.32,24.35-9.84,5.95-3.53,10.31-8.8,15.13-13.55a22.7,22.7,0,0,0,3.35-4.63c.41-.69,1.48-1.43.42-2.54-.88-.93-1.54-.75-2.5-.13a7,7,0,0,1-2.65.91c-.33.06-.76-.49-1.15-.76,2.89-1.12,5.79-2.2,8.66-3.39,3.28-1.36,6.52-2.81,9.79-4.22,1.18,0,2.82.69,2.68-1.58Z"/><path class="cls-14" d="M733.59,286.8c0-7.16,0-14.33,0-21.5,0-2,.07-2.08,2.11-2.09q16,0,32.07,0c2,0,2,.07,2,2.15,0,2.51-.13,5-.2,7.53-2.48.14-5,.37-7.45.4-5.06.06-10.12,0-15.18,0-2.61,0-2.5.1-2.46,2.61,0,1.26,0,2.53,0,3.79.08,2.46.44,2.84,3,2.85,5.49.05,11,0,16.46,0h3c.89,0,1.22.5,1.2,1.32,0,.14,0,.28,0,.42l-.18,7.11c-2.34.15-4.68.4-7,.43-4.92.07-9.84.05-14.76,0-1.28,0-1.75.46-1.69,1.71.1,2.38.12,4.75.18,7.13,2.33.16,4.65.44,7,.46,5.62.07,11.25,0,16.87,0,2.05,0,2.12.06,2.12,2.08,0,2.51-.09,5-.15,7.54-2.47.16-4.95.44-7.42.45-9,.06-18,0-27,0-2.46,0-2.5-.06-2.51-2.56C733.58,301.42,733.59,294.11,733.59,286.8Z"/><path class="cls-14" d="M779.1,287.4c0-7.31,0-14.62,0-21.93,0-2.19.06-2.25,1.93-2.26,10.55,0,21.1,0,31.65,0,1.48,0,2,.45,1.92,1.92-.1,2.1-.1,4.22,0,6.32.07,1.47-.43,1.94-1.92,1.92-6.47-.07-12.94,0-19.41,0-3.5,0-3.94.44-4,4.12-.08,4.92-.35,5.24,5,5.16,5.76-.09,11.53,0,17.3,0,2.07,0,2.15.07,2.12,2.08,0,2.34-.26,4.67-.41,7-2.23.07-4.46.19-6.7.2-4.78,0-9.56,0-14.34,0-2.51,0-2.89.42-2.93,2.94,0,1.95.09,3.9.14,5.86,1.91.16,3.82.45,5.74.47,5.9.07,11.81,0,17.72,0,3,0,3.27.33,3.32,3.39,0,1.83.08,3.66,0,5.48-.09,1.45-1.37,2.51-2.57,1.89-1.92-1-3.84-.62-5.76-.64-7.45-.06-14.91,0-22.36,0a19.65,19.65,0,0,0-3.35.12c-3,.54-3,.59-3-2.51C779.09,301.74,779.1,294.57,779.1,287.4Z"/><path class="cls-14" d="M633.15,287.18c0-7.3,0-14.59,0-21.88,0-2,.07-2.08,2.1-2.09,7.72,0,15.45-.26,23.15.07,7.2.31,12.76,3.87,15.38,10.69,3.71,9.67-.64,20.63-11.75,23.69a12,12,0,0,1-2.94.12c-3.93,0-7.85,0-11.78,0-2.27,0-2.51-.19-2.46,2.61s0,5.89,0,8.84c0,2-.07,2-2.15,2.06s-4.21,0-6.31,0c-3.75,0-3.24.06-3.24-3.09Q633.15,297.7,633.15,287.18Zm11-6.26c0,1.68-.05,3.36,0,5,.08,1.92.58,2.44,2.51,2.49a86.09,86.09,0,0,0,9.23-.06,15.28,15.28,0,0,0,5-1.6c2-.91,3.83-5,3.39-7a8.58,8.58,0,0,0-7.61-6.42c-3.35-.13-6.71-.07-10.07,0-1.91,0-2.38.56-2.46,2.54C644.05,277.56,644.11,279.24,644.1,280.92Z"/><path class="cls-13" d="M1223.5,313a23,23,0,0,1-16.33-5.06,20.08,20.08,0,0,1-2.56-2.11c-1.4-1.5-1.37-2.81.05-4.36,1.24-1.34,2.58-2.58,3.85-3.9.75-.78,1.36-.67,2.12,0a18.51,18.51,0,0,0,7.72,4.6,21.56,21.56,0,0,0,11.84-.13c2.35-.67,3.29-2.49,3.77-4.5.42-1.78-1.52-4.08-3.8-4.84a24.61,24.61,0,0,0-8.44-1.7c-4.28.11-8.15-1.53-11.68-3.6a9.3,9.3,0,0,1-4.66-8.36c0-2.6-.48-5.19.6-7.84,2.06-5,6.13-7.45,10.89-8.76a28.26,28.26,0,0,1,17.52.66c2.61.94,4.3,2.95,6.57,4.22a1.58,1.58,0,0,1,.26,2.56,67.11,67.11,0,0,1-4.85,4.69,1.91,1.91,0,0,1-1.76-.24c-2.81-2.25-6.28-2.71-9.57-3.38-3.1-.63-6,.7-8.37,2.69-2.1,1.78-1.33,5.2,1.51,6.4a21.7,21.7,0,0,0,6.72,1.64,34.77,34.77,0,0,1,10.39,2.35c5.23,2.06,8.65,5.26,8.91,11.14,1.67,2.77.08,5.31-.64,7.87a10.47,10.47,0,0,1-4.74,6.18c-3.67,2.16-7.5,4.21-12,3.76C1225.94,312.9,1225.09,313,1223.5,313Z"/><path class="cls-16" d="M285.36,259.78c.39.27.82.82,1.15.76a7,7,0,0,0,2.65-.91c1-.62,1.62-.8,2.5.13,1.06,1.11,0,1.85-.42,2.54a22.7,22.7,0,0,1-3.35,4.63c-4.82,4.75-9.18,10-15.13,13.55-7.62,4.52-15.35,8.63-24.35,9.84a45.22,45.22,0,0,1-5.24.7,27.09,27.09,0,0,0,0-3.25c0-.38-.64-.69-1-1v-16.8c0-.7,0-1.41,0-2.1-.1-1.09-.73-2.85-.34-3.1a6.86,6.86,0,0,1,3.52-.64c3.78-.06,7.56,0,11.35,0a100,100,0,0,0,23-3.08C281.58,260.54,283.47,260.18,285.36,259.78Z"/><path class="cls-16" d="M210.32,54.16c-.23-.31-.41-.82-.7-.9s-.73.35-1.11.36c-1.33,0-2.65,0-4,0a24.57,24.57,0,0,1,1.7-3.54c3.26-4.76,7.52-8.63,11.72-12.47a40.82,40.82,0,0,1,9.44-6.47c4.5-2.22,8.79-4.83,13.74-6,2.62-.63,5.16-1.61,7.77-2.25a3.08,3.08,0,0,1,3.13.69,6.47,6.47,0,0,0,2.17.92c0,7.55,0,15.09.1,22.63,0,3-.33,2.63-2.89,2.62-3.77,0-7.55,0-11.32,0a87.34,87.34,0,0,0-20.56,2.46,16,16,0,0,1-2.51.17l-1.13-.79L215.3,53l-1.65.26-1.16-.8-.55,1.45Z"/><path class="cls-12" d="M1124.35,263.2c6,0,12.09,0,18.13,0,2,0,2.06.07,2.06,2.12,0,2.51-.12,5-.19,7.53-2.47.14-4.95.3-7.43.42s-4.73.16-7.1.23c-.14,2.48-.38,5-.39,7.44,0,9.41,0,18.82,0,28.22,0,3.44-.2,2.87-3.05,2.88-1.69,0-3.37,0-5.06,0-2.41-.07-2.83-.47-2.84-3,0-9.4,0-18.81,0-28.22,0-2.36-.13-4.73-.2-7.09-2.48-.14-5-.31-7.44-.42-2.09-.09-4.18-.12-6.27-.18-.16-2.19-.31-4.39-.45-6.58a10.59,10.59,0,0,1,0-1.26c.07-2,.07-2,2.14-2.06C1112.27,263.18,1118.31,263.2,1124.35,263.2Z"/><path class="cls-14" d="M926,287.21c0-6.87,0-13.74,0-20.61,0-3.07.31-3.34,3.31-3.39a45.15,45.15,0,0,0,5.46-.06c2-.27,2.28,1.17,2.83,2.31a5.07,5.07,0,0,1,.1,2.07q0,20.63,0,41.23c0,2.47,0,2.49-2.53,2.53s-4.77,0-7.15,0c-2,0-2-.08-2-2.19C926,301.8,926,294.5,926,287.21Z"/><path class="cls-17" d="M357.14,235.35a68.57,68.57,0,0,0,3.38-23.4c-.06-2.24.11-4.48,0-6.71-.52-8.49.93-16.91.79-25.37,0-2.87-.45-5.73-.69-8.59,1-1.93,1-3,.06-5.09q.12-8.43.23-16.84c.88.09,2.12-.47,2.13,1.18,0,1,0,2,0,2.94,0,20.61.08,41.22,0,61.83,0,6-1.37,11.91-2.59,17.77C360.1,234.44,359.21,236,357.14,235.35Z"/><path class="cls-17" d="M137.69,81.84a40.06,40.06,0,0,1-1.63,11.71,12.81,12.81,0,0,0-.07,3.34q-.06,22.41-.11,44.82c-1,2.43-1,3.74-.13,6.78l-.3,9.25c-1,0-2.07.26-2-1.32,0-.84,0-1.69,0-2.53q0-27.78,0-55.55a52.35,52.35,0,0,1,1.46-10.1c.21-1.08,0-2.23.24-3.31C135.45,83.51,135.52,81.78,137.69,81.84Z"/><path class="cls-3" d="M496.32,52.35H366c-1.26,0-2.53,0-3.79,0-.23,0-.45-.27-.67-.41.23-.14.46-.38.7-.39,1.26,0,2.53,0,3.79,0H496.35Z"/><path class="cls-11" d="M242.33,75.12c0,.87,0,1.69-1.26,1.68-4.4,0-8.59,1.09-12.76,2.38-.88.27-2.22.82-2.86-.68,2.69-1.72,5.9-1.65,8.85-2.45C236.87,75.35,239.65,75.4,242.33,75.12Z"/><path class="cls-3" d="M172.28,135l-.86-.87c-.22-3.12,1.35-5.77,2.28-8.58a47.86,47.86,0,0,1,2.16-5.25c.16-.32,1-.34,1.46-.51-.72,2-1.39,4-2.17,6C174,128.8,172.52,131.71,172.28,135Z"/><path class="cls-3" d="M196.72,95.32l-8.43,8.44c.05-.69-.16-1.62.21-2,2-2.16,4.05-4.23,6.2-6.21C195.1,95.17,196,95.37,196.72,95.32Z"/><path class="cls-3" d="M207.74,86.12c.21,1.51-.92,2.25-1.86,3-2,1.56-4.13,3-6.24,4.46-.29.2-.81.06-1.22.08-.11-1.27.62-1.9,1.64-2.52C202.67,89.53,205.19,87.8,207.74,86.12Z"/><path class="cls-3" d="M168.07,151c1.18,2.21,1.18,7.91,0,10.12-.28-.25-.82-.5-.81-.76C167.28,157.24,166.86,154.05,168.07,151Z"/><path class="cls-11" d="M254.15,75.11c-.13.22-.25.64-.38.64-2.84,0-5.69,0-8.53,0-.13,0-.25-.41-.38-.64a4.07,4.07,0,0,0,1.61-.07,6.19,6.19,0,0,1,6.07,0C253,75.27,253.61,75.1,254.15,75.11Z"/><path class="cls-3" d="M290.44,86.07c-2.44.24-4.22-1.29-6.11-2.42-.42-.25-.44-1.15-.65-1.76,1.7.83,3.44,1.6,5.09,2.53A8.68,8.68,0,0,1,290.44,86.07Z"/><path class="cls-3" d="M168.91,143.43c1.56,1.83.94,3.81.31,5.76-.05.15-.75.1-1.15.14,0-1.6,0-3.2,0-4.79C168.13,144.16,168.63,143.8,168.91,143.43Z"/><path class="cls-3" d="M296.36,90.27c-2.43-.75-4.63-1.84-5.92-4.2,2.5.17,4.11,1.9,5.85,3.38C296.43,89.58,296.34,90,296.36,90.27Z"/><path class="cls-3" d="M180.7,113.88c-.12,2.55-1.94,4.12-3.38,5.91-.3-2.31,1.28-3.92,2.23-5.75C179.65,113.84,180.3,113.93,180.7,113.88Z"/><path class="cls-10" d="M135.75,148.49c-.88-3-.86-4.35.13-6.78l.22,1Z"/><path class="cls-3" d="M304,96.18c-1.77.09-2.61-.76-2.54-2.52A2.16,2.16,0,0,1,304,96.18Z"/><path class="cls-3" d="M299.73,92.81c-1.12-.85-3-.76-3.37-2.54C299.11,90.42,299.18,90.47,299.73,92.81Z"/><path class="cls-3" d="M169.76,139.21c1.14.24,1,1.19.72,1.81-.17.39-1,.49-1.54.72C169.15,140.88,168.24,139.65,169.76,139.21Z"/><path class="cls-10" d="M360.65,166.19c1,2.12,1,3.16-.06,5.09l-.16-1.82Z"/><path class="cls-3" d="M182.38,111.35a2.13,2.13,0,0,1-1.68,2.54C180.77,112.72,180.26,111.16,182.38,111.35Z"/><path class="cls-8" d="M306.49,250.59c.14,2.27-1.5,1.54-2.68,1.58A2.75,2.75,0,0,1,306.49,250.59Z"/><path class="cls-8" d="M184.1,66.68c-.22-2.26,1.41-1.62,2.6-1.67A2.72,2.72,0,0,1,184.1,66.68Z"/><path class="cls-8" d="M188.31,64.1c-.17-2.26,1.46-1.55,2.64-1.61A2.74,2.74,0,0,1,188.31,64.1Z"/><path class="cls-3" d="M184.07,108.82a2.13,2.13,0,0,1-1.69,2.53C182.45,110.18,182,108.63,184.07,108.82Z"/><path class="cls-3" d="M170.61,135.84l.75,1-1.57.65C169.8,136.83,169.52,136,170.61,135.84Z"/><path class="cls-15" d="M211.94,53.86l.55-1.45,1.16.8Z"/><path class="cls-3" d="M186.61,105.45c.18,1.3-.38,1.86-1.68,1.7C184.78,105.88,185.34,105.31,186.61,105.45Z"/><path class="cls-8" d="M215.3,53l.59-1.38,1.13.79Z"/><path class="cls-3" d="M301.41,93.66c-.68,0-1.53.24-1.68-.85C300.41,92.85,301.25,92.58,301.41,93.66Z"/><path class="cls-3" d="M184.93,107.15c0,.68.26,1.54-.86,1.67C184.12,108.14,183.86,107.31,184.93,107.15Z"/><path class="cls-3" d="M304.79,97l-.84-.84Z"/><path class="cls-5" d="M134.3,231.78l.95-.6Z"/><path class="cls-3" d="M198.42,93.64l-.84.84Z"/><path class="cls-3" d="M188.29,103.76l-.84.84Z"/><path class="cls-3" d="M197.57,94.48l-.84.84Z"/><path class="cls-3" d="M306.48,98.71l-.84-.84Z"/><path class="cls-3" d="M187.45,104.6l-.84.85Z"/><path class="cls-3" d="M305.64,97.87l-.85-.84Z"/><path class="cls-18" d="M288.06,133.86c-.15,17.42-4.91,29-14.34,38.38-10.35,10.29-23.08,15-37.75,14.19a47.14,47.14,0,0,1-31.83-14.25,49.28,49.28,0,0,1,.52-69.82c10.42-10.24,23.28-14.74,37.92-13.75a47.06,47.06,0,0,1,30.75,13.79C282.15,111.15,288.47,123.18,288.06,133.86Zm-44.89,42.69c5.37.33,16.87-4.66,23.25-11.35a36.52,36.52,0,0,0,10.48-24.32c.39-9.82-2.21-18.75-8.89-26.17-10.11-11.22-19-12.18-28.12-13.46-6.5.84-13,1.61-18.79,5.07A37.85,37.85,0,0,0,207,120.48c-3.16,5.77-5.39,12.09-5.06,18.73.48,9.83,3.83,18.68,11,25.83C220.21,172.38,229,176.18,243.17,176.55Z"/><path class="cls-19" d="M243.17,176.55c-14.17-.37-23-4.17-30.29-11.51-7.13-7.15-10.48-16-11-25.83-.33-6.64,1.9-13,5.06-18.73a37.85,37.85,0,0,1,14.12-14.16c5.79-3.46,12.29-4.23,18.79-5.07,9.12,1.28,18,2.24,28.12,13.46,6.68,7.42,9.28,16.35,8.89,26.17a36.52,36.52,0,0,1-10.48,24.32C260,171.89,248.54,176.88,243.17,176.55Zm25.32-36.34c.54-15.46-13.51-29.07-28.37-28.79-15.94.29-27.4,12.64-28.25,26.08-.56,8.95,2.08,16.5,8.22,22.9a26.39,26.39,0,0,0,20,8.15C255.76,168.2,268.24,156.72,268.49,140.21Z"/><path class="cls-20" d="M268.49,140.21c-.25,16.51-12.73,28-28.42,28.34a26.39,26.39,0,0,1-20-8.15c-6.14-6.4-8.78-14-8.22-22.9.85-13.44,12.31-25.79,28.25-26.08C255,111.14,269,124.75,268.49,140.21Zm-50.05,3c-.39,4.3,3.89,12.47,9.57,15.76,2.83,1.64,5.75,3.43,9,3.74,7.82.76,14.92-1.12,20-7.52,4.31-5.41,6.55-11.25,4.87-18.61-1.8-7.86-6.2-12.78-13.24-16.15-4.47-2.15-12.57-1.91-16.82,0C223.36,124.42,218.8,131,218.44,143.24Z"/><path class="cls-21" d="M218.44,143.24c.36-12.25,4.92-18.82,13.42-22.74,4.25-2,12.35-2.19,16.82,0,7,3.37,11.44,8.29,13.24,16.15,1.68,7.36-.56,13.2-4.87,18.61-5.12,6.4-12.22,8.28-20,7.52-3.25-.31-6.17-2.1-9-3.74C222.33,155.71,218.05,147.54,218.44,143.24Zm38.24-1.15A16.07,16.07,0,0,0,241,125.59c-9.62-.24-16.7,8.95-16.35,15.71.51,9.82,6.49,16.24,16.43,16.31C249.88,157.68,256.71,149.94,256.68,142.09Z"/><path class="cls-22" d="M256.68,142.09c0,7.85-6.8,15.59-15.58,15.52-9.94-.07-15.92-6.49-16.43-16.31-.35-6.76,6.73-16,16.35-15.71A16.07,16.07,0,0,1,256.68,142.09Zm-15.92,9.77a9.52,9.52,0,0,0,10-8.92c.3-4.83-4.74-10.43-9.22-10.48-4.82-.06-10.08,4.9-10.16,9.58S236.21,151.79,240.76,151.86Z"/><path class="cls-23" d="M240.76,151.86c-4.55-.07-9.48-5.21-9.4-9.82s5.34-9.64,10.16-9.58c4.48,0,9.52,5.65,9.22,10.48A9.52,9.52,0,0,1,240.76,151.86Z"/></svg>