<svg xmlns="http://www.w3.org/2000/svg" viewBox="0 0 650.54 317.65"><defs><style>.cls-1{fill:#575756;}.cls-2{fill:#24b0c9;}.cls-3{fill:#c2d137;}.cls-4{fill:#23a84d;}</style></defs><g id="Camada_2" data-name="Camada 2"><path class="cls-1" d="M43.26,242.24a18.25,18.25,0,0,1-2,8.8,15.54,15.54,0,0,1-5.2,5.77,22.57,22.57,0,0,1-7,3,30.79,30.79,0,0,1-7.46.93A29.88,29.88,0,0,1,11.54,259a18,18,0,0,1-8.23-5.91Q0,248.95,0,242.24V220.06H12.33v19.05a16,16,0,0,0,1.16,6.57,8,8,0,0,0,3.25,3.8,9.69,9.69,0,0,0,4.92,1.2,9.68,9.68,0,0,0,4.81-1.18,7.94,7.94,0,0,0,3.27-3.77,16,16,0,0,0,1.17-6.56V220.06H43.26v22.18Z"/><path class="cls-1" d="M122.86,260.26H109.58l-3.22-7.13a29,29,0,0,0-3.18-5.73,6.91,6.91,0,0,0-2.77-2.33,10.13,10.13,0,0,0-3.46-.5h-1.4v15.69H83.2v-40.2h21a15.5,15.5,0,0,1,8.33,2,12.23,12.23,0,0,1,4.68,4.94,12.4,12.4,0,0,1,1.44,5.51,10.18,10.18,0,0,1-1.2,5.14,9.56,9.56,0,0,1-2.52,3.07,24.68,24.68,0,0,1-3,1.83,11.81,11.81,0,0,1,3.27,2.68,33.11,33.11,0,0,1,3.5,6.28l4.14,8.73Zm-16.79-27.5a4.13,4.13,0,0,0-1.86-3.89q-1.86-1.1-6.06-1.1h-2.6v9.69h2.66q4.52,0,6.2-1c1.1-.65,1.66-1.89,1.66-3.73"/><path class="cls-1" d="M196.13,248.86a10.35,10.35,0,0,1-3.62,8.29q-3.62,3.12-10.12,3.11H158.73v-40.2h19.79a27.52,27.52,0,0,1,6.69.72,13.73,13.73,0,0,1,4.6,2,8.32,8.32,0,0,1,2.6,3,8.22,8.22,0,0,1,.85,3.74,9.36,9.36,0,0,1-.88,4.07,9.86,9.86,0,0,1-2.21,3.08,8.15,8.15,0,0,1-2.64,1.7,16.09,16.09,0,0,1,6.39,4.1,9.27,9.27,0,0,1,2.21,6.43m-14.42-17.23c0-1.93-.65-3.22-2-3.86a14.52,14.52,0,0,0-6.09-1h-2.6v9.64h2.66a14.39,14.39,0,0,0,6.1-1c1.26-.64,1.88-1.93,1.88-3.86m2,16.74q0-5.18-7.62-5.17h-5v10.3h5q7.62,0,7.62-5.13"/><path class="cls-1" d="M277.53,260.26H264.88l-3.34-8.15H243.75l-3.39,8.15H227.72l18.11-40.2h13.65l18,40.2Zm-18.82-15.14-6-14.68-6.06,14.68Z"/><polygon class="cls-1" points="357.69 260.26 346.69 260.26 325.45 237.87 325.45 260.26 313.22 260.26 313.22 220.06 324.18 220.06 345.37 242.33 345.37 220.06 357.69 220.06 357.69 260.26 357.69 260.26"/><polygon class="cls-1" points="413.51 260.26 398.28 260.26 398.28 220.06 413.51 220.06 413.51 260.26 413.51 260.26"/><path class="cls-1" d="M479.86,248.57a10.85,10.85,0,0,1-2,6.52,12.32,12.32,0,0,1-5.48,4.23,20.92,20.92,0,0,1-8.06,1.46q-1.28,0-3.12-.15a40.16,40.16,0,0,1-11.27-3v-9.85a47,47,0,0,0,6.1,3.12,16.58,16.58,0,0,0,6.42,1.25c2.11,0,3.48-.34,4.1-1a3,3,0,0,0,.93-1.93,3.25,3.25,0,0,0-1.6-2.74,22.8,22.8,0,0,0-4.64-2.31,37.82,37.82,0,0,1-5.91-3,14,14,0,0,1-4.15-4.1,10.5,10.5,0,0,1-1.61-5.84,11,11,0,0,1,1.63-5.87,11.36,11.36,0,0,1,5-4.2,19.19,19.19,0,0,1,8.16-1.55,29.3,29.3,0,0,1,11.14,2.1,21.16,21.16,0,0,1,2.6,1.29v9.43a33.85,33.85,0,0,0-5.61-3.17,15.94,15.94,0,0,0-6.6-1.39,5.07,5.07,0,0,0-3.33.88,2.64,2.64,0,0,0,0,4.2,18.1,18.1,0,0,0,3.69,2.12,74.31,74.31,0,0,1,7.56,3.91,14.92,14.92,0,0,1,4.45,4,9.57,9.57,0,0,1,1.61,5.67"/><polygon class="cls-1" points="566.13 260.26 553.78 260.26 553.78 236.97 542.63 250.46 541.67 250.46 530.49 236.97 530.49 260.26 518.5 260.26 518.5 220.06 529.7 220.06 542.28 235.13 554.93 220.06 566.13 220.06 566.13 260.26 566.13 260.26"/><path class="cls-1" d="M650.54,240.12a20.94,20.94,0,0,1-2.64,10.37A19.08,19.08,0,0,1,640,258a26.82,26.82,0,0,1-12.73,2.78,26.19,26.19,0,0,1-12.85-2.9,19.12,19.12,0,0,1-7.82-7.63,21.43,21.43,0,0,1,0-20.26,18.79,18.79,0,0,1,7.81-7.6,26.55,26.55,0,0,1,12.87-2.88,29,29,0,0,1,10.12,1.65,20.28,20.28,0,0,1,7.31,4.47,18.82,18.82,0,0,1,4.34,6.59,21.28,21.28,0,0,1,1.48,7.9m-12.58,0a12,12,0,0,0-.68-4.12,8.68,8.68,0,0,0-2.06-3.25,9.29,9.29,0,0,0-3.35-2.15,12.67,12.67,0,0,0-4.58-.77,10.54,10.54,0,0,0-7.8,2.84,11.19,11.19,0,0,0,0,14.92,10.48,10.48,0,0,0,7.78,2.87,11.8,11.8,0,0,0,5.79-1.33,8.86,8.86,0,0,0,3.63-3.65,11.11,11.11,0,0,0,1.25-5.36"/><path class="cls-1" d="M384.85,0A14.06,14.06,0,0,1,395,4a12.85,12.85,0,0,1,4.24,9.83A13.22,13.22,0,0,1,395,23.72a13.91,13.91,0,0,1-10.11,4.13,13.45,13.45,0,0,1-9.79-4.2,13.49,13.49,0,0,1-4.23-9.79,13.28,13.28,0,0,1,4.23-9.64A13.43,13.43,0,0,1,384.85,0M373,37.69h24V159.56H373V37.69Z"/><path class="cls-1" d="M414.62,56.57l45.17-43.52V37.68h38.39V58.93H459.79v58.36c0,13.62,5.73,20.42,17.3,20.42q12.89,0,27.31-8.41v22A61.61,61.61,0,0,1,474.22,159c-11.08,0-20.21-3.15-27.52-9.48a25.89,25.89,0,0,1-5.64-6.38,34.11,34.11,0,0,1-3.79-9.36c-1-3.85-1.52-11.13-1.52-22V58.93H414.62V56.57Z"/><polygon class="cls-1" points="596.09 37.68 622.14 37.68 568.5 158.97 560.34 158.97 505.45 37.68 531.74 37.68 564.5 111.03 596.09 37.68 596.09 37.68"/><path class="cls-1" d="M33.5,304.23q0-5.06-2.54-7.62t-7.54-2.56H19.05V314.7h3.66q5.38,0,8.08-2.65t2.71-7.82Zm3.18-.11q0,6.4-3.47,9.79t-10,3.39H16.05V291.45H24q6,0,9.37,3.34t3.34,9.33Z"/><polygon class="cls-1" points="55.41 317.3 41 317.3 41 291.45 55.41 291.45 55.41 294.12 44 294.12 44 302.45 54.72 302.45 54.72 305.1 44 305.1 44 314.61 55.41 314.61 55.41 317.3 55.41 317.3"/><path class="cls-1" d="M74.28,310.42a6.34,6.34,0,0,1-2.48,5.32,10.75,10.75,0,0,1-6.72,1.91A16.84,16.84,0,0,1,58,316.47v-2.9a18.43,18.43,0,0,0,3.46,1.06,18.23,18.23,0,0,0,3.72.39,7.47,7.47,0,0,0,4.52-1.14,3.73,3.73,0,0,0,1.52-3.18,4.07,4.07,0,0,0-.54-2.2,5,5,0,0,0-1.8-1.58,26,26,0,0,0-3.84-1.65,12.24,12.24,0,0,1-5.16-3.06,6.73,6.73,0,0,1-1.55-4.61,5.75,5.75,0,0,1,2.25-4.76,9.33,9.33,0,0,1,5.94-1.76,17.56,17.56,0,0,1,7.09,1.41l-.94,2.62a15.91,15.91,0,0,0-6.22-1.35,6,6,0,0,0-3.73,1,3.36,3.36,0,0,0-1.34,2.85,4.4,4.4,0,0,0,.49,2.2,4.72,4.72,0,0,0,1.67,1.57,19.76,19.76,0,0,0,3.6,1.58,14.42,14.42,0,0,1,5.6,3.11,6.18,6.18,0,0,1,1.53,4.32Z"/><path class="cls-1" d="M95.57,304.23q0-5.06-2.54-7.62c-1.69-1.71-4.21-2.56-7.54-2.56H81.12V314.7h3.66c3.58,0,6.28-.88,8.08-2.65s2.71-4.37,2.71-7.82Zm3.18-.11q0,6.4-3.48,9.79t-10,3.39H78.11V291.45H86q6,0,9.38,3.34t3.34,9.33Z"/><polygon class="cls-1" points="117.47 317.3 103.06 317.3 103.06 291.45 117.47 291.45 117.47 294.12 106.07 294.12 106.07 302.45 116.78 302.45 116.78 305.1 106.07 305.1 106.07 314.61 117.47 314.61 117.47 317.3 117.47 317.3"/><path class="cls-1" d="M138.8,317.3h-2.86V298.87c0-1.53,0-3,.14-4.35-.25.25-.53.51-.83.78s-1.71,1.42-4.21,3.45l-1.56-2,6.85-5.28h2.47V317.3Z"/><path class="cls-1" d="M155.48,293.59a4.85,4.85,0,0,0-3.91,1.62,6.81,6.81,0,0,0-1.38,4.53,5.85,5.85,0,0,0,1.27,4,4.84,4.84,0,0,0,3.87,1.46,6.69,6.69,0,0,0,3-.65,5.36,5.36,0,0,0,2.13-1.79,4.08,4.08,0,0,0,.77-2.37,8.17,8.17,0,0,0-.72-3.43,5.91,5.91,0,0,0-2-2.47,5.06,5.06,0,0,0-3-.9Zm8.69,8.89q0,15.18-11.74,15.17a12.21,12.21,0,0,1-3.25-.35v-2.53a10.3,10.3,0,0,0,3.22.46,7.84,7.84,0,0,0,6.41-2.63q2.16-2.62,2.36-8.05H161a6.37,6.37,0,0,1-2.58,2.24,8.4,8.4,0,0,1-3.63.76,7.25,7.25,0,0,1-5.44-2.05,7.77,7.77,0,0,1-2-5.72,8.8,8.8,0,0,1,2.25-6.37,8.64,8.64,0,0,1,10.54-1,8.48,8.48,0,0,1,3,3.94,16,16,0,0,1,1.06,6.11Z"/><path class="cls-1" d="M182.46,297.53a5.88,5.88,0,0,1-1.39,4.05,6.91,6.91,0,0,1-3.93,2.1v.14a7.4,7.4,0,0,1,4.61,2,5.85,5.85,0,0,1,1.5,4.18,6.75,6.75,0,0,1-2.56,5.68q-2.56,2-7.28,2a20.8,20.8,0,0,1-3.76-.31,12.67,12.67,0,0,1-3.32-1.09v-2.79a16,16,0,0,0,3.58,1.27,16.79,16.79,0,0,0,3.6.43q6.7,0,6.7-5.25,0-4.71-7.39-4.71h-2.54v-2.52h2.58a7.78,7.78,0,0,0,4.79-1.34,4.37,4.37,0,0,0,1.77-3.7,3.68,3.68,0,0,0-1.3-3,5.41,5.41,0,0,0-3.53-1.07,10.77,10.77,0,0,0-3.2.46,14.34,14.34,0,0,0-3.43,1.69l-1.49-2a12.79,12.79,0,0,1,3.67-2,13.32,13.32,0,0,1,4.38-.71,8.93,8.93,0,0,1,5.85,1.72,5.82,5.82,0,0,1,2.09,4.73Z"/><polygon class="cls-1" points="188.97 317.3 199.68 294.15 185.59 294.15 185.59 291.45 202.79 291.45 202.79 293.8 192.22 317.3 188.97 317.3 188.97 317.3"/><path class="cls-1" d="M225.77,293.76A8.45,8.45,0,0,0,219,296.6q-2.47,2.83-2.47,7.77t2.38,7.84a8.42,8.42,0,0,0,6.78,2.77,23.09,23.09,0,0,0,6.17-1v2.63a18.8,18.8,0,0,1-6.63,1q-5.72,0-8.81-3.46t-3.11-9.85a15.45,15.45,0,0,1,1.5-7,10.7,10.7,0,0,1,4.31-4.64,13.12,13.12,0,0,1,6.64-1.62,16,16,0,0,1,7.11,1.48l-1.27,2.58a13.73,13.73,0,0,0-5.87-1.38Z"/><path class="cls-1" d="M237.93,304.34q0,5.25,2.24,8a9.13,9.13,0,0,0,13,0q2.19-2.7,2.19-8t-2.19-7.92a7.83,7.83,0,0,0-6.46-2.69,8,8,0,0,0-6.53,2.71q-2.23,2.71-2.24,7.9Zm20.6,0q0,6.21-3.14,9.76t-8.72,3.55q-5.71,0-8.82-3.49t-3.1-9.86q0-6.32,3.11-9.79T246.7,291a11,11,0,0,1,8.7,3.54q3.14,3.53,3.13,9.76Z"/><path class="cls-1" d="M283,317.3h-3.43l-14.13-21.7h-.14q.29,3.82.28,7v14.7h-2.77V291.45h3.39l14.09,21.6h.15c0-.31-.08-1.34-.16-3.06s-.12-3-.09-3.71V291.45H283V317.3Z"/><path class="cls-1" d="M303.29,310.42a6.34,6.34,0,0,1-2.48,5.32,10.75,10.75,0,0,1-6.72,1.91,16.84,16.84,0,0,1-7.07-1.18v-2.9a18.43,18.43,0,0,0,3.46,1.06,18.23,18.23,0,0,0,3.72.39,7.47,7.47,0,0,0,4.52-1.14,3.73,3.73,0,0,0,1.52-3.18,4.07,4.07,0,0,0-.54-2.2,4.92,4.92,0,0,0-1.8-1.58,26,26,0,0,0-3.84-1.65,12.24,12.24,0,0,1-5.16-3.06,6.73,6.73,0,0,1-1.55-4.61,5.75,5.75,0,0,1,2.25-4.76,9.33,9.33,0,0,1,5.94-1.76,17.56,17.56,0,0,1,7.09,1.41l-.94,2.62a15.91,15.91,0,0,0-6.22-1.35,6,6,0,0,0-3.73,1,3.36,3.36,0,0,0-1.34,2.85,4.4,4.4,0,0,0,.49,2.2,4.72,4.72,0,0,0,1.67,1.57,20.09,20.09,0,0,0,3.6,1.58,14.42,14.42,0,0,1,5.6,3.11,6.18,6.18,0,0,1,1.53,4.32Z"/><polygon class="cls-1" points="315.08 317.3 312.07 317.3 312.07 294.12 303.89 294.12 303.89 291.45 323.27 291.45 323.27 294.12 315.08 294.12 315.08 317.3 315.08 317.3"/><path class="cls-1" d="M328.72,304h4.11a7.12,7.12,0,0,0,4.67-1.27,4.71,4.71,0,0,0,1.49-3.79,4.33,4.33,0,0,0-1.52-3.7,8.19,8.19,0,0,0-4.85-1.13h-3.9V304Zm0,2.58V317.3h-3V291.45h7.09q4.76,0,7,1.82a6.61,6.61,0,0,1,2.27,5.48q0,5.13-5.2,6.93l7,11.62h-3.55l-6.26-10.75Z"/><path class="cls-1" d="M366.16,291.45v16.72a9.1,9.1,0,0,1-2.67,6.95,10.2,10.2,0,0,1-7.33,2.53q-4.67,0-7.23-2.54a9.48,9.48,0,0,1-2.55-7V291.45h3v16.87a6.62,6.62,0,0,0,1.77,5,7.12,7.12,0,0,0,5.2,1.74,6.89,6.89,0,0,0,5-1.74,6.72,6.72,0,0,0,1.77-5V291.45Z"/><polygon class="cls-1" points="371.56 317.3 371.56 291.45 374.56 291.45 374.56 317.3 371.56 317.3 371.56 317.3"/><path class="cls-1" d="M400.4,317.3H397l-14.13-21.7h-.14q.29,3.82.28,7v14.7h-2.77V291.45h3.39l14.09,21.6h.15c0-.31-.08-1.34-.16-3.06s-.12-3-.09-3.71V291.45h2.81V317.3Z"/><path class="cls-1" d="M423.51,304.23q0-5.06-2.54-7.62t-7.54-2.56h-4.36V314.7h3.65c3.59,0,6.28-.88,8.09-2.65s2.7-4.37,2.7-7.82Zm3.18-.11q0,6.4-3.47,9.79t-10,3.39h-7.16V291.45H414q6,0,9.37,3.34t3.34,9.33Z"/><path class="cls-1" d="M432.85,304.34q0,5.25,2.23,8a8,8,0,0,0,6.5,2.72,7.87,7.87,0,0,0,6.49-2.71q2.19-2.7,2.19-8c0-3.48-.72-6.12-2.18-7.92a7.85,7.85,0,0,0-6.46-2.69,8,8,0,0,0-6.54,2.71q-2.24,2.71-2.23,7.9Zm20.6,0q0,6.21-3.14,9.76t-8.73,3.55q-5.7,0-8.81-3.49t-3.11-9.86q0-6.32,3.12-9.79t8.84-3.47a11,11,0,0,1,8.7,3.54q3.12,3.53,3.13,9.76Z"/><path class="cls-1" d="M467.56,304.34c0,3.5.74,6.15,2.24,8a9.11,9.11,0,0,0,13,0c1.46-1.8,2.2-4.46,2.2-8s-.73-6.12-2.19-7.92a7.83,7.83,0,0,0-6.46-2.69,8,8,0,0,0-6.53,2.71c-1.5,1.81-2.24,4.44-2.24,7.9Zm20.6,0q0,6.21-3.14,9.76t-8.73,3.55q-5.7,0-8.81-3.49t-3.1-9.86q0-6.32,3.11-9.79t8.84-3.47a11,11,0,0,1,8.7,3.54q3.14,3.53,3.13,9.76Z"/><polygon class="cls-1" points="503.44 317.3 500.43 317.3 500.43 291.45 514.84 291.45 514.84 294.12 503.44 294.12 503.44 303.58 514.15 303.58 514.15 306.25 503.44 306.25 503.44 317.3 503.44 317.3"/><path class="cls-1" d="M537.19,291.45v16.72a9.1,9.1,0,0,1-2.67,6.95,10.2,10.2,0,0,1-7.33,2.53c-3.12,0-5.52-.85-7.23-2.54a9.48,9.48,0,0,1-2.55-7V291.45h3v16.87a6.62,6.62,0,0,0,1.77,5,7.12,7.12,0,0,0,5.2,1.74,6.89,6.89,0,0,0,5-1.74,6.72,6.72,0,0,0,1.77-5V291.45Z"/><polygon class="cls-1" points="550.54 317.3 547.54 317.3 547.54 294.12 539.35 294.12 539.35 291.45 558.73 291.45 558.73 294.12 550.54 294.12 550.54 317.3 550.54 317.3"/><path class="cls-1" d="M580.69,291.45v16.72a9.1,9.1,0,0,1-2.67,6.95,10.2,10.2,0,0,1-7.33,2.53c-3.12,0-5.52-.85-7.23-2.54a9.48,9.48,0,0,1-2.55-7V291.45h3v16.87a6.62,6.62,0,0,0,1.77,5,7.12,7.12,0,0,0,5.2,1.74,6.89,6.89,0,0,0,5-1.74,6.72,6.72,0,0,0,1.77-5V291.45Z"/><path class="cls-1" d="M589.09,304h4.12a7.12,7.12,0,0,0,4.67-1.27,4.71,4.71,0,0,0,1.49-3.79,4.33,4.33,0,0,0-1.52-3.7,8.19,8.19,0,0,0-4.85-1.13h-3.91V304Zm0,2.58V317.3h-3V291.45h7.09q4.76,0,7,1.82a6.61,6.61,0,0,1,2.27,5.48q0,5.13-5.2,6.93l7,11.62h-3.55l-6.26-10.75Z"/><path class="cls-1" d="M608.86,304.34q0,5.25,2.24,8a9.13,9.13,0,0,0,13,0q2.19-2.7,2.19-8t-2.19-7.92a7.83,7.83,0,0,0-6.46-2.69,8,8,0,0,0-6.53,2.71q-2.24,2.71-2.24,7.9Zm20.6,0q0,6.21-3.14,9.76t-8.72,3.55q-5.72,0-8.82-3.49t-3.1-9.86q0-6.32,3.11-9.79t8.84-3.47q5.58,0,8.7,3.54t3.13,9.76Z"/><path class="cls-2" d="M196.88,157.44c-4-1.84-15.08-12.8-18.23-19.09C172,125,169.13,115.14,165,86.16c-4.53-32-14.38-50.22-40.43-57.3L23.2,1.17C35.18,4.37,47.87,11.4,56,25.9c5.15,9.2,7.91,14.55,10.67,31.5.55,4,1.65,12.3,2,14.48,4.08,26,11.91,39.68,18.9,48.71a38.9,38.9,0,0,0,8.51,8.19,38.23,38.23,0,0,0,8.76,4.23l100.65,27.36c-.19-.05-6.16-1.81-8.6-2.93Z"/><path class="cls-3" d="M113.9,134.89c4.39.44,19.48-3.41,25.39-7.24,12.53-8.13,20-15.2,38.16-38.11,20.12-25.33,37.82-36,63.88-28.95L342.79,88c-12-3.31-26.46-3.66-40.81,4.73-9.1,5.32-14.19,8.54-25.14,21.76-2.52,3.19-7.66,9.77-9.06,11.47-16.68,20.37-30.36,28.2-40.95,32.44a38.61,38.61,0,0,1-11.49,2.76,38.06,38.06,0,0,1-9.69-.79L105,133.05a88.44,88.44,0,0,0,8.9,1.84Z"/><path class="cls-4" d="M178.65,138.35c-5.32-10.61-8.19-19-11.21-36.54-11.46,13.59-18.2,19.38-28.15,25.84-5.91,3.83-21,7.68-25.39,7.24a88.44,88.44,0,0,1-8.9-1.84l100.48,27.32c-.19-.05-6.16-1.81-8.6-2.93-4-1.84-15.08-12.8-18.23-19.09Z"/></g></svg>