<svg xmlns="http://www.w3.org/2000/svg" viewBox="0 0 1407.78 319"><defs><style>.cls-1{fill:#fff;}</style></defs><g id="Camada_2" data-name="Camada 2"><path class="cls-1" d="M580.79,316.44H524.47c-3.55-5.71.86-9.13,3.82-12.85,5.89-7.42,7-16,6.63-25.07a14,14,0,0,0-.17-3.6c0,1,0,2-.07,2.95,0,2,0,3.94-.17,5.9-1.19,16.62-8.83,25.49-23,26.71-19,1.63-29-5.06-33.49-22.24a77.45,77.45,0,0,1-2.4-14.49c-.25,5.9-.17,11.77,1.63,17.48,1.66,5.3,4.9,9.58,8.59,13.6,3,3.33,6.16,6.66,3.06,11.61q-239.36,0-478.71.18c-6.36,0-7.68-1.22-7.6-7.59.41-33.08.19-66.16.19-99.24,5.94-7.84,14.63-7.18,23-7.22,42.39-.22,84.79.05,127.18-.16,15.88-.08,31.56-1.91,46.07-8.92,32.64-15.76,36.62-60.23,7.44-81.87-16.28-12.07-16.28-12.07-5.67-29.75,13.7-22.85,4-52.89-20.5-63.25-11.08-4.68-22.77-6-34.73-6-39.93,0-79.86.15-119.79-.07-8.33,0-17,.61-23-7.22.65-.91-1.5-3.09,1.48-3,4,.13,7.91,0,11.86,0h363.1c3.55,9.92-2.48,17.08-7.36,24.34-35,52-68.79,104.68-103.42,156.86-3.27,4.94-11.14,10.59-5.87,16.37,5.1,5.59,14,2.8,21.05.56,6-1.9,9.07-7.2,12.32-12.23,21.1-32.75,42.15-65.53,62.74-98.61,3.65-5.86,7.33-11.76,11.9-16.94,6-6.84,13.44-7.54,18.81,0,11.18,15.6,22.5,31.26,30.7,48.72,4.51,9.61.53,15.81-10.24,17.88-3.4.65-6.9.47-10.32.94-6.46.89-11.75,3.44-11.32,11,.38,6.7,5.51,8.9,11.34,9.42a128.07,128.07,0,0,0,25.14.21c16.41-1.77,27.29,4.92,34.57,19.22a93,93,0,0,0,7.82,12.54c3.31,4.53,7.45,8.05,13.11,8.93s12.55,2.93,16.65-2.43-1.29-10.17-4.06-14.48c-34.63-54-70.43-107.15-105.86-160.59-4.44-6.7-9.11-13.14-4.73-21.68H1395.92c7.78,0,7.78,0,11.86,3-6.39,8.34-15.7,7.18-24.45,7.22-54.77.2-109.54,0-164.3.12-25.82,0-29.08,3.31-29.19,28.89-.08,19.72,0,39.45,0,59.17.12,59.51,27.7,91.86,86.4,100.45a133.74,133.74,0,0,0,72.5-9.53c21.29-9,36.5-24.59,46-45.91,2.49-5.61,3-14.5,13-13V272c-6.58,3.81-9.84-1.79-13.86-5-17.64-14-37-14.81-56.7-6.1-18.26,8.08-20.58,27-6.17,40.75,4.19,4,12.48,5.95,8.55,14.76h-50.39c-11.45-5.52-14.15-16.94-18.27-27.33a138.49,138.49,0,0,0-5.8-13.56c-3.47-6.58-8-7-12.7-1.61-4.22,4.78-7.65,10.25-11.8,15.11-8.44,9.91-15.83,9.82-24.43,0-1-1.11-1.59-2.55-2.67-3.52-5.58-5-7.43-16.54-16.59-14.48-8.12,1.83-8.35,12.4-11.43,19.43-4.29,9.81-6.83,20.75-17.83,25.92h-41.5c-2.54-4.37,0-7.05,2.74-10.29,8.41-10.12,5.5-18.85-7.61-22.16-8.13-2.06-16.59-2.59-25-2.89-7.69-.27-13.39-3.75-14.08-12-.66-7.92,4.51-11.38,11.51-12.88,1.44-.31,2.81-.94,4.25-1.26a42.88,42.88,0,0,1,14.69-.23,31.81,31.81,0,0,0-12.49.21c-8.53,2.06-20.94,1.12-20.26,13.7.57,10.58,10.66,12.5,20.19,12.62,6.36.08,12.64,1.41,18.94,2.26,8,1.07,12.85,5.46,12.82,13.58,0,8.43-6.1,12.27-13.43,13a176,176,0,0,1-28.31.19c-5.65-.35-11.51-.4-14.33,6.17h-41.5c-11.93-10.56-5.64-24.7-7.3-37.28-.25-1.91,0-3.89-.11-5.84-.08,1.95.14,3.93-.11,5.84-1.66,12.58,4.63,26.72-7.3,37.28H981c-10.33-10.58-6.38-24-7.31-36.48-.22-2.91-.13-8.37-1.09-8.22-3.5.56-1.91,4.48-2.38,7-2.85,15.37-8.8,18-22.11,9.64-9.56-6-18.9-12.37-28.18-18.81-7.55-5.24-11.8-3.4-11.68,6.33.1,7.88,0,15.75-.09,23.63,0,6.71-1.46,12.69-7.19,16.91H871.28c-16-6.93-22-22.42-30.78-35.57-11.41-17.18-15.12-17.08-26.62.08C805,294.19,799,310,782.35,316.44H746.78c-2.19-3.35-1.45-6.45.71-9.52,5.09-7.25,5.39-14.48-.08-21.75-2.18-2.89-2.13-6.27-2.17-9.8-.12-13.92-4.25-18.27-17.85-19.55a14.46,14.46,0,0,0-1.47-.07c-28.76-1.94-30.75.2-31.28,29.11-.21,10.84,3.6,23-7.14,31.58H651.93c-4-4.33-10-5.74-13.78-10.72-5.68-7.44-7.86-13.67-1.63-22.39,9.25-12.94,4.4-23.65-11-26.95a42.77,42.77,0,0,0-5.87-.6c-28.82-2.07-31.15.33-31.7,29C587.74,295.64,591.37,307.75,580.79,316.44Z"/><path d="M1407.78,132.76c-3.53,2.81-2.6,7.26-3.9,10.88-12.46,34.76-38.27,54.43-73,62.43-29.26,6.73-58.7,6.1-87.25-4.85-37.45-14.37-59-43.49-60.95-82.95-1.65-34-.55-68.07-.42-102.1,0-10.69.61-11.15,12.34-11.18q74-.15,148.08,0c21.71,0,43.42.26,65.13.41Z"/><path d="M2.79,5.38c51.34-.1,102.68-.34,154-.2,13.58,0,26.09,4.61,37.81,11.43a31.41,31.41,0,0,1,9.71,8.9C221,48.35,219.71,73.12,200.6,93.85c-2.89,3.13-4.34,4.16,1.12,6.62,26,11.71,34.74,32.28,30.74,61.27-3.65,26.52-21.1,38.36-47.79,45.19-14,3.59-28.36,3-42.65,3L2.79,209.79Z"/><path d="M382.2,2.41q41.49,62.88,83,125.76,22.76,34.54,45.34,69.2a50.09,50.09,0,0,1,3.66,6.4c1.63,3.54.22,5.94-3.55,6-12.33.22-24.66.21-37,.14-4.51,0-6.84-3.19-9-6.71-5.39-8.83-11.17-17.42-16.42-26.32-3.65-6.2-8.48-8.5-15.75-8.23-14.29.53-28.61.33-42.92.08-9.65-.16-10.21-.79-10.55-10-.25-6.4,0-12.82,0-19.23,0-4.85,2.51-7.22,7.3-7.25,8.39-.07,16.78-.05,25.16-.2,4.72-.08,6.31-1.84,3.42-6.37-10.34-16.18-20.43-32.52-30.82-48.66-3.71-5.78-4.14-5.71-8.4.84q-16.5,25.4-32.74,51c-15.32,24.11-30.68,48.19-45.72,72.47-4.09,6.61-9.05,9.52-16.95,8.89-8.33-.67-16.77-.06-25.15-.19-3.36-.06-8,1.51-9.73-1.59-2.16-3.89,2-7.06,4.11-10.26q6.9-10.5,13.85-21L372.56,12.17c2.18-3.29,4.45-6.51,6.67-9.76Z"/><path d="M687.5,316.44c-.16-19.13-.51-38.26-.42-57.39,0-9.44,1-10.36,9.88-10.61,10.8-.3,21.61-.32,32.4,0a44.93,44.93,0,0,1,12.89,2.57c11.78,4.08,15.55,12.1,11.69,24.12-.66,2.06-2.6,3.13-.38,6.18C766,298.42,765,302.9,747.68,315.28a5.28,5.28,0,0,0-.9,1.16Z"/><path d="M1167.69,316.44q11.73-30.26,23.45-60.51c2.28-5.88,5.65-4.78,8.6-.94,7.48,9.75,14.63,19.76,22,29.63,6.38,8.61,7.15,8.63,13.49,0,7-9.5,13.61-19.31,21-28.51,5-6.28,7.1-5.88,10,1.25,7.85,19.63,15.41,39.37,23.08,59.06h-17.78c-6.82-4.52-9.27-15.18-16.13-16.86-7.44-1.82-10.32,10.15-17.66,13-2.67,1-5.48,1.93-7.71,3.89h-3c-6.91-3.55-13.78-7.05-18.68-13.48-5.12-6.72-9.67-5.72-12.64,1.87-2,5.21-6.82,7.72-10.18,11.61Z"/><path d="M1339.6,316.44c-3.15-4.08-8.35-4.92-12.3-7.8-21-15.31-18.88-41.93,4.43-53.61,21.16-10.6,56.71-12,76,17v23.7c-1.75,16.09-14.52,18-26.68,20.74Z"/><path d="M580.79,316.44c0-18.75-.27-37.5,0-56.25.12-9.67,1.84-11.43,11.12-11.74,10.85-.35,21.73-.27,32.58.09a36.64,36.64,0,0,1,11.46,2.62c16.83,6.39,20.93,24.23,7.56,36.16-5.71,5.09-5.36,7.53-.87,12.7,4.08,4.7,8.64,9.59,9.33,16.42H634.15c-.39-.3-.79-.59-1.16-.9-12.73-10.74-25.23-12.49-37.38.9Z"/><path d="M900.92,316.44c-.12-20.16-.37-40.32-.28-60.47,0-6.32,1.27-6.91,6.8-3.23,14.31,9.51,28.44,19.3,42.64,29,2.44,1.66,4.84,3.37,7.36,4.89,3.37,2,5.63,1.34,5.68-3,.12-8.36.11-16.72.13-25.08,0-4.19,1-7.86,5.39-9.54,6.12-2.35,11.75,1.2,12.17,8.42.51,8.82.2,17.69.2,26.54,0,10.82,0,21.64-.06,32.46H975c-13.91-4.83-27.56-10.07-39.47-19.16-6.68-5.1-12-4.37-12.68,5.37a18.44,18.44,0,0,1-7.13,13.79Z"/><path d="M1075.8,316.44a38.19,38.19,0,0,1-4.42-3.86,7.27,7.27,0,0,1-.76-8.3c1.59-3.2,5-3.46,7.73-2.68,10.13,2.86,20.46,2.62,30.79,2.66,4.44,0,8.89.06,13-2.2,2.15-1.19,5.09-2.2,5.05-4.84,0-3.19-2.85-5-5.67-6.1a23.67,23.67,0,0,0-5.79-1c-8.78-1-17.58-1.8-26.34-2.91-9.51-1.19-16-7.3-17.07-15.59-1.1-9,2.78-16.37,12-19.8,16.28-6.08,32.91-4.44,49.39-.33,4.3,1.07,4.82,4.51,4.09,8.2-.84,4.29-3.59,5.32-7.68,4.37-6.24-1.45-12.79-.18-19-2.27-7.55-2.54-14.6.88-21.62,2.77-3.79,1-3.58,4-.79,6.74,3.58,3.53,8.11,3.31,12.5,3.27,8.92-.1,17.75.65,26.27,3.3,13.87,4.32,20,21.16,10.84,30.35-3.37,3.4-8,5.54-12.07,8.25Z"/><path d="M488.91,316.44c-3.81-3.06-7.79-5.94-11.39-9.22-4.84-4.41-8.71-9.83-9-16.43-.58-11.28-.38-22.61-.24-33.91.07-5.21,3.08-8.19,8.39-8.24,6.21-.07,6.74,4.32,6.9,9.08.33,10.26-.86,20.56,2.13,30.74,3.32,11.26,10.46,16.53,22.88,15.67,11.6-.81,17.76-6.79,18.51-18.78.46-7.35.1-14.75.19-22.12,0-2.94-.13-6,.54-8.8,1.07-4.55,4.67-6,9-5.77s5.89,3.08,5.89,7c0,12.29.36,24.61-.34,36.86-.65,11.55-9.86,17.47-17.86,23.95Z"/><path d="M782.35,316.44c12.77-19.69,25.41-39.46,38.35-59,5-7.58,8.41-7.93,12.82-.39,11.85,20.29,27,38.46,37.76,59.43H853.49c-17.78-9.18-35.57-9-53.35,0Z"/><path class="cls-1" d="M915.74,316.44c.11-11.7.18-23.39.4-35.09,0-2.25.14-5.75,3.87-3.11,18.24,12.88,38.24,23.21,55,38.2Z"/><path d="M1019.48,316.44c-.11-19.16-.28-38.31-.28-57.47,0-3.76-.82-8.08,4.1-10,5.79-2.24,10.81.64,11.26,7,.41,5.87.18,11.79.14,17.68-.1,14.24-.26,28.49-.4,42.73Z"/><path class="cls-1" d="M1185.47,316.44c1-12.08,7.49-22.33,11.2-33.5,1.49-4.5,3.8-3,6,.05,8,11.2,16.22,22.31,24.34,33.45Z"/><path class="cls-1" d="M1229.93,316.44c7.87-10.72,15.69-21.47,23.62-32.14,4-5.44,5.67-5.56,7.26,0,3.13,10.87,9.35,20.71,10.62,32.17Z"/><path class="cls-1" d="M595.61,316.44c.93-2.74,1.64-5.58,2.83-8.2,1.8-4-4.62-11.19,2.67-12,8-.88,17.8-4.45,23.86,5.35l9.18,14.85Z"/><path class="cls-1" d="M800.14,316.44c3.32-9.89,10.3-13.17,20.38-12,5.76.66,11.66.32,17.49.08,8.61-.34,13.9,3.31,15.48,11.93Z"/><path class="cls-1" d="M1381.1,316.44c10.05-5.43,20.27-10.64,26.68-20.74v20.74H1381.1Z"/><path d="M642.85,107.48c0-29.62-.08-59.23,0-88.85,0-13.4.21-13.62,12.91-13.64,45.43-.09,90.88-.71,136.3.28,25.41.55,47.18,10.55,60.41,33.78,20,35.11,8.16,71-28.94,90.57a22.83,22.83,0,0,1-4.2,1.43c-6.45,1.87-5.37,4.92-2.12,9.41,13.55,18.76,26.8,37.75,40.18,56.65.85,1.2,2,2.21,2.85,3.4,1.74,2.37,4.13,5.05,2.55,7.91-1.22,2.22-4.47,1.48-6.9,1.49-10.37,0-20.75-.27-31.11.1-7.26.27-11.82-2.84-15.88-8.64-12.43-17.77-25.73-34.92-37.81-52.91-4.81-7.15-10.2-9.77-18.37-9.27-7.87.48-15.8-.05-23.7.11-6.08.12-9.23-2.34-9.1-8.68s.15-12.83,0-19.24,3.06-8.7,9.12-8.64c13.82.13,27.66-.26,41.48.11,8.05.22,15.75-1.3,23.32-3.35,13.74-3.71,21.37-14.48,21-28.5-.4-13.77-9-23.83-23.12-26.74a140.1,140.1,0,0,0-30.82-2.83c-20.24.35-40.49,0-60.74.13-12.18.07-12.36.2-12.38,12.21-.08,44.91,0,89.83-.06,134.75,0,23.51,2.39,21.3-21.48,21.4-4.44,0-8.89.16-13.33,0-9.19-.43-9.92-.9-10-10.58C642.74,168.69,642.85,138.08,642.85,107.48Z"/><path d="M912.54,106.7c0-29.62-.08-59.24,0-88.86C912.63,5.44,913,5,924.79,5c45.93-.1,91.91-1.26,137.79.39,39.51,1.41,63.22,24.08,68.76,60.93,3.65,24.32-9,43.68-29.07,57.66-3.61,2.52-7.82,4.19-11.74,6.27-8.51,4.52-8.49,4.51-2.62,12.68q18.54,25.81,37,51.67a86.21,86.21,0,0,1,5.64,8.66c1.81,3.29.81,6.17-3.08,6.26q-19.23.42-38.49,0c-5-.09-7.49-4.2-10.11-7.85-12.93-18-26.17-35.81-38.73-54.07-4.11-6-8.59-8.79-15.81-8.45-8.87.41-17.78,0-26.67.06-5.57,0-7.55-2.81-8.1-8.17-2.81-27.36-2-28.12,25-28.43,15.72-.18,31.55,1.77,47.11-2.63s23.27-13.54,22.88-28.25c-.41-15.23-9.14-24.23-25.33-27.89-13.22-3-26.48-2.23-39.76-2.33-17.28-.13-34.57-.16-51.86,0-9.74.11-10.05.34-10.1,10-.17,27.65-.07,55.29-.07,82.94,0,21.22.13,42.45-.05,63.68-.1,11.22-.46,11.43-11.86,11.69-7.41.17-14.82.22-22.22,0-10.07-.31-10.64-.77-10.71-11.35-.17-24.68-.06-49.37-.06-74.05Z"/><path d="M592.86,108.21q0,42.89,0,85.77c0,15.87-.07,15.88-16.53,15.94-6.41,0-12.83-.13-19.24,0-6,.13-9.39-2.14-9.1-8.59.13-3,0-5.92,0-8.88q0-85,0-170.07c0-3,.13-5.92,0-8.87-.24-6.42,3.12-8.72,9.13-8.58,6.91.16,13.81,0,20.72,0,14.86.1,15,.13,15,14.51.09,22.68,0,45.36,0,68Z"/><path class="cls-1" d="M46.88,106.5c0-19.71.32-39.42-.23-59.11-.13-4.89,1-6,5.33-6q45.86.15,91.69.12a29.94,29.94,0,0,1,15.5,4.31c6.81,4.14,9.89,11,9.12,19C167.54,72.57,164.23,79,156.38,82a45.83,45.83,0,0,1-17.3,3.15c-16.27-.2-32.54-.23-48.8,0-10.2.15-10.71.84-11,11-.19,5.91-.23,11.83,0,17.73.4,9.13,1,9.87,10.62,10,21.69.26,43.38.17,65.07.16,6,0,11.75.46,17.39,2.71,9.81,3.92,14.25,10.65,13.9,21.79-.32,10.39-4.71,16.32-14.35,20a40.48,40.48,0,0,1-14.46,2.55q-51.75.09-103.52.23c-5,0-7.6-.31-7.28-7.2.87-19.17.3-38.41.3-57.62Z"/><path class="cls-1" d="M721.74,301.25c-4.86,0-9.73.17-14.58-.07-2.83-.13-4.12-2.24-4.25-5-.15-3.32,1.08-6,4.68-6.07q15.33-.28,30.67,0c3.33.07,5.25,2.29,5.13,5.78s-2.29,5.29-5.58,5.4c-5.35.17-10.71,0-16.07,0Z"/><path class="cls-1" d="M719,274.52c-3.89,0-7.79.17-11.67,0-2.8-.16-4.27-2-4.39-4.82-.11-2.58.41-5.25,3.34-5.59a99.76,99.76,0,0,1,26.18.11,5.6,5.6,0,0,1,4.84,6.33c-.21,2.84-2.56,4-5.16,4.1-4.38.15-8.76,0-13.14,0Z"/><path class="cls-1" d="M1360.54,263.41a44.87,44.87,0,0,1,19,2.79c7.3,2.66,11.54,7.95,12.37,15,.87,7.41-3.48,13.15-9.85,16.74-14.37,8.1-29,8.31-43.3-.13-11-6.52-11-22.34-.4-29.43C1345.19,263.86,1352.8,262.63,1360.54,263.41Z"/><path class="cls-1" d="M612.89,280.55c-2.44,0-4.89-.17-7.31.05-6.05.55-8.36-1-7.5-8,1.09-8.84.25-9,9.18-9.11a143.6,143.6,0,0,1,16.08.22c7.53.75,11.2,4.31,10.52,9.51-.83,6.33-5.46,7.34-10.73,7.33Z"/><path class="cls-1" d="M828.31,289.52c-2.76-1-8.07,2.39-7.93-3,.11-4.12,3.13-9.43,7.65-9.51,4.7-.09,7,6,7.57,9.53C836.43,291.48,831,288.66,828.31,289.52Z"/></g></svg>