<svg xmlns="http://www.w3.org/2000/svg" viewBox="0 0 1189.94 319"><defs><style>.cls-1{fill:#010201;}.cls-1,.cls-2{fill-rule:evenodd;}.cls-2{fill:#d12329;}</style></defs><g id="Camada_2" data-name="Camada 2"><g id="g10"><g id="g8"><path id="Fill-6" class="cls-1" d="M596.24,127.4c-1.1,3.75-13.64,28.92-13.64,28.92h5.06l27.72-40.39v-3.44s-24.16,0-36,.06V116s20.44-.89,16.82,11.41Zm67.42,57.23-.09-57c0-6.79.7-7.76,15.7-7.79,26.8-.05,39.63,18.81,39.66,37.25,0,19.44-10.48,29.37-11.62,30.1,0,0,.67.44,3.73.43,9,0,29.89-9.29,29.85-34.19,0-16.09-8.27-27.87-19.87-33.92-11.12-6-26.55-7.2-41.54-7.18l-55.38.1,0,3.45s19.6.2,19.63,17.29c0,0,.07,38.17.08,46.67,0,0,.21,4.8,4.58,4.79ZM774,270.15c-4.19,0-8.74-1.87-14.91-6.92-16.67-13.54-21.2-21.65-40.6-52.88C717.3,208.42,707,193,691.76,193l-43.32.08c-4.4,0-4.58,4.8-4.58,4.8l.07,41.44c.05,25.45-.41,28.61-14.44,30.32l-6.9.73v3.47l61.67-.11V270.3l-6-.72c-14-1.9-14.5-4.81-14.55-30.26l-.07-33.09c0-5.08.66-5.9,4.92-5.9h8.25c9.66,0,12.33,2.39,16,7.72,7.49,10.89,18.71,30,25,38.94,17.2,24.44,27.75,26.65,48.29,26.62,2.54,0,4.72,0,7.92-.05,0-1.83,0-2,0-3.43ZM557.88,200c-10.08-18.15-30.21-59.47-35.86-71.56-4.31-9.25,5.63-12.4,11.85-12.41v-3.4l-55.83.1c0,1.48,0,1.69,0,3.51,5.18,0,16.31,2,24.56,18l30.65,59.8c7,13.55,7.76,16.46,7.8,29.79l0,15.21c.06,25.93-.41,29.33-14.44,30.8l-10.11.74c0,1.53,0,3.47,0,3.47l69-.12s0-2,0-3.47l-10-.71c-13-.94-14.5-4.81-14.55-30.75l0-15.21c0-13.43,0-18.33-3-23.82ZM1125,192.91l-13.11-39.49c-1.93-5.81-4.14-12.34-5.58-15.26h-.5c-.71,1.23-3.12,7.05-5.77,14.33l-15.15,42.19c-1.92,5.58-1.68,5.82,5.09,5.81l29.71-.05c7,0,7.5-1,5.31-7.53Zm64.91,76.49v3.47l-58.73.1V269.5c15.76,0,15.45-5.12,15.45-7.56,0-2.66-1.22-7-3.16-12.83l-10.68-32.94c-1.72-5.33-2.7-6.06-9.94-6l-36.49.07c-6,0-7.46.73-9.18,5.83l-8.39,25.46c-3.61,10.92-5.29,17.47-5.29,20.13,0,2.92,2.15,7.95,15,7.92v3.54l-49.26.08s0-.12,0-3.37c12.45,0,19.08-6.45,22.44-15.17,4.33-11.17,11.07-26.93,21.17-54.09l28.79-77-1-3,15.93-11.89,45.06,132c5.24,15.51,8.46,20.56,13.24,24.32a26.91,26.91,0,0,0,15.09,4.48Zm-264.5-30.55c0,25.45-.45,28.85-14.45,30.32l-7.25.74v3.47l113.35-.2,8.51-34.5s-2-.72-3.4-1.06c-4.81,12.36-11.2,21.26-16,24.19-3.86,2.17-9,3.16-29.48,3.19-19.07,0-23.67-2.85-26.34-5.53-4.36-4.6-5.1-10.89-5.13-26.16l-.14-86.95c-.05-25.46.42-29.32,14.68-30.56l5.78-.5v-3.45l-62.1.11s0,1,0,3.46l6,.47c15.23,1.18,15.72,5,15.77,30.51Zm-132.85.2c0,25.44-2.49,29.86-16.24,31.1l-6.65-.06c0,2.7,0,1.18,0,3.52l119.44-.21,8.49-34.49s-1-.3-3.34-.9c-6.24,12.61-12.75,21.11-17.1,23.53-5.31,2.67-12.31,3.66-30.91,3.69-21.27,0-26.35-2.62-29.24-5.52-3.89-4.1-4.64-9.8-4.66-22.63l-.06-36.73c0-6.31.71-6.56,8-6.58l14,0c9.41,0,15.22.22,18.6,1.18,4.83,1.22,6.54,4.85,7.51,9.2l2.2,9.45H866L866,165.34h-3.44l-1.92,10c-1.19,6-2.89,7.51-5.79,8.47s-10.37,1.48-20.54,1.5l-14,0c-7.25,0-8,0-8-6.77l-.08-48.46c0-9.21,0-9.69,7.24-9.71l17.39,0c10.64,0,18.37.21,23.43,1.41,12.58,3.12,14.77,11.61,18.42,23l3.45-.31-4-32.4-104.36.18v3.46l3.89.48c14.25,1.66,14.73,5.3,14.78,30.51ZM350.43,130.39c17.61-13.85,40.08-20.67,65.2-20.72a186.17,186.17,0,0,1,42.78,5.75c2.9.72,6.78,1.52,6.78,1.52l3.47,35.58h-3.45c-3.67-16.48-17.66-35.39-52.69-35.34-37,.08-68.35,23.63-68.26,73.8.09,50.9,32.26,78.95,71.9,78.88,31.17-.05,48.13-20.45,53.65-34.77h3.45l-11.92,34.22s-5.8,1.49-8.46,2.45c-5.29,1.94-22.7,5.61-38.16,5.64-21.75,0-42.53-4.29-60.19-16.13-19.35-13.3-34.37-35.33-34.43-66.6-.05-26.9,12-49.94,30.33-64.28Z"/><path id="Fill-3" class="cls-2" d="M186.4,267.23a7,7,0,0,1-7,7H51.83a7,7,0,0,1-7-7v-128a7,7,0,0,1,7-7H179.42a7,7,0,0,1,7,7ZM-.38,319V87.48h230.8V319ZM114.49,0c-.81.44,114.33,61.66,114.33,61.66H1.21Z"/></g></g></g></svg>