<svg xmlns="http://www.w3.org/2000/svg" viewBox="0 0 1415.4 319"><defs><style>.cls-1{fill:#19a372;}.cls-2{fill:#18a372;}.cls-3{fill:#345a4f;}.cls-4{fill:#33594e;}.cls-5{fill:#365b50;}.cls-6{fill:#355b50;}.cls-7{fill:#365c51;}.cls-8{fill:#395d53;}.cls-9{fill:#375c51;}.cls-10{fill:#fefffe;}.cls-11{fill:#fdfdfd;}</style></defs><g id="Camada_2" data-name="Camada 2"><path class="cls-1" d="M165.22,106.62c1.16-.94,1.79-1.37,2.33-1.91q42.31-42.24,84.61-84.5a61.89,61.89,0,0,1,39-18.46C310.78,0,328,5.82,342.24,19.54c10.13,9.77,19.95,19.86,29.9,29.8.11.11.18.25.37.5a16,16,0,0,1-1.09,1.3q-42.93,42.92-85.9,85.78a60.35,60.35,0,0,1-36.76,17.57c-20.8,2.32-38.73-3.88-53.63-18.62-9.19-9.09-18.3-18.27-27.46-27.4A27.54,27.54,0,0,0,165.22,106.62Zm37.35-.31c.78.83,1.24,1.33,1.71,1.81q4.75,4.77,9.52,9.52a37.91,37.91,0,0,0,54.1,0q33.11-33,66.18-66.12c.53-.52,1-1.09,1.58-1.68-4.12-4.13-8-8.34-12.19-12.17-9.85-9-21.43-12-34.46-9.23a37.92,37.92,0,0,0-19.15,10.89q-32.73,32.78-65.51,65.5C203.87,105.34,203.29,105.73,202.57,106.31Z"/><path class="cls-2" d="M165.87,269.61c.59-.61,1.15-1.22,1.73-1.8q41.9-41.85,83.77-83.73c9.75-9.77,21.26-16.27,34.88-18.51,21.25-3.5,40,2,55.69,16.87,10.15,9.63,19.85,19.73,29.75,29.63.26.26.5.56.85,1-.45.52-.86,1-1.32,1.5Q329,256.71,286.8,298.89c-9.58,9.58-20.91,16-34.28,18.24-20.78,3.53-39.39-1.51-54.91-15.86-10.71-9.91-20.76-20.54-31.1-30.85C166.3,270.21,166.14,270,165.87,269.61Zm37.12-.19c4.46,4.61,8.54,9.25,13.08,13.39a35.58,35.58,0,0,0,24.39,9.32,36.57,36.57,0,0,0,27-10.88q33.57-33.39,67-66.92a14.1,14.1,0,0,0,.94-1.11c-4.48-4.61-8.55-9.39-13.24-13.47-9.1-7.89-19.82-10.58-31.7-8.46a37,37,0,0,0-20,10.66l-66.19,66.13C203.79,268.56,203.33,269.07,203,269.42Z"/><path class="cls-2" d="M0,130.69c.54-.58,1-1.09,1.46-1.56C11,119.61,20.44,110,30,100.6A61.86,61.86,0,0,1,71.43,82.29c19.13-1,35.57,5.34,49.13,18.86q42.1,42,84.13,84a23.77,23.77,0,0,0,2.23,1.76c-.66.81-1,1.29-1.41,1.7q-14.28,14.28-28.58,28.54A61.39,61.39,0,0,1,141.74,235c-20.94,3-39.55-2.46-54.68-17.36-28.83-28.4-57.32-57.14-85.94-85.75C.75,131.54.42,131.14,0,130.69Zm37.18.27c.21.23.56.63.93,1q33.41,33.36,66.81,66.72a37.73,37.73,0,0,0,52.73.77c3.88-3.64,7.57-7.48,11.34-11.24a10.55,10.55,0,0,0,.87-1.2c-.43-.36-.81-.62-1.13-.94L102.57,120c-.65-.64-1.31-1.27-2-1.89a37.73,37.73,0,0,0-50.21-.7C45.71,121.48,41.67,126.3,37.18,131Z"/><path class="cls-3" d="M542.74,127.38c.11-11,1.44-21.7,5.31-32C555.73,75,570.26,62.65,591.89,59a71.85,71.85,0,0,1,32.53,1.64c17.57,5.13,29.3,16.66,36,33.53a81,81,0,0,1,5.32,24.62c.74,11.19.26,22.32-2.57,33.26a64.05,64.05,0,0,1-11.51,24.08,52,52,0,0,1-28.4,18.37,72.38,72.38,0,0,1-37.67,0C568,189.75,556,178.6,549,161.92a76.87,76.87,0,0,1-5.55-23.17C543.12,135,543,131.17,542.74,127.38Zm92.57.29A93.49,93.49,0,0,0,633,105.3,46.91,46.91,0,0,0,628.83,94c-5.21-9.76-13.4-14.6-24.44-14.59s-19.33,5-24.48,14.89c-.63,1.21-1.2,2.46-1.71,3.73a65.37,65.37,0,0,0-4.12,18.37,119.25,119.25,0,0,0,0,22.75A66.34,66.34,0,0,0,577.72,156a33.26,33.26,0,0,0,6.52,11.14c6.29,6.83,14.32,8.85,23.22,8.14,9.7-.78,16.88-5.59,21.38-14.21a47.91,47.91,0,0,0,3.2-7.77C634.66,145,635.29,136.36,635.31,127.67Z"/><path class="cls-3" d="M1222.32,144.91c.71,6.77,2.18,13.09,5.75,18.75,3.89,6.15,9.6,9.58,16.68,10.87s14.26.46,21.28-1.11c3.11-.69,6.21-1.46,9.25-2.44a17.26,17.26,0,0,1,21.78,10.34c.42,1.14.94,2.23,1.47,3.48-.57.34-1,.69-1.58.94a124.39,124.39,0,0,1-36.59,10.75,87.16,87.16,0,0,1-27.26-.44c-20-3.69-33.12-15.32-39.38-34.64-4.08-12.56-4.7-25.51-3.84-38.55a81.46,81.46,0,0,1,6-26.55c9-21.27,24.86-33.92,47.66-37.51A66.92,66.92,0,0,1,1275.37,61c8.94,3,16.29,8.15,20.25,16.9,6.52,14.37,5.69,28.22-4.32,40.93-5.63,7.13-13,12.12-21.08,16a97,97,0,0,1-30.56,8.68c-5.28.63-10.61.87-15.91,1.29Zm-1-19.56c12-.65,23.28-2.42,33.5-8.31a32.3,32.3,0,0,0,8.13-6.55c4.27-4.85,6.37-10.4,5.69-16.94-.74-7.14-5.32-12.64-12.34-14a24.59,24.59,0,0,0-20.78,5c-4.47,3.55-7.28,8.3-9.36,13.51a65.57,65.57,0,0,0-4.12,17.68C1221.77,118.84,1221.62,121.93,1221.37,125.35Z"/><path class="cls-3" d="M718,62c.95,5.09,1.85,9.93,2.82,15.1l2.09-1.66c8.82-7.12,18.59-12.34,29.76-14.71a59,59,0,0,1,25.58,0c13.86,3.18,22.35,12,26,25.56A60.93,60.93,0,0,1,806.14,102v94.29a14.76,14.76,0,0,1-6.76-.53,29.38,29.38,0,0,1-22.78-28.81c0-19,0-38,0-57a59.91,59.91,0,0,0-.64-9.08C774.29,90.6,767.39,84.51,757,83.71a41.13,41.13,0,0,0-20.58,3.94A80,80,0,0,0,722.57,96,3.52,3.52,0,0,0,721,99.23c.05,16.65,0,33.3,0,49.94v46.92c-1.71.49-26.56.61-29.61.14v-1.94q0-56.34,0-112.67a19.28,19.28,0,0,1,14.9-19.13C710.1,61.59,713.92,62,718,62Z"/><path class="cls-3" d="M1081.85,61.39V150a82.23,82.23,0,0,0,1,15.45,28,28,0,0,0,1.94,6.27,6.07,6.07,0,0,0,6.44,3.74,19.83,19.83,0,0,0,9.17-3.17,41.46,41.46,0,0,0,10.87-10.3,96.54,96.54,0,0,0,14.43-27.79,128.57,128.57,0,0,0,7.13-49.74,22,22,0,0,1,21.3-23.23c2.34-.1,4.7,0,7.31,0,.42,2.53.87,5,1.21,7.42A152.69,152.69,0,0,1,1164,96c-.72,17.58-3.52,34.74-10.43,51.06-5.84,13.8-14.1,25.86-25.88,35.31a64.43,64.43,0,0,1-29.85,13.87,43.32,43.32,0,0,1-18.55-.76,29.05,29.05,0,0,1-18.8-15.12,51.4,51.4,0,0,1-5.1-16.69c-1.23-8.23-.86-16.53-1-24.81-.22-15.5-.35-31-.53-46.51q-.17-14.25-.36-28.49c0-.75,0-1.5,0-2.42Z"/><path class="cls-3" d="M838.1,61.35h28.32V64c0,28.36,0,56.71,0,85.06,0,5.09.34,10.18.85,15.24a27.31,27.31,0,0,0,2,7.2c1.17,2.89,3.49,4.25,6.72,4a19.18,19.18,0,0,0,8-2.53,38.19,38.19,0,0,0,10.73-9.44c6.73-8.21,11.38-17.58,15-27.48a127.46,127.46,0,0,0,7.79-50.32,22.89,22.89,0,0,1,2.36-12.38c4-7.39,10.15-11.53,18.6-12.05,2.49-.15,5,0,7.69,0,.5,3.36,1,6.57,1.45,9.78a152.13,152.13,0,0,1,.89,28.22c-1,17.73-4.24,35-11.79,51.19-6.3,13.52-15,25.16-27.16,34a63.29,63.29,0,0,1-27.16,11.74,43.17,43.17,0,0,1-18.55-.82A29.08,29.08,0,0,1,845,180a51.78,51.78,0,0,1-5.12-17.86c-1-8-.77-16.08-.86-24.13q-.36-30.43-.64-60.87c-.05-4.49-.17-9-.24-13.45C838.09,63,838.1,62.21,838.1,61.35Z"/><path class="cls-3" d="M524.78,168.64c1.43,7.33,2.82,14.46,4.24,21.7a7.1,7.1,0,0,1-1.06.54c-12.88,3.94-26,6.36-39.51,6a72.86,72.86,0,0,1-25.81-5.1C447.18,185.35,437,174,431.18,158.46a85.69,85.69,0,0,1-5-27.45c-.34-10.86.69-21.56,4.12-31.93,4.94-14.92,13.93-26.53,28.08-33.82A65.34,65.34,0,0,1,481,58.6c12.78-1.51,25.34-.15,37.78,2.81a11.1,11.1,0,0,1,8.6,10.74,10.89,10.89,0,0,1-8.21,10.77,13.53,13.53,0,0,1-5.84,0c-7.4-1.57-14.82-2.62-22.4-2.06q-21.86,1.59-30,21.91a59.69,59.69,0,0,0-3.76,16.84,80.17,80.17,0,0,0,1.39,24.48A45.8,45.8,0,0,0,464,158.32c5.48,9,13.61,13.86,23.92,15.3,9.51,1.32,18.8-.13,28-2.5C518.79,170.38,521.63,169.53,524.78,168.64Z"/><path class="cls-3" d="M1361.16,195.41h-30.77c0-.93-.07-1.8-.07-2.68q0-33.06,0-66.12a145,145,0,0,0-4.94-39A21.68,21.68,0,0,1,1338,61.76c1.1-.47,2.23-.9,3.47-1.41,6.86,7.94,10.67,17.15,12.76,27.29.92-.24.89-1.13,1.14-1.74a48.69,48.69,0,0,1,8.85-14.51,36.38,36.38,0,0,1,23.52-11.79,51,51,0,0,1,20.93,2.24,11.21,11.21,0,0,1,1.16.48c-.14.62-.24,1.2-.4,1.76-1.19,4.16-2.33,8.33-3.6,12.47a17.36,17.36,0,0,1-16.78,12.68,24.91,24.91,0,0,0-18,7.7c-7,6.91-9.95,15.45-9.95,25.14v73.34Z"/><path class="cls-4" d="M980.83,61.34h30.77v2.73q0,49.61,0,99.22a26.8,26.8,0,0,0,.48,5.21c.7,3.46,2.64,5.14,6.18,5.25,2.5.08,5-.17,7.73-.29,1.85,6.07,1.41,11.87-2.8,17a15.79,15.79,0,0,1-12.52,6,32.87,32.87,0,0,1-11.45-1.64c-10.27-3.58-15.84-11.11-17.78-21.53a39.94,39.94,0,0,1-.6-7.25q-.06-51.21,0-102.41Z"/><path class="cls-5" d="M1322.32,315.81h-11.26V313.3c0-9.65,0-19.3,0-29a26.11,26.11,0,0,0-.78-6.29c-.88-3.33-3.33-4.58-6.66-3.75-3.1.78-5.09,2.91-6.6,5.56a22.22,22.22,0,0,0-2.7,11.17q0,11.06,0,22.12v2.62h-11.46v-2.49q0-11.4,0-22.8a46.57,46.57,0,0,0-1.79-14c-.75-2.45-1.79-4.82-2.79-7.45l8.65-3.48c2.78,2.81,3.81,6.36,5,10.19.58-1,1-1.56,1.33-2.19,3.82-6.85,12-9.49,18.82-8.18a10.29,10.29,0,0,1,6.83,4.93c.74,1.14,1.34,2.36,2.06,3.63.39-.55.76-1,1.09-1.54,4.47-6.87,13.71-8.56,20.07-6.6a10.67,10.67,0,0,1,7,6.72,23.25,23.25,0,0,1,1.47,8.49q0,16.86,0,33.74a9.28,9.28,0,0,1-.16,1.13h-11.27v-2.71c0-9.95,0-19.91,0-29.87a21.22,21.22,0,0,0-.66-5.39c-.88-3.17-3.31-4.42-6.53-3.69a10.47,10.47,0,0,0-6.07,4.17,15.78,15.78,0,0,0-3.32,9.06c-.11,3.5-.07,7-.08,10.49,0,5.17,0,10.34,0,15.5C1322.42,314.22,1322.36,315,1322.32,315.81Z"/><path class="cls-5" d="M1029.67,313.58V245.14l11.47-2v29.25l.4.09c.19-.28.4-.56.58-.85,2.94-4.89,7.47-6.74,12.94-6.55,8,.28,13.49,4.29,16,11.94a36.38,36.38,0,0,1,.33,23.08,22.94,22.94,0,0,1-22.75,16.36A87.17,87.17,0,0,1,1029.67,313.58Zm11.4-6.34a20.08,20.08,0,0,0,9.7.87,10.08,10.08,0,0,0,7.63-5.55,17.49,17.49,0,0,0,1.54-4.5c1-5.11.75-10.28.26-15.42a17.14,17.14,0,0,0-1.7-5.84,6.41,6.41,0,0,0-9.48-2.57,14.2,14.2,0,0,0-3.42,3.28,21.16,21.16,0,0,0-3.89,9.37C1040.52,293.59,1041.39,300.35,1041.07,307.24Z"/><path class="cls-5" d="M1128.4,268.14c0,7.62,0,15.07,0,22.51,0,2.88.13,5.77.41,8.64a31.47,31.47,0,0,0,4.31,13.78l-8.91,3.6c-3.07-3.14-4.4-6.86-5.1-11.12a4.41,4.41,0,0,0-.67.9c-3.26,8.55-9.81,10.89-18.35,9.76-5.8-.78-9.81-4.18-12.31-9.41a28.47,28.47,0,0,1-2.5-9.42c-.71-6.58-.4-13,2.58-19.15a23.08,23.08,0,0,1,22.41-13.12,107.84,107.84,0,0,1,16.88,2.56A11.1,11.1,0,0,1,1128.4,268.14Zm-11.48,6.05a52.3,52.3,0,0,0-5.65-1c-6.93-.46-11.45,2.91-13,9.18a10.84,10.84,0,0,0-.43,2.23c-.13,4.24-.33,8.48-.26,12.72a16.18,16.18,0,0,0,1.72,7.26,6.49,6.49,0,0,0,7.82,3.56,9,9,0,0,0,4.74-3.37,21.44,21.44,0,0,0,4.69-12.14c.35-4.76.26-9.55.36-14.33C1116.94,277,1116.92,275.75,1116.92,274.19Z"/><path class="cls-5" d="M1409.93,290.63a33.63,33.63,0,0,1-2,12.06,20.74,20.74,0,0,1-19.83,14.14,33.39,33.39,0,0,1-7.47-.66c-7.47-1.61-12.15-6.36-14.16-13.62a39.27,39.27,0,0,1,0-21.84c2.46-8.41,7.85-14,16.68-15.6a27.54,27.54,0,0,1,13.54.83,16.86,16.86,0,0,1,10.43,9.56C1409.06,279.62,1409.93,284.13,1409.93,290.63Zm-12.2,1.2c-.27-3-.43-5.66-.76-8.29a14.55,14.55,0,0,0-2.52-6.76c-2.07-2.88-5-3.86-8.39-3.59a7.7,7.7,0,0,0-6.85,5.23,17.23,17.23,0,0,0-.94,3,45.45,45.45,0,0,0-.26,16.32,20.93,20.93,0,0,0,2,6c1.9,3.68,5.21,4.85,9.2,4.5,3.67-.32,5.68-2.58,6.88-5.79a10.65,10.65,0,0,0,.64-2.18C1397.1,297.39,1397.42,294.45,1397.73,291.83Z"/><path class="cls-5" d="M1187.15,315.86H1176c0-.85-.09-1.65-.09-2.46,0-9.88,0-19.77,0-29.65a19.89,19.89,0,0,0-.8-5.37c-1-3.16-3.15-4.44-6.46-4.15a9.61,9.61,0,0,0-6.08,2.81c-3.76,3.68-5.24,8.3-5.29,13.42-.06,7.52,0,15.05,0,22.58,0,.83,0,1.67,0,2.81-2,0-3.81.06-5.67.07h-5.73c0-.87-.13-1.66-.13-2.46,0-8,0-16,0-23.95a44.18,44.18,0,0,0-1.71-12.84c-.77-2.52-1.83-4.95-2.84-7.6l8.67-3.47c2.75,2.9,3.89,6.41,4.92,10.22a9.26,9.26,0,0,0,.75-1c4-7.26,10.4-9.82,18.26-9.7a15.4,15.4,0,0,1,3,.32,11.55,11.55,0,0,1,8.62,6.75,21.34,21.34,0,0,1,2,9.06c.08,11.18,0,22.36,0,33.53A8.79,8.79,0,0,1,1187.15,315.86Z"/><path class="cls-6" d="M927.1,265.94h11.4v2.52c0,10.11,0,20.22,0,30.33a18.92,18.92,0,0,0,.38,3.83c1,4.61,4.47,6.47,8.92,4.84a12.45,12.45,0,0,0,6.15-5.23,20.86,20.86,0,0,0,3.21-11.47c0-7.37,0-14.75,0-22.12V266h11.5v2.42q0,12.31,0,24.63a45.47,45.47,0,0,0,1.82,13.27c.69,2.29,1.72,4.49,2.66,6.87l-8.53,3.44a10.92,10.92,0,0,1-3.39-4.89c-.71-1.72-1.27-3.49-2-5.37a6.65,6.65,0,0,0-.56.8c-4.4,8.53-15.42,10.61-22.57,8.61a10.92,10.92,0,0,1-7.28-6.4A24.21,24.21,0,0,1,927,299.15q0-15.63,0-31.24C927,267.31,927.06,266.71,927.1,265.94Z"/><path class="cls-3" d="M996.38,1.36c12.16-.16,17.37,7.8,18,15.84a25,25,0,0,1-.46,7.91c-1.84,7.82-7.56,12.77-15.55,13.41a23.33,23.33,0,0,1-8.15-.61c-7.26-2-11.94-8-12.41-15.93a24.17,24.17,0,0,1,.81-7.89A16.59,16.59,0,0,1,993.51,1.58C994.42,1.5,995.33,1.44,996.38,1.36Z"/><path class="cls-5" d="M1265.92,268.64c-1.17,2.69-2.23,5.12-3.38,7.74-.76-.27-1.44-.54-2.13-.74-2.69-.8-5.35-1.75-8.09-2.29a9.71,9.71,0,0,0-4.46.38c-2.23.66-3.11,2.52-2.73,4.85a7.28,7.28,0,0,0,3,4.92,39.86,39.86,0,0,0,4.93,2.8c2.11,1.05,4.32,1.89,6.4,3,10.21,5.37,9.41,19.56.2,24.92a20.85,20.85,0,0,1-13.19,2.54,42.82,42.82,0,0,1-13.71-4c-.4-.19-.77-.44-1.3-.75l3.65-8.31c.7.34,1.28.65,1.88.92,2.29,1,4.57,2.05,6.89,3a12.8,12.8,0,0,0,6.29.69c4.23-.46,6.23-3.93,4.33-7.75a10,10,0,0,0-2.73-3.26,26.73,26.73,0,0,0-4.19-2.26c-2.82-1.47-5.78-2.72-8.44-4.44-7.13-4.6-8.46-16.46.1-22.5a17.27,17.27,0,0,1,7.76-3.09C1253.66,264,1259.79,265.85,1265.92,268.64Z"/><path class="cls-7" d="M983.65,269.17l8.9-3.58c2.51,2.77,3.8,6.12,5,10.18,1.89-4.95,4.72-8.28,9.36-9.83,2.87-1,8.18-1,11.22.51-1,3.54-2,7.13-3.11,10.85l-1.64-.5a9.37,9.37,0,0,0-10.27,3.11,12.39,12.39,0,0,0-3,8.59c0,5.47,0,10.94,0,16.41v10.84H988.48v-2.37q0-12-.08-23.93C988.39,282.38,987.29,275.56,983.65,269.17Z"/><path class="cls-8" d="M1221.43,307.89c.39,2.31.76,4.54,1.18,7.06-4.74,1.61-9.34,2.26-13.79-.5a9.28,9.28,0,0,1-4-6.38,17.58,17.58,0,0,1-.37-3.62q0-18.46,0-36.94c0-.44,0-.89.07-1.31,1.72-.46,9-.53,11.56-.08V303c0,4.54.23,4.77,4.73,4.76A3.37,3.37,0,0,1,1221.43,307.89Z"/><path class="cls-9" d="M1217.06,250.43c0,4.32-2.64,7.09-6.84,7.12a6.41,6.41,0,0,1-6.86-6.83c0-4.43,2.71-7.15,7.09-7.11C1214.51,243.65,1217,246.26,1217.06,250.43Z"/><path class="cls-10" d="M37.18,131c4.49-4.66,8.53-9.48,13.19-13.57a37.73,37.73,0,0,1,50.21.7c.68.62,1.34,1.25,2,1.89l66.16,66.09c.32.32.7.58,1.13.94a10.55,10.55,0,0,1-.87,1.2c-3.77,3.76-7.46,7.6-11.34,11.24a37.73,37.73,0,0,1-52.73-.77Q71.46,165.38,38.11,132C37.74,131.59,37.39,131.19,37.18,131Z"/><path class="cls-11" d="M1397.73,291.83c-.31,2.62-.63,5.56-1,8.49a10.65,10.65,0,0,1-.64,2.18c-1.2,3.21-3.21,5.47-6.88,5.79-4,.35-7.3-.82-9.2-4.5a20.93,20.93,0,0,1-2-6,45.45,45.45,0,0,1,.26-16.32,17.23,17.23,0,0,1,.94-3,7.7,7.7,0,0,1,6.85-5.23c3.39-.27,6.32.71,8.39,3.59a14.55,14.55,0,0,1,2.52,6.76C1397.3,286.17,1397.46,288.83,1397.73,291.83Z"/></g></svg>