<svg xmlns="http://www.w3.org/2000/svg" viewBox="0 0 852.16 319"><defs><style>.cls-1{fill:#4f4434;}.cls-2{fill:#4e4334;}.cls-3{fill:#4e4434;}.cls-4{fill:#e5413c;}.cls-5{fill:#4e4333;}.cls-6{fill:#799127;}.cls-7{fill:#799027;}.cls-8{fill:#799128;}.cls-9{fill:#7a9128;}.cls-10{fill:#799026;}.cls-11{fill:#7a9129;}.cls-12{fill:#7a9229;}.cls-13{fill:#7c932c;}.cls-14{fill:#4f4435;}.cls-15{fill:#fcfcfb;}.cls-16{fill:#fdfdfd;}.cls-17{fill:#fdfcfc;}</style></defs><g id="Camada_2" data-name="Camada 2"><path class="cls-1" d="M337.35,41.76c-.22-3.18-.48-5.94-.54-8.71A2.37,2.37,0,0,1,338,31.23a8.44,8.44,0,0,1,3.34-.63c23.87.09,47.75-.3,71.58.57,10.93.41,21.83,3.09,30.83,10.36,6.87,5.54,10.35,12.84,11.44,21.48,1.29,10.21-.27,19.78-7,27.82-2.85,3.38-6.57,6-9.91,9-.7.63-1.42,1.24-2.53,2.2,1.62.92,2.77,1.71,4,2.27,15.72,7.06,24.05,21,23.15,38.33-.37,7.17-1.39,14.08-5.13,20.35-5.64,9.47-14.58,14.26-24.77,17.15a102.51,102.51,0,0,1-27.88,3.79c-9.86,0-19.73.19-29.6.26a32.42,32.42,0,0,1-4.83-.22c-9.29-1.32-11.89-4.66-12.87-12.51-.82-6.55-.67-13.25-.66-19.87.05-28.81.23-57.61.31-86.42,0-3.58-.2-7.17-.37-10.75-.39-8.13-4.49-12.12-13-12.63C341.88,41.66,339.73,41.76,337.35,41.76Zm47.3,126.43c10.18,1.45,20.22,1.55,30.21-.78,10.67-2.49,16.84-9.25,18.78-20,1.15-6.39.36-12.67-1.11-18.91-1.83-7.77-6.76-12.7-14.26-15-9.23-2.84-18.76-2.71-28.26-2.19-3.57.2-5.29,2.21-5.44,5.81q-.36,8.44-.44,16.9-.11,11.5,0,23C384.2,160.69,384.47,164.34,384.65,168.19ZM394.2,45l-.07.51H389c-4.44,0-4.82.34-4.82,4.93q0,14.79,0,29.59c0,3.31.09,6.64.36,9.94s1.73,4.77,4.53,5.11a66.19,66.19,0,0,0,21.39-.75c8.38-1.72,13.95-6.61,15.25-15.21a57.53,57.53,0,0,0,.2-13.88c-.91-9.68-6.56-15.75-15.85-18C404.91,46,399.51,45.73,394.2,45Z"/><path class="cls-2" d="M572.75,159.82c-3.09.26-6.29.46-9.48.8-8,.84-14.37,4.72-19.28,11-5.32,6.82-11.56,12.29-20.32,14.09-7.9,1.62-15.88,1.47-23.22-1.83-8.83-4-13-12-14.61-21a149.38,149.38,0,0,1-2.15-21.63c-.37-12-.14-24-.2-36.08a45.88,45.88,0,0,0-.31-4.83c-.73-6.44-3.32-8.95-9.79-9.58-5.82-.57-7.59-3.15-6.09-8.8.52-2,2-2.06,3.59-2.06,8,0,16,0,24,0,3.23,0,6.46-.08,9.69-.06,5.07,0,5.56.54,5.56,5.55,0,7.36,0,14.72,0,22.08,0,12.65-.07,25.31.13,38a41.81,41.81,0,0,0,1.52,11.38c3.27,10.7,14.13,13.8,22.89,6.82,8-6.42,11.34-15.06,11.42-25,.14-17.59.1-35.18.14-52.77V84.74c0-4.72.13-4.86,4.78-4.86,6.1,0,12.2.1,18.3,0,2.49,0,3.72,1,3.72,3.47q0,37.85,0,75.67A3.29,3.29,0,0,1,572.75,159.82Z"/><path class="cls-3" d="M780.29,92.34H757.34c-3.65,0-4.44.74-4.43,4.39.05,20.28.08,40.56.25,60.83.07,9.52,3.92,14.05,13.21,16.17,3.84.88,6,6.18,3.59,9.35a4,4,0,0,1-2.82,1.13c-8.16.08-16.33.11-24.49,0-6.35-.1-10-4-12.53-9.37-2.66-5.58-3.12-11.56-3.13-17.59q-.06-30.27,0-60.56c0-4.12-.22-4.29-4.46-4.36a55.75,55.75,0,0,1-8.29-.42c-3.15-.53-4.45-2.44-4.6-5.71-.16-3.5,1.19-5.8,4.12-6.74a22,22,0,0,1,4.16-.89c7.74-.8,12.56-5.2,15.08-12.31,2.64-7.42,3.45-15.17,3.67-23,.08-2.69,0-5.38,0-8.07.06-3.29,1.07-4.31,4.39-4.41,2.15-.07,4.3,0,6.45.1,3.9.2,5.22,1.55,5.28,5.56.1,5.65.11,11.3.11,17,0,6.91-.06,13.82-.06,20.73,0,3.81,1,4.73,4.8,4.72l17.49-.06c4.57,0,5.17.59,5.15,5C780.28,86.51,780.29,89.19,780.29,92.34Z"/><path class="cls-4" d="M238.06,162.93c3.72.84,7.4,2,11.16,2.46a310.88,310.88,0,0,1,73,18.41,12,12,0,0,1,2.75,1,10,10,0,0,1,1.78,2.26l-.6.49c-6.64-1.31-13.27-2.69-19.94-3.91-18-3.29-36.14-5.7-54.43-6.18-18-.46-36.05-.59-54,.12-11.93.47-23.78,2.89-35.7,4a277.14,277.14,0,0,0-46.31,8.85c-14.4,3.89-28.59,8.6-42.71,13.41a273.16,273.16,0,0,0-41,17.85c-6.43,3.45-12.85,6.94-19.3,10.36a21.59,21.59,0,0,1-3.32,1.12l-.55-.79a16.37,16.37,0,0,1,1.78-2.24c15.13-13.68,32.15-24.64,50.25-33.86,8.89-4.53,18.23-8.16,27.33-12.29a15.14,15.14,0,0,0,3-2.36c5.95-.3,11.36-2.4,16.66-4.91,21.28-5.55,42.69-10.46,64.64-12.63,2.76-.27,5.54-.31,8.31-.47a8.89,8.89,0,0,0,2.14-.18c6-1.86,12.14-.23,18.21-.59s12.33-.07,18.5-.09c.89,0,1.78-.11,2.67-.17Z"/><path class="cls-1" d="M611.72,183.85a32.11,32.11,0,0,1-15.81-.88,12,12,0,0,1-6-5.2c-4.1-7.07-4.2-15-4.16-23,.1-23.68,0-47.37,0-71,0-3.53.57-4.2,4.16-4.24q8.74-.1,17.49-.1c3.3,0,4.3,1.13,4.25,4.43,0,2.15,0,4.3.08,6.45a8.48,8.48,0,0,0,.65,2.12,9.86,9.86,0,0,0,2-1.47c1.41-1.73,2.6-3.65,4.05-5.35C624.1,79,631.15,76,639.79,77.8c5.89,1.21,9.37,5.33,11.48,10.69,1,2.48.13,4.86-1.54,6.74-2.66,3-5.46,5.94-8.35,8.75a5.46,5.46,0,0,1-6.27.92c-2.2-1-4.25-2.27-6.39-3.4-3.51-1.85-5.06-1.46-7.67,1.56-5.39,6.23-7.43,13.78-8.68,21.64a50.93,50.93,0,0,0-.62,7.7C611.7,149.45,611.72,166.49,611.72,183.85Z"/><path class="cls-1" d="M715.8,174.2V184c-3.93.16-7.93.46-11.93.44a144.39,144.39,0,0,1-16.65-.63c-2.38-.29-4.82-2-6.76-3.6-5.75-4.79-5.57-11.74-5.64-18.28-.21-18.48,0-37-.16-55.45A43.88,43.88,0,0,0,672.84,96c-1.24-4.79-5.07-6.36-9.55-6.86-1.33-.14-2.65-.33-3.89-.49-.11-.21-.18-.28-.19-.37-1.15-8.67-.94-8.89,7.59-8.87,9.33,0,18.66,0,28,0,4.65,0,5.67,1,5.68,5.72q0,35.39,0,70.78a81.82,81.82,0,0,0,.59,9.65c.76,6.26,3.58,7.85,9.73,8.62A45.42,45.42,0,0,0,715.8,174.2Z"/><path class="cls-5" d="M785.73,79.32h3.55c11.12,0,22.25,0,33.37,0,3.72,0,4.47.69,4.47,4.45q0,38.22,0,76.45a26,26,0,0,0,.43,5.07c1.34,6.73,4.27,9,11.14,9h2.78a35.45,35.45,0,0,1,1.26,5c.37,3.6-1.41,5.24-5,5.2-5.82-.08-11.64,0-17.47,0-4.88,0-9.54-1-13.41-4-3.47-2.67-4.33-6.91-5-11a55.35,55.35,0,0,1-.6-9.11c0-17.23.06-34.46,0-51.69A60.66,60.66,0,0,0,800.08,98c-1-5.57-4.44-8.4-10-8.81-4-.3-5.23-1.69-4.83-5.67C785.39,82.29,785.54,81,785.73,79.32Z"/><path class="cls-6" d="M161.76,6a17,17,0,0,1-.95,1.85c-14.71,22.18-29.47,44.34-46.69,64.72-15.36,18.17-31.31,35.8-49.8,50.91-3.79,3.1-7.71,6.07-11.77,8.82A15.8,15.8,0,0,1,40.8,135a7.74,7.74,0,0,1-6.22-10.68,20.55,20.55,0,0,1,8-10.21C73.75,93.32,101.24,68.3,127.11,41.4c10.5-10.93,20.69-22.17,31-33.24.92-1,2-1.85,2.95-2.76Z"/><path class="cls-7" d="M289,127.36c-.68-.31-1.38-.57-2-.93a570.11,570.11,0,0,1-56.58-37.24c-5.46-4-9.92-9-15.27-13.08A145.75,145.75,0,0,1,199.86,62.5c-9.62-9.78-19-19.81-28.34-29.85-3.79-4.07-6.5-8.83-6.94-14.53a18.92,18.92,0,0,1,.43-5.86C166.07,8,169.88,5.89,174.14,7a16.8,16.8,0,0,1,9.71,7.24C201.7,40.6,222.64,64.33,245.5,86.33c13.76,13.25,28.24,25.75,42.39,38.6.59.54,1.13,1.13,1.7,1.71Z"/><path class="cls-6" d="M93.8,240.24a15.94,15.94,0,0,1,2.15-.32c8.35,0,16.7-.28,25,.1a51.62,51.62,0,0,1,12.88,2.44c7.18,2.23,10.48,7.62,10.88,15,.37,6.88-2.21,12-8.48,15.15-.32.16-.61.38-.93.54-3.27,1.7-3.49,2.32-1.75,5.62q4.44,8.44,8.93,16.84c1.1,2.06,2.23,4.1,3.28,6.18,1.73,3.41,1.12,6.32-1.54,7.68-2.26,1.16-4.61.06-6.41-3.26-4.36-8-8.63-16.1-12.94-24.15-.51-.94-1-1.9-1.57-2.81a5.31,5.31,0,0,0-6.21-2.59c-2.71.62-4.66,2.2-4.93,5-.29,3.07-.16,6.17-.17,9.26,0,6,0,12,0,17.87-6.7.75-9.67-1.61-9.72-7.48-.11-12.48,0-24.95-.08-37.43,0-4.57-.26-9.14-.4-13.71s-1.4-8-6.86-8.63a3.78,3.78,0,0,1-1.12-.52Zm18.27,16.63h0c0,3.59,0,7.17,0,10.76,0,2.28.94,4.25,3.38,4.46a37.18,37.18,0,0,0,9.83,0c6.4-1.18,10.56-6.81,10.57-13.38,0-8-3-12.42-10.21-13.93-3.63-.77-7.44-.74-11.18-.93-1.82-.09-2.44,1.12-2.43,2.82C112.09,250.06,112.07,253.47,112.07,256.87Z"/><path class="cls-8" d="M709.82,239.91c3.48-.18,7-.54,10.43-.49,4.11.06,5.71,2.05,5.68,6.14-.06,7.52,0,15.05,0,22.57,0,1.69-.15,3.38-.23,5.07l.65.16a48.5,48.5,0,0,1,3.35-5.56c3.56-4.5,8.23-7.29,14-7.31,6.45,0,11.15,5.22,11.27,12.32.14,8.17.07,16.33.12,24.5,0,1.43.17,2.86.2,4.3.06,2.94,1.26,5,4.29,5.67.3.07.53.39.81.61-3.43,3.42-11,1.7-12.88-3a21.5,21.5,0,0,1-1.18-6.81c-.44-8-.53-16-1.12-23.91-.4-5.33-3.44-8.07-7.88-7.41a10.55,10.55,0,0,0-4.94,2.41c-4.57,3.87-6.66,9-6.78,14.95-.08,3.85-.09,7.71-.12,11.57,0,2.51,0,5,0,7.54,0,5.14-2.15,7.42-8.07,4.74a3.14,3.14,0,0,1-1.48-2.37q-.15-28.4-.09-56.79c0-4.53-.49-5.35-4.92-7a6.7,6.7,0,0,1-1.44-1.05Z"/><path class="cls-9" d="M468.9,269.05a35,35,0,0,0,.37-3.53c0-4.85,0-9.7-.17-14.54-.16-6.1-1.21-7.51-7.52-9.74,1.5-.73,2.47-1.59,3.45-1.62,2.86-.08,5.73.15,8.59.28,3.3.15,4.48,1.19,4.89,4.48a38.87,38.87,0,0,1,.23,4.83q0,25.86,0,51.7c0,.45-.05.89-.09,1.55-2.2.34-4.4.62-6.57,1-3.41.65-6.63,1.67-8.64,4.85-.19.29-.44.76-.68.77-5.9.25-12.16,2.23-17.31-2.16a20.27,20.27,0,0,1-5.73-7.46c-3.76-9.41-3.34-18.95.59-28.29,4-9.57,11.8-11.8,20.7-9.32,2.25.62,4,3.15,5.9,4.84A27.49,27.49,0,0,1,468.9,269.05Zm.33,18.53h-.18c0-2.69.36-5.45-.09-8.06a38,38,0,0,0-2.84-9.68c-1.7-3.57-5.07-4.92-9-4.56a8.79,8.79,0,0,0-8,5.82c-3.63,9-4.32,18.06-.9,27.27,1.95,5.26,6,7.9,11.17,7.21a11.15,11.15,0,0,0,9.81-10.47C469.33,292.61,469.23,290.09,469.23,287.58Z"/><path class="cls-9" d="M557,298.05c2,.87,4.2,1.46,6,2.68a16.54,16.54,0,0,0,9.19,3.32,54.65,54.65,0,0,0,8.87-.12c7.58-1.11,10.62-6.55,9-13.85-1.1-5.08-5-7.8-9.19-10.24q-7.41-4.33-14.73-8.85a24.78,24.78,0,0,1-4-3.19c-2.2-2.1-4.37-4.17-4.86-7.49-1.61-11,4.27-19,15.84-21.46,7.31-1.53,14.05,0,20.39,3.69.72.42,1.66,1.25,1.69,1.93a72.67,72.67,0,0,1-.22,7.94c0,.37-.63.71-1.2,1.31-.52-1-.92-1.78-1.29-2.54-3.8-7.72-11.78-10.76-19.73-7.53-6.48,2.64-9.08,10.12-5,15.76a28.88,28.88,0,0,0,7.83,6.72c5.72,3.67,12.07,6.42,17.47,10.48,10.41,7.84,9.46,23-1.75,29.66a26,26,0,0,1-11.12,3.45A45.24,45.24,0,0,1,566,308.48c-3.09-.78-5.83-3.3-8.44-5.41-1-.77-1-2.61-1.52-4Z"/><path class="cls-9" d="M671.71,273.29c.56-.84,1.16-1.65,1.69-2.51,4.09-6.55,9.66-10.52,17.7-10.11,3.42.18,7.48,3.43,8,6.82a100.86,100.86,0,0,1,1,12.28c.2,7.08,0,14.17.24,21.26.13,4.13,1.13,5,5.27,6.25a2.41,2.41,0,0,1,.72.53c0,.34,0,.67,0,.67-3.75.24-7.71,1.28-11.22.44-3.08-.74-4.31-4.39-4.38-7.72-.17-7.26-.12-14.53-.28-21.79a35.43,35.43,0,0,0-.79-7.72c-1.17-4.7-4.65-5.66-8.87-3.34-7.2,4-10.1,10-10,18,.1,5.83,0,11.66-.06,17.49-.08,4.72-3.41,7-7.81,5.25-.68-.27-1.17-1.85-1.18-2.83-.07-10.22,0-20.46-.05-30.69a27.3,27.3,0,0,0-1-6.3c-.65-2.58-2.1-4.52-4.93-5.1-.42-.09-1.06-.85-1-1.12.16-.54.73-1.33,1.16-1.35,4.39-.13,8.78-.19,13.17-.09.47,0,1.24,1.15,1.31,1.82.26,2.59.27,5.2.41,7.79,0,.65.16,1.3.24,1.94Z"/><path class="cls-6" d="M431.54,308.15c-.46.26-.91.54-1.38.78-3.85,2-11.46.2-13.85-3.44a6.88,6.88,0,0,1-.86-3.54c-.14-8.88,0-17.76-.38-26.62a12.08,12.08,0,0,0-3-7.08c-2.33-2.48-6.33-1.87-8.95.76-5.15,5.15-8.18,11.14-7.77,18.73.31,5.72,0,11.47,0,17.21,0,4.11-1.94,4-6.52,4.37-3,.25-2.71-2.29-2.71-4.22q-.06-14.79,0-29.59c0-5-.58-9.58-6-11.8-.21-.08-.37-.36-.5-.58a3.93,3.93,0,0,1-.06-1c1.43-.08,2.87-.21,4.31-.23,2.51,0,5,.1,7.52,0s3.47,1.1,3.75,3.28c.16,1.24.16,2.52.44,3.73a9.21,9.21,0,0,0,1.15,2.16,10.28,10.28,0,0,0,1.88-1.26c1.9-2,3.58-4.17,5.63-6,3.61-3.16,12.8-5.24,16.86,0a15.7,15.7,0,0,1,3.12,7.48c.6,5.6.53,11.27.65,16.91.08,3.94,0,7.88,0,11.83C425,305,426.39,306.66,431.54,308.15Z"/><path class="cls-10" d="M107.84,176.78c-5.3,2.51-10.71,4.61-16.66,4.91q-.06-27.45-.13-54.88c0-3.29.69-6.7,3.66-8.16,5-2.46,11.5-1.88,12.49,6a48.43,48.43,0,0,1,.37,5.9Q107.74,153.64,107.84,176.78Z"/><path class="cls-9" d="M371.06,288.72c0,3.59-.06,7.17,0,10.76.05,2.38-1,3.6-3.34,3.43-4.31-.3-7.83,1.42-11.08,4-4.22,3.36-8.91,3.86-13.93,2.16-4.51-1.53-7.24-4.54-7.71-9.35s1.33-8.66,5.71-10.93a61.13,61.13,0,0,1,10-4.44c2.28-.7,4.92-.4,7.39-.29s3.67-.88,3.58-3.2a102.36,102.36,0,0,0-.92-12.53c-.63-3.72-3.27-5.47-6.44-5.19-3,.27-5.25,2.69-5.89,6.08a23.91,23.91,0,0,1-1.73,5.85c-.94,2-3.09,2.13-4.78.65a14.85,14.85,0,0,0-1.51-1.09c-3.68-2.43-4-7-.31-9.47a25,25,0,0,1,23.58-2.75,9.58,9.58,0,0,1,6.29,8.12c.78,6,1.19,12.08,1.75,18.13Zm-9.27,4.7c-.06-.85-.14-2.55-.34-4.23-.31-2.66-1.29-3.49-4-2.92a35.75,35.75,0,0,0-6.59,2.15c-5.7,2.46-7.48,7.86-4.52,13.31,1.53,2.84,5.35,4.61,7.88,3.65C359,303.59,361.86,299.32,361.79,293.42Z"/><path class="cls-11" d="M609.37,285.53C610.3,281,611,276.4,612.2,272c2.09-7.75,8.68-11.27,15.49-11.14,4.39.09,8.71.13,12.54,2.94a15.18,15.18,0,0,1,5.87,7.81c2.4,7.69,3.91,15.46,1.74,23.5-.17.6-.34,1.21-.53,1.81-3,9.42-9.86,14.14-19.37,13.41-9.16-.7-15.77-6.89-17.25-16.31-.43-2.74-.54-5.53-.79-8.3Zm30.84-.43c-.85-4.86-1.4-10.32-2.82-15.55-1.73-6.37-8.63-8.63-13.26-4.44a11.63,11.63,0,0,0-3.56,6.64,149.17,149.17,0,0,0-1.1,20.58,30.62,30.62,0,0,0,2.82,11,6.77,6.77,0,0,0,8.39,3.73c3.3-1,6.77-2.26,7.38-6.47C638.79,295.67,639.44,290.71,640.21,285.1Z"/><path class="cls-12" d="M766.6,285.66c.94-4.7,1.37-9.57,2.92-14.06,2.49-7.2,8.1-10.53,15.69-10.81,8-.29,14.12,2.51,17.62,10.06,4.65,10,4.41,20.09.08,30.16-1.94,4.53-5.36,7.52-10.15,8.31a36.13,36.13,0,0,1-11.17.3c-7.22-1.13-12.35-6.93-13.65-14.72-.5-3-.56-6.06-.82-9.08Zm9.12-.56.59.1c0,.72,0,1.43,0,2.15.13,5.39.22,10.81,3,15.67a8.32,8.32,0,0,0,8.44,4.6c3.87-.35,6.08-2.69,7.08-6.34a55.67,55.67,0,0,0,0-31c-1.4-4.82-4.1-7.13-8.2-7.14s-7.2,2.2-8.36,7S776.53,280.09,775.72,285.1Z"/><path class="cls-11" d="M529.57,285.67A34.65,34.65,0,0,1,525.4,302c-2.3,4.11-5.6,7.38-10.9,7.53-2.41.06-4.82.58-7.23.55-4.82-.06-9.09-1.87-11.83-5.83-5.65-8.18-6.35-17.31-4.18-26.8.28-1.22.63-2.43.91-3.65,1.88-7.92,7-12.27,15.13-12.88,12.15-.92,18,4.28,21.42,18.12A54.2,54.2,0,0,1,529.57,285.67Zm-30.37-.85.6.08a34.34,34.34,0,0,0,.05,5.65c.69,4.11,1.22,8.34,2.65,12.21s4.67,5,9.4,4.45c3.19-.35,5.65-2.61,6.49-6.3a64.47,64.47,0,0,0-.17-30.38c-1.16-4.66-4-7.24-8-7.43s-7.5,2.13-8.68,6.94S499.93,279.89,499.2,284.82Z"/><path class="cls-11" d="M222.85,304c-4.35,6-10.79,7-17,4.76-8.62-3.09-10.33-12.92-3.4-18.93,3.88-3.38,8.68-4.49,13.6-5.2a67.32,67.32,0,0,0,7.13-1.08,3.29,3.29,0,0,0,2.07-2.2,30.39,30.39,0,0,0-1.21-13.65c-1.16-3.24-2.86-4.61-5.55-4.58a6.24,6.24,0,0,0-6.18,4.67,30.26,30.26,0,0,0-1,4.72,4.21,4.21,0,0,1-6.8,2.73c-4.17-3.22-4.27-6.81-.29-10.21,5.67-4.84,18.18-5.63,24.39-1.59a11.72,11.72,0,0,1,5.5,9.95c.23,8.88.17,17.76.2,26.63a2.6,2.6,0,0,1-2.5,2.92c-3,.35-6,.73-9,1.09a6.27,6.27,0,0,1,.32-1.24,24.19,24.19,0,0,0,2.5-13c-.14-1.73-.44-3.66-2.77-3.5-4.24.31-8.35,1.25-11.68,4.09s-3.87,8.25-1.6,12.07c1.93,3.25,4.91,3.88,9.69,2.2A22.61,22.61,0,0,1,222.85,304Z"/><path class="cls-11" d="M192,306.51a10.24,10.24,0,0,1-2.16,1.82C173,316,154.7,304.38,154.09,286.79a38.46,38.46,0,0,1,.7-10.68c2-8,7.43-13,15.42-14.82,7.54-1.75,14.25.12,19.65,5.8,3.11,3.26,3.79,8,1.27,10.32a9.29,9.29,0,0,1-5.4,2.26c-5,.32-10,.09-15.06.16-5.83.08-7.58,2.17-6.7,7.92a32.82,32.82,0,0,0,.83,3.94c3.15,11.36,11.79,16.63,23.32,14.29,1.1-.23,2.24-.29,3.36-.42Zm-17.57-43.43c-4.9,0-8.95,4.19-9.9,10.26-.38,2.36.71,3.93,3.11,4,3.74,0,7.5,0,11.23-.33,3.46-.29,5.26-2.46,4.95-5.43C183.37,267.25,178.73,263.08,174.42,263.08Z"/><path class="cls-7" d="M238.06,162.93l-15.75-.28L222.4,129c0-1.52-.05-3,.06-4.57.33-4.37,2.82-6.65,7.39-6.83s7.62,2.16,8.19,6.32a45.53,45.53,0,0,1,.32,6.18C238.29,141.05,238.17,152,238.06,162.93Z"/><path class="cls-12" d="M262.52,308.12a9.6,9.6,0,0,1-2.79,1.07,28.93,28.93,0,0,1-5.08-.41c-4.28-.61-5.94-2.23-6.53-6.53a45.5,45.5,0,0,1-.35-6.17c0-14.54-.08-29.08,0-43.61,0-5.11,0-9.95-6.55-11.77.55-.26,1.08-.74,1.63-.75,3.68-.07,7.36-.09,11,0,2.26.05,3.4.91,3.38,3.6-.14,18.67-.08,37.33-.08,56C257.18,303.16,259.05,306.12,262.52,308.12Z"/><path class="cls-13" d="M295.2,262.94h35.44c-1.12,2.54-1.69,4.62-2.84,6.32-7.38,10.9-14.9,21.72-22.32,32.6A12.83,12.83,0,0,0,304.4,305a14.41,14.41,0,0,0,3.21.77c6.27,0,12.55-.08,18.82,0,.72,0,1.43.94,2.14,1.44-.75.55-1.5,1.56-2.25,1.56-9.31,0-18.62-.1-27.93-.33-1.45,0-3.65-.55-4.11-1.51s.18-3.16,1-4.37c5.93-8.85,12-17.6,18.08-26.37,1.67-2.44,3.41-4.83,5-7.32,1.24-1.95.77-2.84-1.51-2.83q-7.12,0-14.25.35c-2.91.12-4.37,2.06-5.26,4.64a8.42,8.42,0,0,1-1.45,2l-.68-.43Z"/><path class="cls-12" d="M837.87,269.77c-2.36-5.3-6.64-6.1-11.54-5.62a6.82,6.82,0,0,0-6.11,4.91c-1.06,2.86,0,5.22,2.24,6.89,4,3,8.26,5.67,12.31,8.62a22.75,22.75,0,0,1,5,4.45c5.34,7.09,2.62,16.71-5.75,19.59a23.66,23.66,0,0,1-18.33-1,7.65,7.65,0,0,1-2.44-1.64,6.79,6.79,0,0,1-.82-2.27c.86-.15,1.82-.63,2.57-.41,2,.59,3.77,1.78,5.75,2.17a29.54,29.54,0,0,0,7.45.47c2.73-.18,4.93-1.34,5.59-4.48s0-6-2.68-7.88c-3.21-2.27-6.64-4.25-9.93-6.41a39.13,39.13,0,0,1-5.25-3.72c-6.88-6.27-5.44-16.39,2.86-20.61,5.78-2.94,11.74-2.71,17.69-.79A4.48,4.48,0,0,1,837.87,269.77Z"/><path class="cls-14" d="M814.15,41.61A13.73,13.73,0,0,1,828.2,55.19a14.06,14.06,0,0,1-14.15,13.89,14.23,14.23,0,0,1-14-14C800,47.45,806.21,41.58,814.15,41.61Z"/><path class="cls-1" d="M699.66,55.21c0,7.66-6.48,14.17-14.24,13.67C676.51,68.3,672,63.66,671.59,55c-.33-7.24,6.53-13.3,14.35-13.26A13.51,13.51,0,0,1,699.66,55.21Z"/><path class="cls-12" d="M267.51,262.13a17.82,17.82,0,0,1,3-.49c2.6,0,5.2.2,7.79.36,3.18.19,4.46,1.26,4.54,4.45.2,8.34.16,16.69.31,25,.07,3.31.43,6.62.6,9.93.15,2.81.91,5.16,4.23,5.83l-.56,2.08c-2.83-.35-5.5-.6-8.15-1a5.22,5.22,0,0,1-4.78-4.73,34.46,34.46,0,0,1-.38-4.54c0-8.62,0-17.23,0-25.85a26.93,26.93,0,0,0-.63-5,5.12,5.12,0,0,0-4.22-4.34,9.44,9.44,0,0,1-1.77-.76Z"/><path class="cls-15" d="M222.85,304a22.61,22.61,0,0,0-3.6.65c-4.78,1.68-7.76,1.05-9.69-2.2-2.27-3.82-1.62-9.33,1.6-12.07s7.44-3.78,11.68-4.09c2.33-.16,2.63,1.77,2.77,3.5a24.19,24.19,0,0,1-2.5,13,6.27,6.27,0,0,0-.32,1.24Z"/><path class="cls-12" d="M278.72,250.72a5.29,5.29,0,0,1-5.51-5.24,5.93,5.93,0,0,1,5.7-5.58,5.58,5.58,0,0,1,5.46,5.7A5.37,5.37,0,0,1,278.72,250.72Z"/><path class="cls-16" d="M384.65,168.19c-.18-3.85-.45-7.5-.49-11.16q-.12-11.5,0-23,.08-8.45.44-16.9c.15-3.6,1.87-5.61,5.44-5.81,9.5-.52,19-.65,28.26,2.19,7.5,2.32,12.43,7.25,14.26,15,1.47,6.24,2.26,12.52,1.11,18.91-1.94,10.73-8.11,17.49-18.78,20C404.87,169.74,394.83,169.64,384.65,168.19Z"/><path class="cls-17" d="M394.2,45c5.31.71,10.71,1,15.89,2.24,9.29,2.25,14.94,8.32,15.85,18a57.53,57.53,0,0,1-.2,13.88c-1.3,8.6-6.87,13.49-15.25,15.21a66.19,66.19,0,0,1-21.39.75c-2.8-.34-4.27-1.91-4.53-5.11s-.34-6.63-.36-9.94q-.06-14.79,0-29.59c0-4.59.38-5,4.82-4.93h5.11Z"/><path class="cls-15" d="M361.79,293.42c.07,5.9-2.83,10.17-7.53,12-2.53,1-6.35-.81-7.88-3.65-3-5.45-1.18-10.85,4.52-13.31a35.75,35.75,0,0,1,6.59-2.15c2.67-.57,3.65.26,4,2.92C361.65,290.87,361.73,292.57,361.79,293.42Z"/><path class="cls-15" d="M174.42,263.08c4.31,0,9,4.17,9.39,8.46.31,3-1.49,5.14-4.95,5.43-3.73.31-7.49.37-11.23.33-2.4,0-3.49-1.6-3.11-4C165.47,267.27,169.52,263.07,174.42,263.08Z"/></g></svg>