<svg id="Camada_1" data-name="Camada 1" xmlns="http://www.w3.org/2000/svg" viewBox="0 0 726.5 250"><defs><style>.cls-1{fill:#fff;}.cls-2{fill:none;stroke:#fff;stroke-miterlimit:10;stroke-width:15px;}</style></defs><title>logo_azul</title><path class="cls-1" d="M476.6,215.2V54.7h24.9V215.2Z" transform="translate(-17 -10)"/><path class="cls-1" d="M655,215.2l-15.4-37.4h-76l-15.4,37.4h-27L590,54.7h23.3L682,215.2ZM601.6,86.1l-28.2,68.3h56.4Z" transform="translate(-17 -10)"/><path class="cls-1" d="M119.6,213.7H102.5V195.9c-8.9,13.1-23.2,20.7-41.4,20.7-26.5,0-44.1-18.9-44.1-46.7V104.2H34.1v62.6c0,20.5,12,34.1,30.3,34.1,22.9,0,38.1-15.4,38.1-43.9V104.2h17.1Z" transform="translate(-17 -10)"/><path class="cls-1" d="M219.6,106.6l-1.3,16.3c-2-.2-4.5-.2-6.5-.2-29.2,0-44.1,22-44.1,51.7v42.3H150.5V106.8h17.2v26.9c8.9-16.3,23.8-28.1,44.1-28.1A27.83,27.83,0,0,1,219.6,106.6Z" transform="translate(-17 -10)"/><path class="cls-1" d="M365.8,158.9c0,34.7-25.6,57.7-54.8,57.7-18.3,0-33.8-7.4-43.6-20.3v17.4H250.5V53.3h16.9v68.1c9.8-12.9,25.4-20.3,43.6-20.3C340.2,101.2,365.8,124.2,365.8,158.9Zm-16.5,0c0-26.3-18.3-42.8-41-42.8-20.7,0-41,16.5-41,42.8,0,26,20.3,42.5,41,42.5C331.1,201.4,349.3,184.9,349.3,158.9Z" transform="translate(-17 -10)"/><path class="cls-2" d="M706,252.5H440a30,30,0,0,1-30-30V47.5a30,30,0,0,1,30-30H706a30,30,0,0,1,30,30v175A30,30,0,0,1,706,252.5Z" transform="translate(-17 -10)"/></svg>