<?xml version="1.0" encoding="utf-8"?>
<!-- Generator: Adobe Illustrator 23.0.1, SVG Export Plug-In . SVG Version: 6.00 Build 0)  -->
<svg version="1.1" id="Camada_1" xmlns="http://www.w3.org/2000/svg" xmlns:xlink="http://www.w3.org/1999/xlink" x="0px" y="0px"
	 viewBox="0 0 753 270" style="enable-background:new 0 0 753 270;" xml:space="preserve">
<style type="text/css">
	.st0{display:none;fill:#FFFFFF;}
	.st1{fill:#1890FF;}
	.st2{fill:none;stroke:#0099FF;stroke-width:15;stroke-miterlimit:10;}
</style>
<path class="st0" d="M708.6,25.1c12.5,0,22.7,10,22.6,22.3l-0.2,179c0,12.3-10.2,22.3-22.7,22.3l-269.6-0.3
	c-12.5,0-22.7-10-22.6-22.3l0.2-179c0-12.3,10.2-22.3,22.7-22.3L708.6,25.1 M708.6,2.6L439,2.4c-25.1,0-45.5,20-45.5,44.7l-0.2,179
	c0,24.7,20.3,44.8,45.4,44.8l269.6,0.3c25.1,0,45.5-20,45.5-44.7l0.2-179C754,22.7,733.7,2.7,708.6,2.6"/>
<g>
	<g>
		<path class="st1" d="M475.6,217.2V56.7h24.9v160.5H475.6z"/>
		<path class="st1" d="M654,217.2l-15.4-37.4h-76l-15.4,37.4h-27l68.8-160.5h23.3L681,217.2H654z M600.6,88.1l-28.2,68.3h56.4
			L600.6,88.1z"/>
	</g>
	<path class="st1" d="M118.6,215.7h-17.1v-17.8c-8.9,13.1-23.2,20.7-41.4,20.7c-26.5,0-44.1-18.9-44.1-46.7v-65.7h17.1v62.6
		c0,20.5,12,34.1,30.3,34.1c22.9,0,38.1-15.4,38.1-43.9v-52.8h17.1V215.7z"/>
	<path class="st1" d="M218.6,108.6l-1.3,16.3c-2-0.2-4.5-0.2-6.5-0.2c-29.2,0-44.1,22-44.1,51.7v42.3h-17.2V108.8h17.2v26.9
		c8.9-16.3,23.8-28.1,44.1-28.1C213.5,107.7,215.5,107.7,218.6,108.6z"/>
	<path class="st1" d="M364.8,160.9c0,34.7-25.6,57.7-54.8,57.7c-18.3,0-33.8-7.4-43.6-20.3v17.4h-16.9V55.3h16.9v68.1
		c9.8-12.9,25.4-20.3,43.6-20.3C339.2,103.2,364.8,126.2,364.8,160.9z M348.3,160.9c0-26.3-18.3-42.8-41-42.8
		c-20.7,0-41,16.5-41,42.8c0,26,20.3,42.5,41,42.5C330.1,203.4,348.3,186.9,348.3,160.9z"/>
	<path class="st2" d="M705,254.5H439c-16.6,0-30-13.4-30-30v-175c0-16.6,13.4-30,30-30h266c16.6,0,30,13.4,30,30v175
		C735,241,721.6,254.5,705,254.5z"/>
</g>
</svg>
